{"glyphs":{"0":{"ha":992,"x_min":57,"x_max":935,"o":"m 256 168 q 206 148 226 168 q 186 99 186 128 q 207 50 186 71 q 256 29 228 29 q 305 50 285 29 q 325 99 325 71 q 305 148 325 128 q 256 168 285 168 m 363 82 q 314 62 335 82 q 293 13 293 42 q 314 -37 293 -17 q 363 -57 335 -57 q 412 -37 392 -57 q 432 13 432 -17 q 412 62 432 42 q 363 82 392 82 m 182 288 q 133 267 154 288 q 113 218 113 247 q 133 169 113 189 q 182 149 154 149 q 231 169 211 149 q 251 218 251 189 q 231 267 251 247 q 182 288 211 288 m 496 47 q 447 27 467 47 q 426 -22 426 7 q 447 -72 426 -51 q 496 -92 467 -92 q 545 -72 525 -92 q 565 -22 565 -51 q 545 27 565 7 q 496 47 525 47 m 140 418 q 91 398 111 418 q 71 349 71 378 q 91 300 71 321 q 140 279 111 279 q 190 300 169 279 q 210 349 210 321 q 190 398 210 378 q 140 418 169 418 m 126 557 q 77 536 97 557 q 57 488 57 515 q 77 438 57 458 q 126 418 97 418 q 176 438 156 418 q 196 488 196 458 q 176 536 196 515 q 126 557 156 557 m 629 82 q 580 62 600 82 q 560 13 560 42 q 580 -37 560 -17 q 629 -57 600 -57 q 678 -37 658 -57 q 699 13 699 -17 q 678 62 699 42 q 629 82 658 82 m 140 694 q 91 674 111 694 q 71 625 71 654 q 91 576 71 596 q 140 556 111 556 q 190 576 169 556 q 210 625 210 596 q 190 674 210 654 q 140 694 169 694 m 736 168 q 687 148 707 168 q 667 99 667 128 q 687 50 667 71 q 736 29 707 29 q 785 50 765 29 q 806 99 806 71 q 785 148 806 128 q 736 168 765 168 m 182 825 q 133 805 154 825 q 113 756 113 785 q 133 707 113 728 q 182 686 154 686 q 231 707 211 686 q 251 756 251 728 q 231 805 251 785 q 182 825 211 825 m 810 288 q 760 267 781 288 q 740 218 740 247 q 760 169 740 189 q 810 149 781 149 q 859 169 839 149 q 879 218 879 189 q 859 267 879 247 q 810 288 839 288 m 256 944 q 207 924 228 944 q 186 875 186 903 q 206 826 186 846 q 256 806 226 806 q 305 826 285 806 q 325 875 325 846 q 305 924 325 903 q 256 944 285 944 m 851 418 q 803 398 824 418 q 782 349 782 378 q 803 300 782 321 q 851 279 824 279 q 901 300 881 279 q 921 349 921 321 q 901 398 921 378 q 851 418 881 418 m 363 1031 q 314 1010 335 1031 q 293 961 293 990 q 314 913 293 933 q 363 892 335 892 q 412 913 392 892 q 432 961 432 933 q 412 1010 432 990 q 363 1031 392 1031 m 865 557 q 816 536 836 557 q 796 488 796 515 q 816 438 796 458 q 865 418 836 418 q 915 438 894 418 q 935 488 935 458 q 915 536 935 515 q 865 557 894 557 m 851 694 q 803 674 824 694 q 782 625 782 654 q 803 576 782 596 q 851 556 824 556 q 901 576 881 556 q 921 625 921 596 q 901 674 921 654 q 851 694 881 694 m 496 1065 q 447 1045 467 1065 q 426 996 426 1025 q 447 947 426 968 q 496 926 467 926 q 545 947 525 926 q 565 996 565 968 q 545 1045 565 1025 q 496 1065 525 1065 m 810 825 q 760 805 781 825 q 740 756 740 785 q 760 707 740 728 q 810 686 781 686 q 859 707 839 686 q 879 756 879 728 q 859 805 879 785 q 810 825 839 825 m 629 1031 q 580 1010 600 1031 q 560 961 560 990 q 580 913 560 933 q 629 892 600 892 q 678 913 658 892 q 699 961 699 933 q 678 1010 699 990 q 629 1031 658 1031 m 736 944 q 687 924 707 944 q 667 875 667 903 q 687 826 667 846 q 736 806 707 806 q 785 826 765 806 q 806 875 806 846 q 785 924 806 903 q 736 944 765 944 z "},"1":{"ha":992,"x_min":204,"x_max":676,"o":"m 607 904 q 656 883 636 904 q 676 835 676 863 q 656 785 676 806 q 607 765 636 765 q 558 785 579 765 q 538 835 538 806 q 496 821 519 821 q 447 841 467 821 q 426 890 426 861 q 447 939 426 918 q 496 960 467 960 q 545 939 525 960 q 565 890 565 918 q 607 904 583 904 m 607 71 q 558 50 579 71 q 538 1 538 29 q 558 -48 538 -28 q 607 -68 579 -68 q 656 -48 636 -68 q 676 1 676 -28 q 656 50 676 29 q 607 71 636 71 m 607 210 q 558 189 579 210 q 538 140 538 168 q 558 91 538 111 q 607 71 579 71 q 656 91 636 71 q 676 140 676 111 q 656 189 676 168 q 607 210 636 210 m 607 349 q 558 328 579 349 q 538 279 538 307 q 558 230 538 250 q 607 210 579 210 q 656 230 636 210 q 676 279 676 250 q 656 328 676 307 q 607 349 636 349 m 274 793 q 224 772 244 793 q 204 724 204 751 q 224 674 204 694 q 274 654 244 654 q 323 674 303 654 q 343 724 343 694 q 323 772 343 751 q 274 793 303 793 m 607 488 q 558 467 579 488 q 538 418 538 446 q 558 369 538 389 q 607 349 579 349 q 656 369 636 349 q 676 418 676 389 q 656 467 676 446 q 607 488 636 488 m 607 626 q 558 606 579 626 q 538 557 538 585 q 558 508 538 528 q 607 488 579 488 q 656 508 636 488 q 676 557 676 528 q 656 606 676 585 q 607 626 636 626 m 385 876 q 335 856 356 876 q 315 807 315 835 q 335 758 315 778 q 385 738 356 738 q 434 758 414 738 q 454 807 454 778 q 434 856 454 835 q 385 876 414 876 m 607 765 q 558 744 579 765 q 538 696 538 724 q 558 647 538 667 q 607 626 579 626 q 656 647 636 626 q 676 696 676 667 q 656 744 676 724 q 607 765 636 765 m 607 1043 q 558 1022 579 1043 q 538 974 538 1001 q 558 924 538 944 q 607 904 579 904 q 656 924 636 904 q 676 974 676 944 q 656 1022 676 1001 q 607 1043 636 1043 z "},"2":{"ha":992,"x_min":124,"x_max":868,"o":"m 313 164 q 362 144 342 164 q 382 94 382 124 q 375 65 382 79 q 419 0 419 47 q 399 -49 419 -29 q 350 -69 378 -69 q 301 -49 321 -69 q 281 0 281 -29 q 288 31 281 17 q 243 94 243 47 q 263 144 243 124 q 313 164 283 164 m 211 69 q 162 49 182 69 q 142 0 142 29 q 162 -49 142 -29 q 211 -69 182 -69 q 260 -49 239 -69 q 281 0 281 -29 q 260 49 281 29 q 211 69 239 69 m 489 69 q 440 49 460 69 q 419 0 419 29 q 440 -49 419 -29 q 489 -69 460 -69 q 538 -49 517 -69 q 558 0 558 -29 q 538 49 558 29 q 489 69 517 69 m 415 258 q 366 238 386 258 q 346 189 346 218 q 366 140 346 160 q 415 119 386 119 q 464 140 443 119 q 485 189 485 160 q 464 238 485 218 q 415 258 443 258 m 628 69 q 578 49 599 69 q 558 0 558 29 q 578 -49 558 -29 q 628 -69 599 -69 q 676 -49 656 -69 q 697 0 697 -29 q 676 49 697 29 q 628 69 656 69 m 767 69 q 717 49 738 69 q 697 0 697 29 q 717 -49 697 -29 q 767 -69 738 -69 q 815 -49 794 -69 q 836 0 836 -29 q 815 49 836 29 q 767 69 794 69 m 517 353 q 467 332 488 353 q 447 283 447 311 q 467 234 447 254 q 517 214 488 214 q 566 234 546 214 q 586 283 586 254 q 566 332 586 311 q 517 353 546 353 m 194 846 q 144 826 165 846 q 124 776 124 806 q 144 727 124 747 q 193 707 165 707 q 243 727 222 707 q 264 776 264 747 q 243 826 264 806 q 194 846 222 846 m 618 447 q 569 427 590 447 q 549 378 549 407 q 569 328 549 349 q 618 308 590 308 q 667 328 647 308 q 688 378 688 349 q 667 427 688 407 q 618 447 647 447 m 265 964 q 216 944 236 964 q 196 894 196 924 q 216 846 196 867 q 265 825 236 825 q 314 846 293 825 q 335 894 335 867 q 314 944 335 924 q 265 964 293 964 m 721 540 q 672 520 692 540 q 651 471 651 500 q 672 422 651 442 q 721 401 692 401 q 769 422 749 401 q 790 471 790 442 q 769 520 790 500 q 721 540 749 540 m 379 1042 q 330 1021 350 1042 q 310 972 310 1000 q 330 923 310 943 q 379 903 350 903 q 428 923 408 903 q 449 972 449 943 q 428 1021 449 1000 q 379 1042 408 1042 m 789 661 q 740 641 760 661 q 719 592 719 621 q 740 542 719 563 q 789 522 760 522 q 838 542 818 522 q 858 592 858 563 q 838 641 858 621 q 789 661 818 661 m 515 1061 q 466 1040 486 1061 q 446 992 446 1019 q 466 942 446 963 q 515 922 486 922 q 565 942 544 922 q 585 992 585 963 q 565 1040 585 1019 q 515 1061 544 1061 m 799 799 q 749 778 769 799 q 729 729 729 757 q 749 680 729 700 q 799 660 769 660 q 847 680 826 660 q 868 729 868 700 q 847 778 868 757 q 799 799 826 799 m 647 1019 q 598 999 618 1019 q 578 950 578 979 q 598 901 578 921 q 647 881 618 881 q 696 901 675 881 q 717 950 717 921 q 696 999 717 979 q 647 1019 675 1019 m 747 926 q 698 906 718 926 q 678 857 678 886 q 698 808 678 829 q 747 788 718 788 q 797 808 776 788 q 817 857 817 829 q 797 906 817 886 q 747 926 776 926 z "},"3":{"ha":992,"x_min":118,"x_max":874,"o":"m 250 153 q 201 133 222 153 q 181 83 181 113 q 201 34 181 54 q 250 14 222 14 q 299 34 279 14 q 319 83 319 54 q 299 133 319 113 q 250 153 279 153 m 363 71 q 313 51 333 71 q 293 1 293 31 q 313 -47 293 -26 q 363 -68 333 -68 q 411 -47 390 -68 q 432 1 432 -26 q 411 51 432 31 q 363 71 390 71 m 188 275 q 138 255 158 275 q 118 206 118 235 q 138 156 118 176 q 188 136 158 136 q 237 156 217 136 q 257 206 257 176 q 237 255 257 235 q 188 275 217 275 m 497 44 q 448 24 468 44 q 428 -25 428 4 q 448 -74 428 -54 q 497 -94 468 -94 q 547 -74 526 -94 q 567 -25 567 -54 q 547 24 567 4 q 497 44 526 44 m 632 74 q 583 53 604 74 q 563 4 563 33 q 583 -45 563 -25 q 632 -65 604 -65 q 681 -45 661 -65 q 701 4 701 -25 q 681 53 701 33 q 632 74 661 74 m 743 156 q 694 135 714 156 q 674 86 674 114 q 694 37 674 57 q 743 17 714 17 q 792 37 771 17 q 813 86 813 57 q 792 135 813 114 q 743 156 771 156 m 464 604 q 415 584 435 604 q 394 535 394 564 q 415 486 394 507 q 464 465 435 465 q 513 486 493 465 q 533 535 533 507 q 513 584 533 564 q 464 604 493 604 m 804 279 q 755 258 775 279 q 735 210 735 238 q 755 160 735 181 q 804 140 775 140 q 853 160 833 140 q 874 210 874 181 q 853 258 874 238 q 804 279 833 279 m 257 944 q 208 924 229 944 q 188 875 188 903 q 208 826 188 846 q 257 806 229 806 q 306 826 286 806 q 326 875 326 846 q 306 924 326 903 q 257 944 286 944 m 603 604 q 553 584 574 604 q 533 535 533 564 q 553 486 533 507 q 603 465 574 465 q 652 486 632 465 q 672 535 672 507 q 652 584 672 564 q 603 604 632 604 m 794 415 q 745 395 765 415 q 725 346 725 375 q 745 297 725 317 q 794 276 765 276 q 844 297 824 276 q 864 346 864 317 q 844 395 864 375 q 794 415 824 415 m 719 531 q 670 510 690 531 q 650 461 650 490 q 670 412 650 432 q 719 392 690 392 q 769 412 749 392 q 789 461 789 432 q 769 510 789 490 q 719 531 749 531 m 363 1032 q 314 1012 335 1032 q 293 963 293 992 q 314 913 293 933 q 363 893 335 893 q 412 913 392 893 q 432 963 432 933 q 412 1012 432 992 q 363 1032 392 1032 m 718 683 q 669 663 689 683 q 649 614 649 642 q 669 565 649 585 q 718 544 689 544 q 767 565 746 544 q 788 614 788 585 q 767 663 788 642 q 718 683 746 683 m 499 1061 q 449 1041 469 1061 q 429 992 429 1021 q 449 942 429 963 q 499 922 469 922 q 547 942 526 922 q 568 992 568 963 q 547 1041 568 1021 q 499 1061 526 1061 m 772 808 q 723 788 743 808 q 703 739 703 768 q 723 690 703 710 q 772 669 743 669 q 821 690 800 669 q 842 739 842 710 q 821 788 842 768 q 772 808 800 808 m 632 1029 q 583 1009 603 1029 q 563 960 563 989 q 583 910 563 931 q 632 890 603 890 q 681 910 661 890 q 701 960 701 931 q 681 1009 701 989 q 632 1029 661 1029 m 736 940 q 687 919 707 940 q 667 871 667 899 q 687 822 667 842 q 736 801 707 801 q 785 822 765 801 q 806 871 806 842 q 785 919 806 899 q 736 940 765 940 z "},"4":{"ha":992,"x_min":79,"x_max":913,"o":"m 704 904 q 753 883 733 904 q 774 835 774 863 q 753 785 774 806 q 704 765 733 765 q 646 797 667 765 q 611 788 631 788 q 563 808 583 788 q 542 857 542 828 q 563 906 542 886 q 611 926 583 926 q 671 894 650 926 q 704 904 686 904 m 242 464 q 291 444 271 464 q 311 394 311 424 q 293 347 311 368 q 338 326 319 346 q 357 279 357 306 q 337 230 357 250 q 288 210 317 210 q 238 230 258 210 q 218 279 218 250 q 236 325 218 306 q 191 347 210 326 q 172 394 172 367 q 192 444 172 424 q 242 464 213 464 m 149 349 q 99 328 119 349 q 79 279 79 307 q 99 230 79 250 q 149 210 119 210 q 198 230 178 210 q 218 279 218 250 q 198 328 218 307 q 149 349 178 349 m 704 71 q 655 50 675 71 q 635 1 635 29 q 655 -48 635 -28 q 704 -68 675 -68 q 753 -48 733 -68 q 774 1 774 -28 q 753 50 774 29 q 704 71 733 71 m 426 349 q 377 328 397 349 q 357 279 357 307 q 377 230 357 250 q 426 210 397 210 q 476 230 456 210 q 496 279 496 250 q 476 328 496 307 q 426 349 456 349 m 704 210 q 655 189 675 210 q 635 140 635 168 q 655 91 635 111 q 704 71 675 71 q 753 91 733 71 q 774 140 774 111 q 753 189 774 168 q 704 210 733 210 m 565 349 q 516 328 536 349 q 496 279 496 307 q 516 230 496 250 q 565 210 536 210 q 615 230 594 210 q 635 279 635 250 q 615 328 635 307 q 565 349 594 349 m 333 579 q 285 559 306 579 q 264 510 264 539 q 285 460 264 481 q 333 440 306 440 q 383 460 363 440 q 403 510 403 481 q 383 559 403 539 q 333 579 363 579 m 704 349 q 655 328 675 349 q 635 279 635 307 q 655 230 635 250 q 704 210 675 210 q 753 230 733 210 q 774 279 774 250 q 753 328 774 307 q 704 349 733 349 m 426 696 q 377 675 397 696 q 357 626 357 654 q 377 577 357 597 q 426 557 397 557 q 476 577 456 557 q 496 626 496 597 q 476 675 496 654 q 426 696 456 696 m 843 349 q 794 328 814 349 q 774 279 774 307 q 794 230 774 250 q 843 210 814 210 q 892 230 872 210 q 913 279 913 250 q 892 328 913 307 q 843 349 872 349 m 704 488 q 655 467 675 488 q 635 418 635 446 q 655 369 635 389 q 704 349 675 349 q 753 369 733 349 q 774 418 774 389 q 753 467 774 446 q 704 488 733 488 m 704 626 q 655 606 675 626 q 635 557 635 585 q 655 508 635 528 q 704 488 675 488 q 753 508 733 488 q 774 557 774 528 q 753 606 774 585 q 704 626 733 626 m 519 811 q 470 791 490 811 q 450 742 450 771 q 470 692 450 713 q 519 672 490 672 q 569 692 549 672 q 589 742 589 713 q 569 791 589 771 q 519 811 549 811 m 704 765 q 655 744 675 765 q 635 696 635 724 q 655 647 635 667 q 704 626 675 626 q 753 647 733 626 q 774 696 774 667 q 753 744 774 724 q 704 765 733 765 m 704 1043 q 655 1022 675 1043 q 635 974 635 1001 q 655 924 635 944 q 704 904 675 904 q 753 924 733 904 q 774 974 774 944 q 753 1022 774 1001 q 704 1043 733 1043 z "},"5":{"ha":992,"x_min":114,"x_max":851,"o":"m 261 138 q 212 117 232 138 q 192 68 192 96 q 212 19 192 39 q 261 -1 232 -1 q 310 19 290 -1 q 331 68 331 39 q 310 117 331 96 q 261 138 290 138 m 183 250 q 134 230 154 250 q 114 181 114 210 q 134 131 114 151 q 183 111 154 111 q 231 131 211 111 q 251 181 251 151 q 231 230 251 210 q 183 250 211 250 m 381 68 q 331 48 351 68 q 311 -1 311 28 q 331 -50 311 -29 q 381 -71 351 -71 q 430 -50 410 -71 q 450 -1 450 -29 q 430 48 450 28 q 381 68 410 68 m 518 58 q 469 38 489 58 q 449 -11 449 18 q 469 -60 449 -40 q 518 -81 489 -81 q 567 -60 547 -81 q 588 -11 588 -40 q 567 38 588 18 q 518 58 547 58 m 647 108 q 598 88 618 108 q 578 39 578 68 q 598 -10 578 11 q 647 -31 618 -31 q 696 -10 675 -31 q 717 39 717 11 q 696 88 717 68 q 647 108 675 108 m 301 626 q 252 606 272 626 q 232 557 232 586 q 252 508 232 529 q 301 488 272 488 q 351 508 331 488 q 371 557 371 529 q 351 606 371 586 q 301 626 331 626 m 740 210 q 691 190 711 210 q 671 140 671 169 q 691 91 671 111 q 740 71 711 71 q 790 91 769 71 q 810 140 810 111 q 790 190 810 169 q 740 210 769 210 m 314 765 q 265 745 285 765 q 244 696 244 725 q 265 647 244 667 q 314 626 285 626 q 363 647 342 626 q 383 696 383 667 q 363 745 383 725 q 314 765 342 765 m 429 675 q 381 655 401 675 q 360 606 360 635 q 381 556 360 576 q 429 536 401 536 q 478 556 458 536 q 499 606 499 576 q 478 655 499 635 q 429 675 458 675 m 782 342 q 733 322 753 342 q 713 272 713 301 q 733 223 713 243 q 782 203 753 203 q 831 223 810 203 q 851 272 851 243 q 831 322 851 301 q 782 342 810 342 m 325 904 q 276 883 297 904 q 256 835 256 863 q 276 785 256 806 q 325 765 297 765 q 374 785 354 765 q 394 835 394 806 q 374 883 394 863 q 325 904 354 904 m 567 663 q 518 642 539 663 q 497 593 497 622 q 518 544 497 564 q 567 524 539 524 q 616 544 596 524 q 636 593 636 564 q 616 642 636 622 q 567 663 596 663 m 763 478 q 713 458 733 478 q 693 408 693 438 q 713 359 693 379 q 763 339 733 339 q 811 359 790 339 q 832 408 832 379 q 811 458 832 438 q 763 478 790 478 m 685 593 q 636 572 657 593 q 615 524 615 551 q 636 474 615 494 q 685 454 657 454 q 734 474 714 454 q 754 524 754 494 q 734 572 754 551 q 685 593 714 593 m 338 1043 q 288 1022 308 1043 q 268 974 268 1001 q 288 924 268 944 q 338 904 308 904 q 387 924 367 904 q 407 974 407 944 q 387 1022 407 1001 q 338 1043 367 1043 m 476 1043 q 427 1022 447 1043 q 407 974 407 1001 q 427 924 407 944 q 476 904 447 904 q 526 924 506 904 q 546 974 546 944 q 526 1022 546 1001 q 476 1043 506 1043 m 615 1043 q 566 1022 586 1043 q 546 974 546 1001 q 566 924 546 944 q 615 904 586 904 q 665 924 644 904 q 685 974 685 944 q 665 1022 685 1001 q 615 1043 644 1043 m 754 1043 q 705 1022 725 1043 q 685 974 685 1001 q 705 924 685 944 q 754 904 725 904 q 803 924 783 904 q 824 974 824 944 q 803 1022 824 1001 q 754 1043 783 1043 z "},"6":{"ha":992,"x_min":122,"x_max":869,"o":"m 253 172 q 203 152 224 172 q 183 103 183 132 q 203 53 183 74 q 253 33 224 33 q 302 53 282 33 q 322 103 322 74 q 302 152 322 132 q 253 172 282 172 m 360 86 q 310 66 331 86 q 290 17 290 46 q 310 -33 290 -12 q 360 -53 331 -53 q 409 -33 389 -53 q 429 17 429 -12 q 409 66 429 46 q 360 86 389 86 m 193 296 q 144 276 164 296 q 124 226 124 256 q 144 177 124 197 q 193 157 164 157 q 242 177 222 157 q 263 226 263 197 q 242 276 263 256 q 193 296 222 296 m 494 56 q 445 35 465 56 q 425 -14 425 15 q 445 -63 425 -43 q 494 -83 465 -83 q 544 -63 524 -83 q 564 -14 564 -43 q 544 35 564 15 q 494 56 524 56 m 192 433 q 142 413 163 433 q 122 364 122 393 q 142 315 122 336 q 192 294 163 294 q 241 315 221 294 q 261 364 261 336 q 241 413 261 393 q 192 433 221 433 m 629 85 q 580 65 600 85 q 560 15 560 44 q 580 -34 560 -14 q 629 -54 600 -54 q 678 -34 657 -54 q 699 15 699 -14 q 678 65 699 44 q 629 85 657 85 m 251 558 q 202 538 222 558 q 182 489 182 518 q 202 440 182 461 q 251 419 222 419 q 300 440 279 419 q 321 489 321 461 q 300 538 321 518 q 251 558 279 558 m 738 169 q 688 149 708 169 q 668 100 668 129 q 688 51 668 71 q 738 31 708 31 q 787 51 767 31 q 807 100 807 71 q 787 149 807 129 q 738 169 767 169 m 319 679 q 270 659 290 679 q 250 610 250 639 q 270 560 250 581 q 319 540 290 540 q 368 560 347 540 q 389 610 389 581 q 368 659 389 639 q 319 679 347 679 m 799 293 q 749 273 769 293 q 729 224 729 253 q 749 175 729 196 q 799 154 769 154 q 848 175 828 154 q 868 224 868 196 q 848 273 868 253 q 799 293 828 293 m 503 678 q 453 658 474 678 q 433 608 433 638 q 453 559 433 579 q 503 539 474 539 q 552 559 532 539 q 572 608 572 579 q 552 658 572 638 q 503 678 532 678 m 388 800 q 338 780 358 800 q 318 731 318 760 q 338 681 318 701 q 388 661 358 661 q 437 681 417 661 q 457 731 457 701 q 437 780 457 760 q 388 800 417 800 m 800 431 q 751 410 771 431 q 731 361 731 390 q 751 313 731 333 q 800 292 771 292 q 849 313 829 292 q 869 361 869 333 q 849 410 869 390 q 800 431 829 431 m 636 644 q 588 624 608 644 q 567 575 567 603 q 588 526 567 546 q 636 506 608 506 q 685 526 665 506 q 706 575 706 546 q 685 624 706 603 q 636 644 665 644 m 742 557 q 693 536 714 557 q 672 488 672 515 q 693 438 672 458 q 742 418 714 418 q 791 438 771 418 q 811 488 811 458 q 791 536 811 515 q 742 557 771 557 m 456 921 q 407 901 428 921 q 386 851 386 881 q 407 802 386 822 q 456 782 428 782 q 505 802 485 782 q 525 851 525 822 q 505 901 525 881 q 456 921 485 921 m 524 1042 q 475 1022 496 1042 q 454 972 454 1001 q 475 923 454 943 q 524 903 496 903 q 573 923 553 903 q 593 972 593 943 q 573 1022 593 1001 q 524 1042 553 1042 z "},"7":{"ha":992,"x_min":79,"x_max":913,"o":"m 306 69 q 256 49 276 69 q 236 0 236 29 q 256 -49 236 -28 q 306 -69 276 -69 q 355 -49 335 -69 q 375 0 375 -28 q 355 49 375 29 q 306 69 335 69 m 372 192 q 324 172 344 192 q 303 122 303 151 q 324 73 303 93 q 372 53 344 53 q 422 73 401 53 q 442 122 442 93 q 422 172 442 151 q 372 192 401 192 m 440 313 q 391 292 411 313 q 371 243 371 272 q 391 194 371 215 q 440 174 411 174 q 490 194 469 174 q 510 243 510 215 q 490 292 510 272 q 440 313 469 313 m 507 435 q 458 415 478 435 q 438 365 438 394 q 458 316 438 336 q 507 296 479 296 q 556 316 536 296 q 576 365 576 336 q 556 415 576 394 q 507 435 536 435 m 575 556 q 526 535 546 556 q 506 486 506 515 q 526 438 506 458 q 575 417 546 417 q 624 438 603 417 q 644 488 644 458 q 624 535 644 515 q 575 556 603 556 m 149 1042 q 99 1022 119 1042 q 79 972 79 1001 q 99 923 79 943 q 149 903 119 903 q 198 923 178 903 q 218 972 218 943 q 198 1022 218 1001 q 149 1042 178 1042 m 642 678 q 592 658 613 678 q 572 608 572 638 q 592 559 572 579 q 642 539 613 539 q 691 559 671 539 q 711 608 711 579 q 691 658 711 638 q 642 678 671 678 m 288 1042 q 238 1022 258 1042 q 218 972 218 1001 q 238 923 218 943 q 288 903 258 903 q 337 923 317 903 q 357 972 357 943 q 337 1022 357 1001 q 288 1042 317 1042 m 426 1042 q 377 1022 397 1042 q 357 972 357 1001 q 377 923 357 943 q 426 903 397 903 q 476 923 456 903 q 496 972 496 943 q 476 1022 496 1001 q 426 1042 456 1042 m 708 799 q 660 778 681 799 q 639 729 639 758 q 660 681 639 701 q 708 660 681 660 q 758 681 738 660 q 778 731 778 701 q 758 778 778 758 q 708 799 738 799 m 565 1042 q 516 1022 536 1042 q 496 972 496 1001 q 516 923 496 943 q 565 903 536 903 q 615 923 594 903 q 635 972 635 943 q 615 1022 635 1001 q 565 1042 594 1042 m 776 921 q 727 901 747 921 q 707 851 707 881 q 727 802 707 822 q 776 782 747 782 q 826 802 806 782 q 846 851 846 822 q 825 901 846 881 q 776 921 804 921 m 704 1042 q 655 1022 675 1042 q 635 972 635 1001 q 655 923 635 943 q 704 903 675 903 q 753 923 733 903 q 774 972 774 943 q 753 1022 774 1001 q 704 1042 733 1042 m 843 1042 q 794 1022 814 1042 q 774 972 774 1001 q 794 923 774 943 q 843 903 814 903 q 892 923 872 903 q 913 972 913 943 q 892 1022 913 1001 q 843 1042 872 1042 z "},"8":{"ha":992,"x_min":119,"x_max":872,"o":"m 251 156 q 202 135 222 156 q 182 86 182 114 q 202 37 182 57 q 251 17 222 17 q 300 37 279 17 q 321 86 321 57 q 300 135 321 114 q 251 156 279 156 m 361 74 q 312 53 332 74 q 292 4 292 33 q 312 -45 292 -25 q 361 -65 332 -65 q 410 -45 390 -65 q 431 4 431 -25 q 410 53 431 33 q 361 74 390 74 m 189 279 q 140 258 160 279 q 119 210 119 238 q 140 160 119 181 q 189 140 160 140 q 238 160 218 140 q 258 210 258 181 q 238 258 258 238 q 189 279 218 279 m 496 44 q 447 24 467 44 q 426 -25 426 4 q 447 -74 426 -54 q 496 -94 467 -94 q 545 -74 525 -94 q 565 -25 565 -54 q 545 24 565 4 q 496 44 525 44 m 199 415 q 150 395 171 415 q 129 346 129 375 q 150 297 129 317 q 199 276 171 276 q 248 297 228 276 q 268 346 268 317 q 248 395 268 375 q 199 415 228 415 m 631 74 q 581 53 601 74 q 561 4 561 33 q 581 -45 561 -25 q 631 -65 601 -65 q 680 -45 660 -65 q 700 4 700 -25 q 680 53 700 33 q 631 74 660 74 m 274 531 q 225 510 246 531 q 204 461 204 490 q 225 412 204 432 q 274 392 246 392 q 323 412 303 392 q 343 461 343 432 q 323 510 343 490 q 274 531 303 531 m 742 156 q 692 135 713 156 q 672 86 672 114 q 692 37 672 57 q 742 17 713 17 q 790 37 769 17 q 811 86 811 57 q 790 135 811 114 q 742 156 769 156 m 276 683 q 227 663 247 683 q 207 614 207 642 q 227 565 207 585 q 276 544 247 544 q 325 565 304 544 q 346 614 346 585 q 325 663 346 642 q 276 683 304 683 m 390 604 q 342 584 363 604 q 321 535 321 564 q 342 486 321 507 q 390 465 363 465 q 440 486 419 465 q 460 535 460 507 q 440 584 460 564 q 390 604 419 604 m 222 808 q 173 788 193 808 q 153 739 153 768 q 173 690 153 710 q 222 669 193 669 q 271 690 250 669 q 292 739 292 710 q 271 788 292 768 q 222 808 250 808 m 803 279 q 753 258 774 279 q 733 210 733 238 q 753 160 733 181 q 803 140 774 140 q 852 160 832 140 q 872 210 872 181 q 852 258 872 238 q 803 279 832 279 m 257 940 q 208 919 229 940 q 188 871 188 899 q 208 822 188 842 q 257 801 229 801 q 306 822 286 801 q 326 871 326 842 q 306 919 326 899 q 257 940 286 940 m 601 604 q 552 584 572 604 q 532 535 532 564 q 552 486 532 507 q 601 465 572 465 q 651 486 631 465 q 671 535 671 507 q 651 584 671 564 q 601 604 631 604 m 793 415 q 744 395 764 415 q 724 346 724 375 q 744 297 724 317 q 793 276 764 276 q 842 297 822 276 q 863 346 863 317 q 842 395 863 375 q 793 415 822 415 m 718 531 q 669 510 689 531 q 649 461 649 490 q 669 412 649 432 q 718 392 689 392 q 767 412 747 392 q 788 461 788 432 q 767 510 788 490 q 718 531 747 531 m 361 1029 q 313 1009 333 1029 q 292 960 292 989 q 313 910 292 931 q 361 890 333 890 q 410 910 390 890 q 431 960 431 931 q 410 1009 431 989 q 361 1029 390 1029 m 717 683 q 667 663 688 683 q 647 614 647 642 q 667 565 647 585 q 717 544 688 544 q 765 565 744 544 q 786 614 786 585 q 765 663 786 642 q 717 683 744 683 m 496 1061 q 447 1041 467 1061 q 426 992 426 1021 q 447 942 426 963 q 496 922 467 922 q 545 942 525 922 q 565 992 565 963 q 545 1041 565 1021 q 496 1061 525 1061 m 771 808 q 722 788 742 808 q 701 739 701 768 q 722 690 701 710 q 771 669 742 669 q 819 690 799 669 q 840 739 840 710 q 819 788 840 768 q 771 808 799 808 m 631 1029 q 581 1009 601 1029 q 561 960 561 989 q 581 910 561 931 q 631 890 601 890 q 680 910 660 890 q 700 960 700 931 q 680 1009 700 989 q 631 1029 660 1029 m 735 940 q 685 919 706 940 q 665 871 665 899 q 685 822 665 842 q 735 801 706 801 q 784 822 764 801 q 804 871 804 842 q 784 919 804 899 q 735 940 764 940 z "},"9":{"ha":992,"x_min":122,"x_max":869,"o":"m 468 69 q 419 49 439 69 q 399 0 399 29 q 419 -49 399 -28 q 468 -69 439 -69 q 517 -49 497 -69 q 538 0 538 -28 q 517 49 538 29 q 468 69 497 69 m 536 190 q 487 170 507 190 q 467 121 467 150 q 487 72 467 93 q 536 51 507 51 q 585 72 565 51 q 606 121 606 93 q 585 170 606 150 q 536 190 565 190 m 250 556 q 201 535 221 556 q 181 486 181 514 q 201 437 181 457 q 250 417 221 417 q 299 437 279 417 q 319 486 319 457 q 299 535 319 514 q 250 556 279 556 m 356 467 q 306 447 326 467 q 286 397 286 426 q 306 349 286 369 q 356 328 326 328 q 405 349 385 328 q 425 397 425 369 q 405 447 425 426 q 356 467 385 467 m 192 681 q 142 660 163 681 q 122 611 122 640 q 142 562 122 582 q 192 542 163 542 q 241 562 221 542 q 261 611 261 582 q 241 660 261 640 q 192 681 221 681 m 604 311 q 556 291 576 311 q 535 242 535 271 q 556 192 535 213 q 604 172 576 172 q 653 192 633 172 q 674 242 674 213 q 653 291 674 271 q 604 311 633 311 m 489 433 q 440 413 461 433 q 419 364 419 393 q 440 315 419 335 q 489 294 461 294 q 538 315 518 294 q 558 364 558 335 q 538 413 558 393 q 489 433 518 433 m 193 818 q 144 798 165 818 q 124 749 124 778 q 144 699 124 719 q 193 679 165 679 q 242 699 222 679 q 263 749 263 719 q 242 798 263 778 q 193 818 222 818 m 672 432 q 624 412 644 432 q 603 363 603 392 q 624 313 603 333 q 672 293 644 293 q 722 313 701 293 q 742 363 742 333 q 722 412 742 392 q 672 432 701 432 m 254 942 q 206 922 226 942 q 185 872 185 901 q 206 823 185 843 q 254 803 226 803 q 303 823 283 803 q 324 872 324 843 q 303 922 324 901 q 254 942 283 942 m 742 553 q 692 533 713 553 q 672 483 672 513 q 692 434 672 454 q 742 414 713 414 q 790 434 769 414 q 811 483 811 454 q 790 533 811 513 q 742 553 769 553 m 363 1026 q 314 1006 335 1026 q 293 957 293 986 q 314 908 293 928 q 363 888 335 888 q 412 908 392 888 q 432 957 432 928 q 412 1006 432 986 q 363 1026 392 1026 m 800 678 q 751 658 771 678 q 731 608 731 638 q 751 559 731 579 q 800 539 771 539 q 849 559 829 539 q 869 608 869 579 q 849 658 869 638 q 800 678 829 678 m 497 1056 q 449 1035 469 1056 q 428 986 428 1015 q 449 937 428 957 q 497 917 469 917 q 547 937 526 917 q 567 986 567 957 q 547 1035 567 1015 q 497 1056 526 1056 m 799 815 q 750 795 771 815 q 729 746 729 775 q 750 697 729 717 q 799 676 771 676 q 848 697 828 676 q 868 746 868 717 q 848 795 868 775 q 799 815 828 815 m 632 1025 q 583 1005 603 1025 q 563 956 563 985 q 583 906 563 926 q 632 886 603 886 q 681 906 661 886 q 701 956 701 926 q 681 1005 701 985 q 632 1025 661 1025 m 739 939 q 690 919 711 939 q 669 869 669 899 q 690 820 669 840 q 739 800 711 800 q 788 820 768 800 q 808 869 808 840 q 788 919 808 899 q 739 939 768 939 z "}," ":{"ha":833,"x_min":0,"x_max":0,"o":""},"!":{"ha":278,"x_min":69,"x_max":208,"o":"m 139 71 q 90 50 110 71 q 69 1 69 29 q 90 -48 69 -28 q 139 -68 110 -68 q 188 -48 168 -68 q 208 1 208 -28 q 188 50 208 29 q 139 71 168 71 m 139 349 q 90 328 110 349 q 69 279 69 307 q 90 230 69 250 q 139 210 110 210 q 188 230 168 210 q 208 279 208 250 q 188 328 208 307 q 139 349 168 349 m 139 488 q 90 467 110 488 q 69 418 69 446 q 90 369 69 389 q 139 349 110 349 q 188 369 168 349 q 208 418 208 389 q 188 467 208 446 q 139 488 168 488 m 139 626 q 90 606 110 626 q 69 557 69 585 q 90 508 69 528 q 139 488 110 488 q 188 508 168 488 q 208 557 208 528 q 188 606 208 585 q 139 626 168 626 m 139 765 q 90 744 110 765 q 69 696 69 724 q 90 647 69 667 q 139 626 110 626 q 188 647 168 626 q 208 696 208 667 q 188 744 208 724 q 139 765 168 765 m 139 904 q 90 883 110 904 q 69 835 69 863 q 90 785 69 806 q 139 765 110 765 q 188 785 168 765 q 208 835 208 806 q 188 883 208 863 q 139 904 168 904 m 139 1043 q 90 1022 110 1043 q 69 974 69 1001 q 90 924 69 944 q 139 904 110 904 q 188 924 168 904 q 208 974 208 944 q 188 1022 208 1001 q 139 1043 168 1043 z "},"\"":{"ha":417,"x_min":69,"x_max":347,"o":"m 139 764 q 90 744 110 764 q 69 694 69 724 q 90 645 69 665 q 139 625 110 625 q 188 645 168 625 q 208 694 208 665 q 188 744 208 724 q 139 764 168 764 m 278 764 q 228 744 249 764 q 208 694 208 724 q 228 645 208 665 q 278 625 249 625 q 327 645 307 625 q 347 694 347 665 q 327 744 347 724 q 278 764 307 764 m 139 903 q 90 883 110 903 q 69 833 69 863 q 90 784 69 804 q 139 764 110 764 q 188 784 168 764 q 208 833 208 804 q 188 883 208 863 q 139 903 168 903 m 278 903 q 228 883 249 903 q 208 833 208 863 q 228 784 208 804 q 278 764 249 764 q 327 784 307 764 q 347 833 347 804 q 327 883 347 863 q 278 903 307 903 m 139 1042 q 90 1022 110 1042 q 69 972 69 1001 q 90 923 69 943 q 139 903 110 903 q 188 923 168 903 q 208 972 208 943 q 188 1022 208 1001 q 139 1042 168 1042 m 278 1042 q 228 1022 249 1042 q 208 972 208 1001 q 228 923 208 943 q 278 903 249 903 q 327 923 307 903 q 347 972 347 943 q 327 1022 347 1001 q 278 1042 307 1042 z "},"#":{"ha":813,"x_min":60,"x_max":754,"o":"m 268 71 q 219 50 239 71 q 199 1 199 29 q 219 -48 199 -28 q 268 -68 239 -68 q 317 -48 296 -68 q 338 1 338 -28 q 317 50 338 29 q 268 71 296 71 m 268 210 q 219 189 239 210 q 199 140 199 168 q 219 91 199 111 q 268 71 239 71 q 317 91 296 71 q 338 140 338 111 q 317 189 338 168 q 268 210 296 210 m 129 349 q 80 328 100 349 q 60 279 60 307 q 80 230 60 250 q 129 210 100 210 q 178 230 157 210 q 199 279 199 250 q 178 328 199 307 q 129 349 157 349 m 546 71 q 497 50 517 71 q 476 1 476 29 q 497 -48 476 -28 q 546 -68 517 -68 q 594 -48 574 -68 q 615 1 615 -28 q 594 50 615 29 q 546 71 574 71 m 268 349 q 219 328 239 349 q 199 279 199 307 q 219 230 199 250 q 268 210 239 210 q 317 230 296 210 q 338 279 338 250 q 317 328 338 307 q 268 349 296 349 m 546 210 q 497 189 517 210 q 476 140 476 168 q 497 91 476 111 q 546 71 517 71 q 594 91 574 71 q 615 140 615 111 q 594 189 615 168 q 546 210 574 210 m 407 349 q 358 328 378 349 q 338 279 338 307 q 358 230 338 250 q 407 210 378 210 q 456 230 435 210 q 476 279 476 250 q 456 328 476 307 q 407 349 435 349 m 268 488 q 219 467 239 488 q 199 418 199 446 q 219 369 199 389 q 268 349 239 349 q 317 369 296 349 q 338 418 338 389 q 317 467 338 446 q 268 488 296 488 m 546 349 q 497 328 517 349 q 476 279 476 307 q 497 230 476 250 q 546 210 517 210 q 594 230 574 210 q 615 279 615 250 q 594 328 615 307 q 546 349 574 349 m 268 626 q 219 606 239 626 q 199 557 199 585 q 219 508 199 528 q 268 488 239 488 q 317 508 296 488 q 338 557 338 528 q 317 606 338 585 q 268 626 296 626 m 129 765 q 80 744 100 765 q 60 696 60 724 q 80 647 60 667 q 129 626 100 626 q 178 647 157 626 q 199 696 199 667 q 178 744 199 724 q 129 765 157 765 m 685 349 q 635 328 656 349 q 615 279 615 307 q 635 230 615 250 q 685 210 656 210 q 733 230 713 210 q 754 279 754 250 q 733 328 754 307 q 685 349 713 349 m 546 488 q 497 467 517 488 q 476 418 476 446 q 497 369 476 389 q 546 349 517 349 q 594 369 574 349 q 615 418 615 389 q 594 467 615 446 q 546 488 574 488 m 268 765 q 219 744 239 765 q 199 696 199 724 q 219 647 199 667 q 268 626 239 626 q 317 647 296 626 q 338 696 338 667 q 317 744 338 724 q 268 765 296 765 m 546 626 q 497 606 517 626 q 476 557 476 585 q 497 508 476 528 q 546 488 517 488 q 594 508 574 488 q 615 557 615 528 q 594 606 615 585 q 546 626 574 626 m 407 765 q 358 744 378 765 q 338 696 338 724 q 358 647 338 667 q 407 626 378 626 q 456 647 435 626 q 476 696 476 667 q 456 744 476 724 q 407 765 435 765 m 268 904 q 219 883 239 904 q 199 835 199 863 q 219 785 199 806 q 268 765 239 765 q 317 785 296 765 q 338 835 338 806 q 317 883 338 863 q 268 904 296 904 m 546 765 q 497 744 517 765 q 476 696 476 724 q 497 647 476 667 q 546 626 517 626 q 594 647 574 626 q 615 696 615 667 q 594 744 615 724 q 546 765 574 765 m 268 1043 q 219 1022 239 1043 q 199 974 199 1001 q 219 924 199 944 q 268 904 239 904 q 317 924 296 904 q 338 974 338 944 q 317 1022 338 1001 q 268 1043 296 1043 m 685 765 q 635 744 656 765 q 615 696 615 724 q 635 647 615 667 q 685 626 656 626 q 733 647 713 626 q 754 696 754 667 q 733 744 754 724 q 685 765 713 765 m 546 904 q 497 883 517 904 q 476 835 476 863 q 497 785 476 806 q 546 765 517 765 q 594 785 574 765 q 615 835 615 806 q 594 883 615 863 q 546 904 574 904 m 546 1043 q 497 1022 517 1043 q 476 974 476 1001 q 497 924 476 944 q 546 904 517 904 q 594 924 574 904 q 615 974 615 944 q 594 1022 615 1001 q 546 1043 574 1043 z "},"$":{"ha":872,"x_min":42,"x_max":831,"o":"m 178 171 q 128 151 149 171 q 108 101 108 131 q 128 52 108 72 q 178 32 149 32 q 227 52 207 32 q 247 101 247 72 q 227 151 247 131 q 178 171 207 171 m 429 -68 q 380 -89 400 -68 q 360 -137 360 -110 q 380 -187 360 -167 q 429 -207 400 -207 q 478 -187 458 -207 q 499 -137 499 -167 q 478 -89 499 -110 q 429 -68 458 -68 m 292 93 q 242 72 263 93 q 222 24 222 51 q 242 -26 222 -6 q 292 -46 263 -46 q 340 -26 319 -46 q 361 24 361 -6 q 340 72 361 51 q 292 93 319 93 m 117 293 q 67 273 88 293 q 47 224 47 253 q 67 175 47 196 q 117 154 88 154 q 166 175 146 154 q 186 224 186 196 q 166 273 186 253 q 117 293 146 293 m 429 71 q 380 50 400 71 q 360 1 360 29 q 380 -48 360 -28 q 429 -68 400 -68 q 478 -48 458 -68 q 499 1 499 -28 q 478 50 499 29 q 429 71 458 71 m 111 432 q 62 412 82 432 q 42 363 42 392 q 62 313 42 333 q 111 293 82 293 q 160 313 140 293 q 181 363 181 333 q 160 412 181 392 q 111 432 140 432 m 429 210 q 380 189 400 210 q 360 140 360 168 q 380 91 360 111 q 429 71 400 71 q 478 91 458 71 q 499 140 499 111 q 478 189 499 168 q 429 210 458 210 m 564 93 q 515 73 535 93 q 494 24 494 53 q 515 -26 494 -6 q 564 -46 535 -46 q 613 -26 593 -46 q 633 24 633 -6 q 613 73 633 53 q 564 93 593 93 m 429 349 q 380 328 400 349 q 360 279 360 307 q 380 230 360 250 q 429 210 400 210 q 478 230 458 210 q 499 279 499 250 q 478 328 499 307 q 429 349 458 349 m 686 158 q 637 138 657 158 q 617 89 617 117 q 637 40 617 60 q 686 19 657 19 q 735 40 715 19 q 756 89 756 60 q 735 138 756 117 q 686 158 715 158 m 429 488 q 380 467 400 488 q 360 418 360 446 q 380 369 360 389 q 429 349 400 349 q 478 369 458 349 q 499 418 499 389 q 478 467 499 446 q 429 488 458 488 m 301 671 q 252 651 272 671 q 232 601 232 631 q 252 552 232 572 q 301 532 272 532 q 351 552 331 532 q 371 601 371 572 q 351 651 371 631 q 301 671 331 671 m 213 775 q 164 755 185 775 q 143 706 143 735 q 164 656 143 676 q 213 636 185 636 q 262 656 242 636 q 282 706 282 676 q 262 755 282 735 q 213 775 242 775 m 760 272 q 710 252 731 272 q 690 203 690 232 q 710 154 690 175 q 760 133 731 133 q 809 154 789 133 q 829 203 829 175 q 809 252 829 232 q 760 272 789 272 m 429 626 q 380 606 400 626 q 360 557 360 585 q 380 508 360 528 q 429 488 400 488 q 478 508 458 488 q 499 557 499 528 q 478 606 499 585 q 429 626 458 626 m 207 911 q 158 891 178 911 q 138 842 138 871 q 158 793 138 814 q 207 772 178 772 q 256 793 235 772 q 276 842 276 814 q 256 891 276 871 q 207 911 235 911 m 565 590 q 516 570 536 590 q 496 521 496 550 q 516 472 496 492 q 565 451 536 451 q 615 472 594 451 q 635 521 635 492 q 615 570 635 550 q 565 590 594 590 m 761 411 q 712 391 732 411 q 692 342 692 371 q 712 292 692 313 q 761 272 732 272 q 810 292 789 272 q 831 342 831 313 q 810 391 831 371 q 761 411 789 411 m 429 765 q 380 744 400 765 q 360 696 360 724 q 380 647 360 667 q 429 626 400 626 q 478 647 458 626 q 499 696 499 667 q 478 744 499 724 q 429 765 458 765 m 689 526 q 640 506 660 526 q 619 457 619 486 q 640 408 619 428 q 689 388 660 388 q 738 408 718 388 q 758 457 758 428 q 738 506 758 486 q 689 526 718 526 m 292 1017 q 242 996 263 1017 q 222 947 222 975 q 242 898 222 918 q 292 878 263 878 q 341 898 321 878 q 361 947 361 918 q 341 996 361 975 q 292 1017 321 1017 m 429 904 q 380 883 400 904 q 360 835 360 863 q 380 785 360 806 q 429 765 400 765 q 478 785 458 765 q 499 835 499 806 q 478 883 499 863 q 429 904 458 904 m 676 785 q 627 765 647 785 q 607 715 607 744 q 627 666 607 686 q 676 646 647 646 q 726 666 706 646 q 746 715 746 686 q 726 765 746 744 q 676 785 706 785 m 429 1043 q 380 1022 400 1043 q 360 974 360 1001 q 380 924 360 944 q 429 904 400 904 q 478 924 458 904 q 499 974 499 944 q 478 1022 499 1001 q 429 1043 458 1043 m 561 1017 q 513 996 533 1017 q 492 947 492 975 q 513 898 492 918 q 561 878 533 878 q 610 898 590 878 q 631 947 631 918 q 610 996 631 975 q 561 1017 590 1017 m 658 922 q 609 901 629 922 q 589 853 589 881 q 609 803 589 824 q 658 783 629 783 q 708 803 688 783 q 728 853 728 824 q 708 901 728 881 q 658 922 688 922 z "},"%":{"ha":1078,"x_min":18,"x_max":1060,"o":"m 144 71 q 95 50 115 71 q 75 1 75 29 q 95 -48 75 -28 q 144 -68 115 -68 q 194 -48 174 -68 q 214 1 214 -28 q 194 50 214 29 q 144 71 174 71 m 232 178 q 183 158 203 178 q 163 108 163 138 q 183 60 163 81 q 232 39 203 39 q 281 60 261 39 q 301 108 301 81 q 281 158 301 138 q 232 178 261 178 m 319 286 q 270 266 290 286 q 250 217 250 246 q 270 167 250 188 q 319 147 290 147 q 368 167 347 147 q 389 217 389 188 q 368 266 389 246 q 319 286 347 286 m 406 394 q 357 374 378 394 q 336 325 336 354 q 357 276 336 296 q 406 256 378 256 q 455 276 435 256 q 475 325 475 296 q 455 374 475 354 q 406 394 435 394 m 682 122 q 633 101 654 122 q 613 53 613 81 q 633 3 613 24 q 682 -17 654 -17 q 731 3 711 -17 q 751 53 751 24 q 731 101 751 81 q 682 122 711 122 m 629 246 q 581 226 601 246 q 560 176 560 206 q 581 128 560 149 q 629 107 601 107 q 678 128 658 107 q 699 176 699 149 q 678 226 699 206 q 629 246 658 246 m 810 71 q 761 50 782 71 q 740 1 740 29 q 761 -48 740 -28 q 810 -68 782 -68 q 859 -48 839 -68 q 879 1 879 -28 q 859 50 879 29 q 810 71 839 71 m 140 742 q 91 722 111 742 q 71 672 71 701 q 91 623 71 643 q 140 603 111 603 q 190 623 169 603 q 210 672 210 643 q 190 722 210 701 q 140 742 169 742 m 88 867 q 38 846 58 867 q 18 797 18 825 q 38 748 18 768 q 88 728 58 728 q 137 748 117 728 q 157 797 157 768 q 137 846 157 825 q 88 867 117 867 m 268 690 q 219 670 239 690 q 199 621 199 650 q 219 572 199 592 q 268 551 239 551 q 317 572 297 551 q 338 621 338 592 q 317 670 338 650 q 268 690 297 690 m 493 503 q 444 482 465 503 q 424 433 424 461 q 444 384 424 404 q 493 364 465 364 q 542 384 522 364 q 563 433 563 404 q 542 482 563 461 q 493 503 522 503 m 682 371 q 633 351 654 371 q 613 301 613 331 q 633 252 613 272 q 682 232 654 232 q 731 252 711 232 q 751 301 751 272 q 731 351 751 331 q 682 371 711 371 m 938 122 q 889 101 910 122 q 868 53 868 81 q 889 3 868 24 q 938 -17 910 -17 q 987 3 967 -17 q 1007 53 1007 24 q 987 101 1007 81 q 938 122 967 122 m 140 990 q 91 970 111 990 q 71 921 71 950 q 91 872 71 893 q 140 851 111 851 q 190 872 169 851 q 210 921 210 893 q 190 970 210 950 q 140 990 169 990 m 396 742 q 347 722 367 742 q 326 672 326 701 q 347 623 326 643 q 396 603 367 603 q 445 623 425 603 q 465 672 465 643 q 445 722 465 701 q 396 742 425 742 m 581 610 q 531 590 551 610 q 511 540 511 569 q 531 492 511 513 q 581 471 551 471 q 630 492 610 471 q 650 540 650 513 q 630 590 650 569 q 581 610 610 610 m 810 422 q 761 402 782 422 q 740 353 740 382 q 761 303 740 324 q 810 283 782 283 q 859 303 839 283 q 879 353 879 324 q 859 402 879 382 q 810 422 839 422 m 990 246 q 941 226 961 246 q 921 176 921 206 q 941 128 921 149 q 990 107 961 107 q 1040 128 1019 107 q 1060 176 1060 149 q 1040 226 1060 206 q 990 246 1019 246 m 938 371 q 889 351 910 371 q 868 301 868 331 q 889 252 868 272 q 938 232 910 232 q 987 252 967 232 q 1007 301 1007 272 q 987 351 1007 331 q 938 371 967 371 m 268 1043 q 219 1022 239 1043 q 199 974 199 1001 q 219 924 199 944 q 268 904 239 904 q 317 924 297 904 q 338 974 338 944 q 317 1022 338 1001 q 268 1043 297 1043 m 449 867 q 399 846 419 867 q 379 797 379 825 q 399 748 379 768 q 449 728 419 728 q 498 748 478 728 q 518 797 518 768 q 498 846 518 825 q 449 867 478 867 m 668 718 q 619 698 639 718 q 599 649 599 678 q 619 599 599 619 q 668 579 639 579 q 717 599 697 579 q 738 649 738 619 q 717 698 738 678 q 668 718 697 718 m 396 990 q 347 970 367 990 q 326 921 326 950 q 347 872 326 893 q 396 851 367 851 q 445 872 425 851 q 465 921 465 893 q 445 970 465 950 q 396 990 425 990 m 756 826 q 706 806 726 826 q 686 757 686 786 q 706 708 686 728 q 756 688 726 688 q 804 708 783 688 q 825 757 825 728 q 804 806 825 786 q 756 826 783 826 m 842 935 q 793 914 814 935 q 772 865 772 893 q 793 816 772 836 q 842 796 814 796 q 891 816 871 796 q 911 865 911 836 q 891 914 911 893 q 842 935 871 935 m 929 1043 q 881 1022 901 1043 q 860 974 860 1001 q 881 924 860 944 q 929 904 901 904 q 978 924 958 904 q 999 974 999 944 q 978 1022 999 1001 q 929 1043 958 1043 z "},"&":{"ha":878,"x_min":35,"x_max":842,"o":"m 772 531 q 822 510 801 531 q 842 461 842 490 q 822 412 842 432 q 772 392 801 392 q 760 393 765 392 q 778 346 778 374 q 758 297 778 317 q 708 276 738 276 q 659 297 679 276 q 639 346 639 317 q 659 395 639 375 q 708 415 679 415 q 721 414 715 415 q 703 461 703 435 q 723 510 703 490 q 772 531 743 531 m 165 156 q 117 135 138 156 q 96 86 96 114 q 117 37 96 57 q 165 17 138 17 q 215 37 194 17 q 235 86 235 57 q 215 135 235 114 q 165 156 194 156 m 276 74 q 227 53 247 74 q 207 4 207 33 q 227 -45 207 -25 q 276 -65 247 -65 q 326 -45 306 -65 q 346 4 346 -25 q 326 53 346 33 q 276 74 306 74 m 104 279 q 55 258 75 279 q 35 210 35 238 q 55 160 35 181 q 104 140 75 140 q 153 160 133 140 q 174 210 174 181 q 153 258 174 238 q 104 279 133 279 m 411 44 q 362 24 382 44 q 342 -25 342 4 q 362 -74 342 -54 q 411 -94 382 -94 q 460 -74 440 -94 q 481 -25 481 -54 q 460 24 481 4 q 411 44 440 44 m 114 415 q 65 395 85 415 q 44 346 44 375 q 65 297 44 317 q 114 276 85 276 q 163 297 143 276 q 183 346 183 317 q 163 395 183 375 q 114 415 143 415 m 546 74 q 497 53 517 74 q 476 4 476 33 q 497 -45 476 -25 q 546 -65 517 -65 q 595 -45 575 -65 q 615 4 615 -25 q 595 53 615 33 q 546 74 575 74 m 189 531 q 140 510 160 531 q 119 461 119 490 q 140 412 119 432 q 189 392 160 392 q 238 412 218 392 q 258 461 258 432 q 238 510 258 490 q 189 531 218 531 m 657 156 q 608 135 628 156 q 588 86 588 114 q 608 37 588 57 q 657 17 628 17 q 706 37 685 17 q 726 86 726 57 q 706 135 726 114 q 657 156 685 156 m 192 683 q 142 663 163 683 q 122 614 122 642 q 142 565 122 585 q 192 544 163 544 q 240 565 219 544 q 261 614 261 585 q 240 663 261 642 q 192 683 219 683 m 306 604 q 256 584 276 604 q 236 535 236 564 q 256 486 236 507 q 306 465 276 465 q 355 486 335 465 q 375 535 375 507 q 355 584 375 564 q 306 604 335 604 m 138 808 q 88 788 108 808 q 68 739 68 768 q 88 690 68 710 q 138 669 108 669 q 186 690 165 669 q 207 739 207 710 q 186 788 207 768 q 138 808 165 808 m 718 279 q 669 258 689 279 q 649 210 649 238 q 669 160 649 181 q 718 140 689 140 q 767 160 747 140 q 788 210 788 181 q 767 258 788 238 q 718 279 747 279 m 494 531 q 445 510 465 531 q 425 461 425 490 q 445 412 425 432 q 494 392 465 392 q 544 412 524 392 q 564 461 564 432 q 544 510 564 490 q 494 531 524 531 m 172 940 q 124 919 144 940 q 103 871 103 899 q 124 822 103 842 q 172 801 144 801 q 222 822 201 801 q 242 871 242 842 q 222 919 242 899 q 172 940 201 940 m 633 531 q 584 510 604 531 q 564 461 564 490 q 584 412 564 432 q 633 392 604 392 q 683 412 663 392 q 703 461 703 432 q 683 510 703 490 q 633 531 663 531 m 276 1029 q 227 1009 247 1029 q 207 960 207 989 q 227 910 207 931 q 276 890 247 890 q 326 910 306 890 q 346 960 346 931 q 326 1009 346 989 q 276 1029 306 1029 m 411 1061 q 362 1041 382 1061 q 342 992 342 1021 q 362 942 342 963 q 411 922 382 922 q 460 942 440 922 q 481 992 481 963 q 460 1041 481 1021 q 411 1061 440 1061 m 546 1029 q 497 1009 517 1029 q 476 960 476 989 q 497 910 476 931 q 546 890 517 890 q 595 910 575 890 q 615 960 615 931 q 595 1009 615 989 q 546 1029 575 1029 m 650 940 q 601 919 621 940 q 581 871 581 899 q 601 822 581 842 q 650 801 621 801 q 699 822 678 801 q 719 871 719 842 q 699 919 719 899 q 650 940 678 940 z "},"'":{"ha":278,"x_min":69,"x_max":208,"o":"m 139 764 q 90 744 110 764 q 69 694 69 724 q 90 645 69 665 q 139 625 110 625 q 188 645 168 625 q 208 694 208 665 q 188 744 208 724 q 139 764 168 764 m 139 903 q 90 883 110 903 q 69 833 69 863 q 90 784 69 804 q 139 764 110 764 q 188 784 168 764 q 208 833 208 804 q 188 883 208 863 q 139 903 168 903 m 139 1042 q 90 1022 110 1042 q 69 972 69 1001 q 90 923 69 943 q 139 903 110 903 q 188 923 168 903 q 208 972 208 943 q 188 1022 208 1001 q 139 1042 168 1042 z "},"(":{"ha":454,"x_min":69,"x_max":385,"o":"m 315 -126 q 267 -147 288 -126 q 246 -196 246 -167 q 267 -245 246 -225 q 315 -265 288 -265 q 365 -245 344 -265 q 385 -196 385 -225 q 365 -147 385 -167 q 315 -126 344 -126 m 238 -12 q 188 -33 208 -12 q 168 -82 168 -53 q 188 -131 168 -110 q 238 -151 208 -151 q 287 -131 267 -151 q 307 -82 307 -110 q 287 -33 307 -53 q 238 -12 267 -12 m 186 117 q 137 97 157 117 q 117 47 117 76 q 137 -2 117 18 q 186 -22 157 -22 q 235 -2 214 -22 q 256 47 256 18 q 235 97 256 76 q 186 117 214 117 m 154 251 q 105 231 125 251 q 85 182 85 211 q 105 133 85 154 q 154 113 125 113 q 203 133 183 113 q 224 182 224 154 q 203 231 224 211 q 154 251 183 251 m 139 390 q 90 369 110 390 q 69 321 69 349 q 90 272 69 292 q 139 251 110 251 q 188 272 168 251 q 208 321 208 292 q 188 369 208 349 q 139 390 168 390 m 139 529 q 90 508 110 529 q 69 460 69 488 q 90 410 69 431 q 139 390 110 390 q 188 410 168 390 q 208 460 208 431 q 188 508 208 488 q 139 529 168 529 m 154 667 q 105 647 125 667 q 85 597 85 626 q 105 548 85 568 q 154 528 125 528 q 203 548 183 528 q 224 597 224 568 q 203 647 224 626 q 154 667 183 667 m 186 801 q 137 781 157 801 q 117 732 117 761 q 137 683 117 704 q 186 663 157 663 q 235 683 214 663 q 256 732 256 704 q 235 781 256 761 q 186 801 214 801 m 238 931 q 188 910 208 931 q 168 861 168 890 q 188 812 168 832 q 238 792 208 792 q 287 812 267 792 q 307 861 307 832 q 287 910 307 890 q 238 931 267 931 m 315 1044 q 267 1024 288 1044 q 246 975 246 1004 q 267 926 246 947 q 315 906 288 906 q 365 926 344 906 q 385 975 385 947 q 365 1024 385 1004 q 315 1044 344 1044 z "},")":{"ha":454,"x_min":69,"x_max":385,"o":"m 139 -126 q 90 -147 110 -126 q 69 -196 69 -167 q 90 -245 69 -225 q 139 -265 110 -265 q 188 -245 168 -265 q 208 -196 208 -225 q 188 -147 208 -167 q 139 -126 168 -126 m 217 -12 q 168 -33 189 -12 q 147 -82 147 -53 q 168 -131 147 -110 q 217 -151 189 -151 q 266 -131 246 -151 q 286 -82 286 -110 q 266 -33 286 -53 q 217 -12 246 -12 m 269 117 q 220 97 240 117 q 200 47 200 76 q 220 -2 200 18 q 269 -22 240 -22 q 318 -2 297 -22 q 339 47 339 18 q 318 97 339 76 q 269 117 297 117 m 300 251 q 251 231 271 251 q 231 182 231 211 q 251 133 231 154 q 300 113 271 113 q 349 133 329 113 q 369 182 369 154 q 349 231 369 211 q 300 251 329 251 m 315 390 q 267 369 288 390 q 246 321 246 349 q 267 272 246 292 q 315 251 288 251 q 365 272 344 251 q 385 321 385 292 q 365 369 385 349 q 315 390 344 390 m 315 529 q 267 508 288 529 q 246 460 246 488 q 267 410 246 431 q 315 390 288 390 q 365 410 344 390 q 385 460 385 431 q 365 508 385 488 q 315 529 344 529 m 300 667 q 251 647 271 667 q 231 597 231 626 q 251 548 231 568 q 300 528 271 528 q 349 548 329 528 q 369 597 369 568 q 349 647 369 626 q 300 667 329 667 m 269 801 q 220 781 240 801 q 200 732 200 761 q 220 683 200 704 q 269 663 240 663 q 318 683 297 663 q 339 732 339 704 q 318 781 339 761 q 269 801 297 801 m 217 931 q 168 910 189 931 q 147 861 147 890 q 168 812 147 832 q 217 792 189 792 q 266 812 246 792 q 286 861 286 832 q 266 910 286 890 q 217 931 246 931 m 139 1044 q 90 1024 110 1044 q 69 975 69 1004 q 90 926 69 947 q 139 906 110 906 q 188 926 168 906 q 208 975 208 947 q 188 1024 208 1004 q 139 1044 168 1044 z "},"*":{"ha":518,"x_min":69,"x_max":449,"o":"m 139 833 q 90 813 110 833 q 69 764 69 793 q 90 715 69 736 q 139 694 110 694 q 188 715 168 694 q 208 765 208 736 q 188 813 208 793 q 139 833 168 833 m 260 765 q 210 744 231 765 q 190 696 190 724 q 210 647 190 667 q 260 626 231 626 q 308 647 288 626 q 329 696 329 667 q 308 744 329 724 q 260 765 288 765 m 139 972 q 90 952 110 972 q 69 904 69 932 q 90 854 69 875 q 139 833 110 833 q 188 854 168 833 q 208 904 208 875 q 188 952 208 932 q 139 972 168 972 m 260 904 q 210 883 231 904 q 190 835 190 863 q 210 785 190 806 q 260 765 231 765 q 308 785 288 765 q 329 835 329 806 q 308 883 329 863 q 260 904 288 904 m 379 833 q 331 813 351 833 q 310 765 310 793 q 330 715 310 736 q 379 694 350 694 q 428 715 408 694 q 449 764 449 736 q 428 813 449 793 q 379 833 408 833 m 260 1043 q 210 1022 231 1043 q 190 974 190 1001 q 210 924 190 944 q 260 904 231 904 q 308 924 288 904 q 329 974 329 944 q 308 1022 329 1001 q 260 1043 288 1043 m 379 972 q 331 952 351 972 q 310 903 310 932 q 330 854 310 875 q 379 833 350 833 q 428 854 408 833 q 449 903 449 875 q 428 952 449 932 q 379 972 408 972 z "},"+":{"ha":806,"x_min":56,"x_max":750,"o":"m 403 210 q 353 189 374 210 q 333 140 333 168 q 353 91 333 111 q 403 71 374 71 q 452 91 432 71 q 472 140 472 111 q 452 189 472 168 q 403 210 432 210 m 125 488 q 76 467 96 488 q 56 418 56 446 q 76 369 56 389 q 125 349 96 349 q 174 369 154 349 q 194 418 194 389 q 174 467 194 446 q 125 488 154 488 m 403 349 q 353 328 374 349 q 333 279 333 307 q 353 230 333 250 q 403 210 374 210 q 452 230 432 210 q 472 279 472 250 q 452 328 472 307 q 403 349 432 349 m 264 488 q 215 467 235 488 q 194 418 194 446 q 215 369 194 389 q 264 349 235 349 q 313 369 293 349 q 333 418 333 389 q 313 467 333 446 q 264 488 293 488 m 403 488 q 353 467 374 488 q 333 418 333 446 q 353 369 333 389 q 403 349 374 349 q 452 369 432 349 q 472 418 472 389 q 452 467 472 446 q 403 488 432 488 m 542 488 q 492 467 513 488 q 472 418 472 446 q 492 369 472 389 q 542 349 513 349 q 591 369 571 349 q 611 418 611 389 q 591 467 611 446 q 542 488 571 488 m 403 626 q 353 606 374 626 q 333 557 333 585 q 353 508 333 528 q 403 488 374 488 q 452 508 432 488 q 472 557 472 528 q 452 606 472 585 q 403 626 432 626 m 681 488 q 631 467 651 488 q 611 418 611 446 q 631 369 611 389 q 681 349 651 349 q 730 369 710 349 q 750 418 750 389 q 730 467 750 446 q 681 488 710 488 m 403 765 q 353 744 374 765 q 333 696 333 724 q 353 647 333 667 q 403 626 374 626 q 452 647 432 626 q 472 696 472 667 q 452 744 472 724 q 403 765 432 765 z "},",":{"ha":344,"x_min":69,"x_max":275,"o":"m 139 -51 q 90 -72 110 -51 q 69 -121 69 -92 q 90 -170 69 -150 q 139 -190 110 -190 q 188 -170 168 -190 q 208 -121 208 -150 q 188 -72 208 -92 q 139 -51 168 -51 m 206 69 q 157 49 178 69 q 136 0 136 29 q 157 -49 136 -28 q 206 -69 178 -69 q 255 -49 235 -69 q 275 0 275 -28 q 255 49 275 29 q 206 69 235 69 z "},"-":{"ha":528,"x_min":56,"x_max":472,"o":"m 125 488 q 76 467 96 488 q 56 418 56 446 q 76 369 56 389 q 125 349 96 349 q 174 369 154 349 q 194 418 194 389 q 174 467 194 446 q 125 488 154 488 m 264 488 q 215 467 235 488 q 194 418 194 446 q 215 369 194 389 q 264 349 235 349 q 313 369 293 349 q 333 418 333 389 q 313 467 333 446 q 264 488 293 488 m 403 488 q 353 467 374 488 q 333 418 333 446 q 353 369 333 389 q 403 349 374 349 q 452 369 432 349 q 472 418 472 389 q 452 467 472 446 q 403 488 432 488 z "},".":{"ha":278,"x_min":69,"x_max":208,"o":"m 139 71 q 90 50 110 71 q 69 1 69 29 q 90 -48 69 -28 q 139 -68 110 -68 q 188 -48 168 -68 q 208 1 208 -28 q 188 50 208 29 q 139 71 168 71 z "},"/":{"ha":788,"x_min":56,"x_max":732,"o":"m 125 69 q 76 49 96 69 q 56 0 56 29 q 76 -49 56 -28 q 125 -69 96 -69 q 174 -49 154 -69 q 194 0 194 -28 q 174 49 194 29 q 125 69 154 69 m 192 192 q 143 172 164 192 q 122 122 122 151 q 143 73 122 93 q 192 53 164 53 q 241 73 221 53 q 261 122 261 93 q 241 172 261 151 q 192 192 221 192 m 260 313 q 210 292 231 313 q 190 243 190 272 q 210 194 190 215 q 260 174 231 174 q 308 194 288 174 q 329 243 329 215 q 308 292 329 272 q 260 313 288 313 m 326 435 q 277 415 297 435 q 257 365 257 394 q 277 316 257 336 q 326 296 297 296 q 376 316 356 296 q 396 365 396 336 q 376 415 396 394 q 326 435 356 435 m 393 556 q 345 535 365 556 q 325 486 325 515 q 345 438 325 458 q 394 417 365 417 q 443 438 422 417 q 464 488 464 458 q 443 535 464 515 q 393 556 422 556 m 461 678 q 412 658 432 678 q 392 608 392 638 q 412 559 392 579 q 461 539 432 539 q 510 559 490 539 q 531 608 531 579 q 510 658 531 638 q 461 678 490 678 m 528 799 q 479 778 500 799 q 458 729 458 758 q 479 681 458 701 q 528 660 500 660 q 577 681 557 660 q 597 731 597 701 q 577 778 597 758 q 528 799 557 799 m 596 921 q 547 901 567 921 q 526 851 526 881 q 547 802 526 822 q 596 782 567 782 q 644 802 624 782 q 665 851 665 822 q 644 901 665 881 q 596 921 624 921 m 663 1042 q 613 1022 633 1042 q 593 972 593 1001 q 613 923 593 943 q 663 903 633 903 q 712 923 692 903 q 732 972 732 943 q 712 1022 732 1001 q 663 1042 692 1042 z "},":":{"ha":278,"x_min":69,"x_max":208,"o":"m 139 71 q 90 50 110 71 q 69 1 69 29 q 90 -48 69 -28 q 139 -68 110 -68 q 188 -48 168 -68 q 208 1 208 -28 q 188 50 208 29 q 139 71 168 71 m 139 626 q 90 606 110 626 q 69 557 69 585 q 90 508 69 528 q 139 488 110 488 q 188 508 168 488 q 208 557 208 528 q 188 606 208 585 q 139 626 168 626 z "},";":{"ha":344,"x_min":69,"x_max":275,"o":"m 139 -51 q 90 -72 110 -51 q 69 -121 69 -92 q 90 -170 69 -150 q 139 -190 110 -190 q 188 -170 168 -190 q 208 -121 208 -150 q 188 -72 208 -92 q 139 -51 168 -51 m 206 69 q 157 49 178 69 q 136 0 136 29 q 157 -49 136 -28 q 206 -69 178 -69 q 255 -49 235 -69 q 275 0 275 -28 q 255 49 275 29 q 206 69 235 69 m 206 626 q 157 606 178 626 q 136 557 136 585 q 157 508 136 528 q 206 488 178 488 q 255 508 235 488 q 275 557 275 528 q 255 606 275 585 q 206 626 235 626 z "},"<":{"ha":836,"x_min":42,"x_max":794,"o":"m 232 461 q 282 442 261 461 q 303 393 303 422 q 258 326 304 343 q 303 261 303 310 q 283 212 303 232 q 233 192 263 192 q 185 212 206 192 q 164 261 164 232 q 210 326 164 310 q 164 390 165 343 q 184 440 164 419 q 232 461 204 461 m 110 396 q 61 375 81 396 q 42 325 42 354 q 63 277 42 297 q 113 257 83 257 q 161 278 142 258 q 181 328 181 299 q 160 376 181 357 q 110 396 139 396 m 357 265 q 308 245 328 265 q 288 196 288 225 q 308 147 288 168 q 357 126 328 126 q 406 147 385 126 q 426 196 426 168 q 406 245 426 225 q 357 265 385 265 m 479 200 q 430 180 450 200 q 410 131 410 160 q 430 82 410 103 q 479 61 450 61 q 528 82 508 61 q 549 131 549 103 q 528 180 549 160 q 479 200 508 200 m 601 135 q 553 115 574 135 q 532 65 532 94 q 553 17 532 38 q 601 -4 574 -4 q 651 17 631 -4 q 671 65 671 38 q 651 115 671 94 q 601 135 631 135 m 725 71 q 676 50 696 71 q 656 0 656 29 q 676 -48 656 -28 q 725 -68 696 -68 q 774 -48 753 -68 q 794 1 794 -28 q 774 50 794 29 q 725 71 753 71 m 356 526 q 306 506 326 526 q 288 456 286 485 q 308 407 288 426 q 357 388 329 388 q 406 408 386 388 q 426 458 426 429 q 404 507 425 488 q 356 526 383 526 m 478 592 q 429 571 449 592 q 410 521 410 550 q 431 472 410 492 q 481 453 451 453 q 528 474 508 453 q 549 524 549 494 q 528 572 549 553 q 478 592 507 592 m 600 657 q 552 635 572 656 q 532 586 532 615 q 553 537 533 557 q 603 518 574 517 q 652 539 632 518 q 671 589 672 560 q 650 637 671 617 q 600 657 629 657 m 724 722 q 674 701 694 721 q 656 651 654 681 q 676 602 656 622 q 725 583 697 582 q 774 604 754 583 q 794 654 794 625 q 772 702 793 682 q 724 722 751 722 z "},"=":{"ha":806,"x_min":56,"x_max":750,"o":"m 125 210 q 76 189 96 210 q 56 140 56 168 q 76 91 56 111 q 125 71 96 71 q 174 91 154 71 q 194 140 194 111 q 174 189 194 168 q 125 210 154 210 m 264 210 q 215 189 235 210 q 194 140 194 168 q 215 91 194 111 q 264 71 235 71 q 313 91 293 71 q 333 140 333 111 q 313 189 333 168 q 264 210 293 210 m 403 210 q 353 189 374 210 q 333 140 333 168 q 353 91 333 111 q 403 71 374 71 q 452 91 432 71 q 472 140 472 111 q 452 189 472 168 q 403 210 432 210 m 125 488 q 76 467 96 488 q 56 418 56 446 q 76 369 56 389 q 125 349 96 349 q 174 369 154 349 q 194 418 194 389 q 174 467 194 446 q 125 488 154 488 m 542 210 q 492 189 513 210 q 472 140 472 168 q 492 91 472 111 q 542 71 513 71 q 591 91 571 71 q 611 140 611 111 q 591 189 611 168 q 542 210 571 210 m 264 488 q 215 467 235 488 q 194 418 194 446 q 215 369 194 389 q 264 349 235 349 q 313 369 293 349 q 333 418 333 389 q 313 467 333 446 q 264 488 293 488 m 681 210 q 631 189 651 210 q 611 140 611 168 q 631 91 611 111 q 681 71 651 71 q 730 91 710 71 q 750 140 750 111 q 730 189 750 168 q 681 210 710 210 m 403 488 q 353 467 374 488 q 333 418 333 446 q 353 369 333 389 q 403 349 374 349 q 452 369 432 349 q 472 418 472 389 q 452 467 472 446 q 403 488 432 488 m 542 488 q 492 467 513 488 q 472 418 472 446 q 492 369 472 389 q 542 349 513 349 q 591 369 571 349 q 611 418 611 389 q 591 467 611 446 q 542 488 571 488 m 681 488 q 631 467 651 488 q 611 418 611 446 q 631 369 611 389 q 681 349 651 349 q 730 369 710 349 q 750 418 750 389 q 730 467 750 446 q 681 488 710 488 z "},">":{"ha":836,"x_min":42,"x_max":794,"o":"m 603 461 q 652 440 632 461 q 671 390 672 419 q 626 326 671 343 q 671 261 671 310 q 651 212 671 232 q 601 192 631 192 q 553 212 574 192 q 532 261 532 232 q 578 326 532 310 q 532 393 532 343 q 553 442 533 422 q 603 461 574 461 m 111 71 q 62 50 82 71 q 42 1 42 29 q 62 -48 42 -28 q 111 -68 82 -68 q 160 -48 140 -68 q 181 0 181 -28 q 160 50 181 29 q 111 71 140 71 m 233 135 q 185 115 206 135 q 164 65 164 94 q 185 17 164 38 q 233 -4 206 -4 q 283 17 263 -4 q 303 65 303 38 q 283 115 303 94 q 233 135 263 135 m 357 200 q 308 180 328 200 q 288 131 288 160 q 308 82 288 103 q 357 61 328 61 q 406 82 385 61 q 426 131 426 103 q 406 180 426 160 q 357 200 385 200 m 479 265 q 430 245 450 265 q 410 196 410 225 q 430 147 410 168 q 479 126 450 126 q 528 147 508 126 q 549 196 549 168 q 528 245 549 225 q 479 265 508 265 m 113 722 q 63 702 83 722 q 42 654 42 682 q 61 604 42 625 q 110 583 81 583 q 160 602 139 582 q 181 651 181 622 q 161 701 181 681 q 113 722 142 721 m 235 657 q 185 637 206 657 q 164 589 165 617 q 184 539 164 560 q 232 518 204 518 q 282 537 261 517 q 303 586 303 557 q 284 635 304 615 q 235 657 264 656 m 357 592 q 308 572 329 592 q 288 524 288 553 q 306 474 286 494 q 356 453 326 453 q 404 472 383 453 q 426 521 425 492 q 406 571 426 550 q 357 592 386 592 m 481 526 q 431 507 451 526 q 410 458 410 488 q 429 408 410 429 q 478 388 449 388 q 528 407 507 388 q 549 456 549 426 q 528 506 549 485 q 481 526 508 526 m 725 396 q 676 376 697 396 q 656 328 656 357 q 674 278 654 299 q 724 257 694 258 q 772 277 751 257 q 794 325 793 297 q 774 375 794 354 q 725 396 754 396 z "},"?":{"ha":853,"x_min":47,"x_max":806,"o":"m 429 71 q 380 50 400 71 q 360 1 360 29 q 380 -48 360 -28 q 429 -68 400 -68 q 478 -48 457 -68 q 499 1 499 -28 q 478 50 499 29 q 429 71 457 71 m 429 349 q 380 328 400 349 q 360 279 360 307 q 380 230 360 250 q 429 210 400 210 q 478 230 457 210 q 499 279 499 250 q 478 328 499 307 q 429 349 457 349 m 429 488 q 380 467 400 488 q 360 418 360 446 q 380 369 360 389 q 429 349 400 349 q 478 369 457 349 q 499 418 499 389 q 478 467 499 446 q 429 488 457 488 m 117 800 q 67 780 88 800 q 47 731 47 760 q 67 682 47 703 q 117 661 88 661 q 165 682 144 661 q 186 731 186 703 q 165 780 186 760 q 117 800 144 800 m 563 515 q 514 494 535 515 q 493 446 493 474 q 514 397 493 417 q 563 376 535 376 q 612 397 592 376 q 632 446 632 417 q 612 494 632 474 q 563 515 592 515 m 165 929 q 116 909 136 929 q 96 860 96 889 q 116 810 96 831 q 165 790 136 790 q 215 810 194 790 q 235 860 235 831 q 215 909 235 889 q 165 929 194 929 m 674 597 q 624 576 644 597 q 604 528 604 556 q 624 478 604 499 q 674 458 644 458 q 723 478 703 458 q 743 528 743 499 q 723 576 743 556 q 674 597 703 597 m 268 1021 q 219 1000 239 1021 q 199 951 199 979 q 219 902 199 922 q 268 882 239 882 q 317 902 297 882 q 338 951 338 922 q 317 1000 338 979 q 268 1021 297 1021 m 736 719 q 688 699 708 719 q 667 650 667 678 q 688 601 667 621 q 736 581 708 581 q 785 601 765 581 q 806 650 806 621 q 785 699 806 678 q 736 719 765 719 m 400 1060 q 351 1040 372 1060 q 331 990 331 1019 q 351 941 331 961 q 400 921 372 921 q 449 941 429 921 q 469 990 469 961 q 449 1040 469 1019 q 400 1060 429 1060 m 538 1043 q 488 1023 508 1043 q 468 974 468 1003 q 488 924 468 944 q 538 904 508 904 q 587 924 567 904 q 607 974 607 944 q 587 1023 607 1003 q 538 1043 567 1043 m 729 856 q 681 835 701 856 q 660 786 660 815 q 681 737 660 757 q 729 717 701 717 q 778 737 758 717 q 799 786 799 757 q 778 835 799 815 q 729 856 758 856 m 656 972 q 606 951 626 972 q 586 903 586 931 q 606 853 586 874 q 656 833 626 833 q 704 853 683 833 q 725 903 725 874 q 704 951 725 931 q 656 972 683 972 z "},"@":{"ha":1308,"x_min":42,"x_max":1267,"o":"m 272 186 q 224 165 244 186 q 203 117 203 144 q 224 67 203 88 q 272 47 244 47 q 322 67 301 47 q 342 117 342 88 q 322 165 342 144 q 272 186 301 186 m 185 293 q 135 272 156 293 q 115 224 115 251 q 135 174 115 194 q 185 154 156 154 q 234 174 214 154 q 254 224 254 194 q 234 272 254 251 q 185 293 214 293 m 386 106 q 337 85 357 106 q 317 36 317 65 q 337 -13 317 7 q 386 -33 357 -33 q 435 -13 414 -33 q 456 36 456 7 q 435 85 456 65 q 386 106 414 106 m 131 419 q 81 399 101 419 q 61 350 61 379 q 81 301 61 322 q 131 281 101 281 q 179 301 158 281 q 200 350 200 322 q 179 399 200 379 q 131 419 158 419 m 515 58 q 467 38 488 58 q 446 -11 446 18 q 467 -60 446 -39 q 515 -81 488 -81 q 565 -60 544 -81 q 585 -11 585 -39 q 565 38 585 18 q 515 58 544 58 m 111 557 q 62 536 82 557 q 42 488 42 515 q 62 438 42 458 q 111 418 82 418 q 160 438 140 418 q 181 488 181 458 q 160 536 181 515 q 111 557 140 557 m 654 49 q 605 28 625 49 q 585 -21 585 8 q 605 -70 585 -50 q 654 -90 625 -90 q 703 -70 683 -90 q 724 -21 724 -50 q 703 28 724 8 q 654 49 683 49 m 393 397 q 344 377 365 397 q 324 328 324 357 q 344 278 324 299 q 393 258 365 258 q 442 278 422 258 q 463 328 463 299 q 442 376 463 356 q 393 397 422 397 m 493 303 q 444 283 465 303 q 424 233 424 263 q 444 184 424 204 q 493 164 465 164 q 542 184 522 164 q 563 233 563 204 q 542 283 563 263 q 493 303 522 303 m 131 693 q 81 673 101 693 q 61 624 61 653 q 81 574 61 594 q 131 554 101 554 q 179 574 158 554 q 200 624 200 594 q 179 673 200 653 q 131 693 158 693 m 793 58 q 744 38 764 58 q 724 -11 724 18 q 744 -60 724 -39 q 793 -81 764 -81 q 842 -60 821 -81 q 863 -11 863 -39 q 842 38 863 18 q 793 58 821 58 m 351 528 q 303 508 324 528 q 282 458 282 488 q 303 409 282 429 q 351 389 324 389 q 401 409 381 389 q 421 458 421 429 q 401 508 421 488 q 351 528 381 528 m 628 274 q 578 253 599 274 q 558 204 558 232 q 578 155 558 175 q 628 135 599 135 q 677 155 657 135 q 697 204 697 175 q 677 253 697 232 q 628 274 657 274 m 185 821 q 135 801 156 821 q 115 751 115 781 q 135 702 115 722 q 185 682 156 682 q 234 702 214 682 q 254 751 254 722 q 234 801 254 781 q 185 821 214 821 m 379 663 q 331 642 351 663 q 310 593 310 622 q 331 544 310 564 q 379 524 351 524 q 428 544 408 524 q 449 593 449 564 q 428 642 449 622 q 379 663 408 663 m 754 325 q 705 305 725 325 q 685 256 685 285 q 705 206 685 226 q 754 186 725 186 q 803 206 783 186 q 824 256 824 226 q 803 305 824 285 q 754 325 783 325 m 897 269 q 848 249 868 269 q 828 200 828 229 q 848 151 828 171 q 897 131 868 131 q 946 151 925 131 q 967 200 967 171 q 946 249 967 229 q 897 269 925 269 m 272 928 q 224 908 244 928 q 203 858 203 888 q 224 809 203 829 q 272 789 244 789 q 322 809 301 789 q 342 858 342 829 q 322 908 342 888 q 272 928 301 928 m 1018 203 q 969 183 989 203 q 949 133 949 163 q 969 84 949 104 q 1018 64 989 64 q 1067 84 1047 64 q 1088 133 1088 104 q 1067 183 1088 163 q 1018 203 1047 203 m 465 771 q 416 751 436 771 q 396 701 396 731 q 416 652 396 672 q 465 632 436 632 q 514 652 493 632 q 535 701 535 672 q 514 751 535 731 q 465 771 493 771 m 871 406 q 822 385 842 406 q 801 336 801 365 q 822 287 801 307 q 871 267 842 267 q 920 287 900 267 q 940 336 940 307 q 920 385 940 365 q 871 406 900 406 m 386 1008 q 337 988 357 1008 q 317 939 317 967 q 337 890 317 910 q 386 869 357 869 q 435 890 414 869 q 456 939 456 910 q 435 988 456 967 q 386 1008 414 1008 m 871 544 q 822 524 842 544 q 801 475 801 504 q 822 426 801 446 q 871 406 842 406 q 920 426 900 406 q 940 475 940 446 q 920 524 940 504 q 871 544 900 544 m 593 822 q 544 802 564 822 q 524 753 524 782 q 544 703 524 724 q 593 683 564 683 q 642 703 622 683 q 663 753 663 724 q 642 802 663 782 q 593 822 622 822 m 1124 293 q 1074 272 1094 293 q 1054 224 1054 251 q 1074 174 1054 194 q 1124 154 1094 154 q 1172 174 1151 154 q 1193 224 1193 194 q 1172 272 1193 251 q 1124 293 1151 293 m 871 683 q 822 663 842 683 q 801 614 801 643 q 822 565 801 585 q 871 544 842 544 q 920 565 900 544 q 940 614 940 585 q 920 663 940 643 q 871 683 900 683 m 732 822 q 683 802 703 822 q 663 753 663 782 q 683 703 663 724 q 732 683 703 683 q 781 703 761 683 q 801 753 801 724 q 781 802 801 782 q 732 822 761 822 m 515 1054 q 467 1034 488 1054 q 446 985 446 1014 q 467 936 446 957 q 515 915 488 915 q 565 936 544 915 q 585 985 585 957 q 565 1034 585 1014 q 515 1054 544 1054 m 1178 419 q 1129 399 1150 419 q 1108 350 1108 379 q 1129 301 1108 322 q 1178 281 1150 281 q 1227 301 1207 281 q 1247 350 1247 322 q 1227 399 1247 379 q 1178 419 1207 419 m 871 822 q 822 802 842 822 q 801 753 801 782 q 822 703 801 724 q 871 683 842 683 q 920 703 900 683 q 940 753 940 724 q 920 802 940 782 q 871 822 900 822 m 654 1065 q 605 1044 625 1065 q 585 996 585 1024 q 605 947 585 967 q 654 926 625 926 q 703 947 683 926 q 724 996 724 967 q 703 1044 724 1024 q 654 1065 683 1065 m 1197 557 q 1148 536 1168 557 q 1128 488 1128 515 q 1148 438 1128 458 q 1197 418 1168 418 q 1247 438 1226 418 q 1267 488 1267 458 q 1247 536 1267 515 q 1197 557 1226 557 m 793 1054 q 744 1034 764 1054 q 724 985 724 1014 q 744 936 724 957 q 793 915 764 915 q 842 936 821 915 q 863 985 863 957 q 842 1034 863 1014 q 793 1054 821 1054 m 1178 693 q 1129 673 1150 693 q 1108 624 1108 653 q 1129 574 1108 594 q 1178 554 1150 554 q 1227 574 1207 554 q 1247 624 1247 594 q 1227 673 1247 653 q 1178 693 1207 693 m 922 1008 q 874 988 894 1008 q 853 939 853 967 q 874 890 853 910 q 922 869 894 869 q 972 890 951 869 q 992 939 992 910 q 972 988 992 967 q 922 1008 951 1008 m 1124 821 q 1074 801 1094 821 q 1054 751 1054 781 q 1074 702 1054 722 q 1124 682 1094 682 q 1172 702 1151 682 q 1193 751 1193 722 q 1172 801 1193 781 q 1124 821 1151 821 m 1036 928 q 987 908 1007 928 q 967 858 967 888 q 987 809 967 829 q 1036 789 1007 789 q 1085 809 1064 789 q 1106 858 1106 829 q 1085 908 1106 888 q 1036 928 1064 928 z "},"A":{"ha":1210,"x_min":14,"x_max":1196,"o":"m 929 438 q 979 419 958 439 q 1000 369 1000 399 q 981 320 1000 340 q 932 299 961 300 q 865 344 882 299 q 801 299 849 300 q 735 344 753 299 q 671 299 718 300 q 604 344 622 299 q 540 299 589 300 q 475 344 492 299 q 410 299 458 300 q 344 344 361 299 q 279 299 328 299 q 230 319 250 299 q 210 368 210 340 q 230 417 210 397 q 279 438 250 438 q 344 393 328 438 q 408 438 361 438 q 475 393 457 439 q 539 438 490 438 q 604 393 588 439 q 668 438 621 438 q 735 393 718 439 q 799 438 751 438 q 865 393 849 439 q 929 438 882 438 m 668 928 q 718 909 697 929 q 739 860 739 889 q 720 811 740 832 q 671 789 700 790 q 604 835 622 789 q 539 789 588 789 q 490 810 511 789 q 469 858 469 831 q 490 908 469 888 q 539 928 511 928 q 604 883 588 928 q 668 928 621 928 m 83 69 q 34 49 54 69 q 14 0 14 29 q 34 -49 14 -28 q 83 -69 54 -69 q 133 -49 113 -69 q 153 0 153 -28 q 133 49 153 29 q 83 69 113 69 m 149 193 q 99 172 119 193 q 79 124 79 151 q 99 74 79 94 q 149 54 119 54 q 198 74 178 54 q 218 124 218 94 q 198 172 218 151 q 149 193 178 193 m 214 315 q 165 295 185 315 q 144 246 144 275 q 165 197 144 217 q 214 176 185 176 q 263 197 243 176 q 283 246 283 217 q 263 295 283 275 q 214 315 243 315 m 344 561 q 295 540 315 561 q 275 492 275 519 q 295 442 275 463 q 344 422 315 422 q 393 442 372 422 q 414 492 414 463 q 393 540 414 519 q 344 561 372 561 m 410 683 q 360 663 381 683 q 340 614 340 643 q 360 565 340 585 q 410 544 381 544 q 458 565 438 544 q 479 614 479 585 q 458 663 479 643 q 410 683 438 683 m 1125 69 q 1076 49 1096 69 q 1057 -1 1056 28 q 1078 -49 1057 -29 q 1128 -69 1099 -69 q 1176 -48 1156 -68 q 1196 1 1196 -28 q 1174 51 1194 31 q 1125 69 1154 71 m 1060 193 q 1011 171 1031 192 q 992 122 992 150 q 1013 73 992 93 q 1063 54 1033 53 q 1110 75 1090 54 q 1131 124 1131 96 q 1110 173 1131 153 q 1060 193 1089 193 m 475 806 q 426 785 446 806 q 406 736 406 765 q 426 687 406 707 q 475 667 446 667 q 524 687 503 667 q 544 736 544 707 q 524 785 544 765 q 475 806 503 806 m 994 315 q 946 294 965 315 q 926 244 926 274 q 947 196 926 215 q 997 176 968 176 q 1046 197 1026 176 q 1065 247 1065 218 q 1044 296 1065 276 q 994 315 1024 315 m 864 561 q 816 539 836 560 q 796 490 796 518 q 817 441 796 461 q 867 422 838 421 q 915 443 896 422 q 935 492 935 464 q 914 541 935 521 q 864 561 893 561 m 799 683 q 751 662 771 682 q 731 613 731 642 q 752 564 732 583 q 801 544 772 544 q 851 565 831 544 q 869 615 871 586 q 849 663 869 643 q 799 683 828 683 m 733 806 q 685 785 706 806 q 665 735 665 764 q 687 687 667 707 q 736 667 707 667 q 785 688 765 668 q 804 738 806 708 q 783 787 804 767 q 733 806 763 807 m 604 1051 q 555 1030 575 1050 q 535 981 535 1010 q 557 931 536 951 q 606 913 578 911 q 655 933 635 913 q 674 983 675 954 q 653 1031 674 1011 q 604 1051 632 1051 z "},"B":{"ha":919,"x_min":69,"x_max":892,"o":"m 674 703 q 722 682 701 703 q 743 633 743 661 q 701 569 743 588 q 754 501 754 557 q 734 453 754 474 q 685 432 714 432 q 636 453 657 432 q 615 501 615 474 q 657 565 615 547 q 604 633 604 578 q 624 682 604 661 q 674 703 644 703 m 139 71 q 90 50 110 71 q 69 1 69 29 q 90 -48 69 -28 q 139 -68 110 -68 q 188 -48 168 -68 q 208 1 208 -28 q 188 50 208 29 q 139 71 168 71 m 278 71 q 228 50 249 71 q 208 1 208 29 q 228 -48 208 -28 q 278 -68 249 -68 q 327 -48 307 -68 q 347 1 347 -28 q 327 50 347 29 q 278 71 307 71 m 139 210 q 90 189 110 210 q 69 140 69 168 q 90 91 69 111 q 139 71 110 71 q 188 91 168 71 q 208 140 208 111 q 188 189 208 168 q 139 210 168 210 m 417 71 q 367 50 388 71 q 347 1 347 29 q 367 -48 347 -28 q 417 -68 388 -68 q 466 -48 446 -68 q 486 1 486 -28 q 466 50 486 29 q 417 71 446 71 m 139 349 q 90 328 110 349 q 69 279 69 307 q 90 230 69 250 q 139 210 110 210 q 188 230 168 210 q 208 279 208 250 q 188 328 208 307 q 139 349 168 349 m 139 488 q 90 467 110 488 q 69 418 69 446 q 90 369 69 389 q 139 349 110 349 q 188 369 168 349 q 208 418 208 389 q 188 467 208 446 q 139 488 168 488 m 553 74 q 503 53 524 74 q 483 4 483 33 q 503 -44 483 -24 q 553 -65 524 -65 q 602 -44 582 -65 q 622 4 622 -24 q 602 53 622 33 q 553 74 582 74 m 139 626 q 90 606 110 626 q 69 557 69 585 q 90 508 69 528 q 139 488 110 488 q 188 508 168 488 q 208 557 208 528 q 188 606 208 585 q 139 626 168 626 m 685 117 q 635 97 656 117 q 615 47 615 76 q 635 -2 615 18 q 685 -22 656 -22 q 734 -2 714 -22 q 754 47 754 18 q 734 97 754 76 q 685 117 714 117 m 278 626 q 228 606 249 626 q 208 557 208 585 q 228 508 208 528 q 278 488 249 488 q 327 508 307 488 q 347 557 347 528 q 327 606 347 585 q 278 626 307 626 m 139 765 q 90 744 110 765 q 69 696 69 724 q 90 647 69 667 q 139 626 110 626 q 188 647 168 626 q 208 696 208 667 q 188 744 208 724 q 139 765 168 765 m 785 211 q 735 191 756 211 q 715 142 715 171 q 735 92 715 113 q 785 72 756 72 q 834 92 814 72 q 854 142 854 113 q 834 191 854 171 q 785 211 814 211 m 417 626 q 367 606 388 626 q 347 557 347 585 q 367 508 347 528 q 417 488 388 488 q 466 508 446 488 q 486 557 486 528 q 466 606 486 585 q 417 626 446 626 m 139 904 q 90 883 110 904 q 69 835 69 863 q 90 785 69 806 q 139 765 110 765 q 188 785 168 765 q 208 835 208 806 q 188 883 208 863 q 139 904 168 904 m 822 343 q 773 323 793 343 q 753 274 753 303 q 773 224 753 244 q 822 204 793 204 q 872 224 851 204 q 892 274 892 244 q 872 323 892 303 q 822 343 851 343 m 556 626 q 506 606 526 626 q 486 557 486 585 q 506 508 486 528 q 556 488 526 488 q 605 508 585 488 q 625 557 625 528 q 605 606 625 585 q 556 626 585 626 m 139 1043 q 90 1022 110 1043 q 69 974 69 1001 q 90 924 69 944 q 139 904 110 904 q 188 924 168 904 q 208 974 208 944 q 188 1022 208 1001 q 139 1043 168 1043 m 785 475 q 735 455 756 475 q 715 406 715 435 q 735 356 715 376 q 785 336 756 336 q 834 356 814 336 q 854 406 854 376 q 834 455 854 435 q 785 475 814 475 m 278 1043 q 228 1022 249 1043 q 208 974 208 1001 q 228 924 208 944 q 278 904 249 904 q 327 924 307 904 q 347 974 347 944 q 327 1022 347 1001 q 278 1043 307 1043 m 417 1043 q 367 1022 388 1043 q 347 974 347 1001 q 367 924 347 944 q 417 904 388 904 q 466 924 446 904 q 486 974 486 944 q 466 1022 486 1001 q 417 1043 446 1043 m 718 831 q 669 810 690 831 q 649 761 649 789 q 669 712 649 732 q 718 692 690 692 q 767 712 747 692 q 788 761 788 732 q 767 810 788 789 q 718 831 747 831 m 556 1029 q 506 1009 526 1029 q 486 960 486 989 q 506 911 486 932 q 556 890 526 890 q 604 911 583 890 q 625 960 625 932 q 604 1009 625 989 q 556 1029 583 1029 m 671 957 q 622 937 642 957 q 601 888 601 917 q 622 839 601 860 q 671 818 642 818 q 720 839 700 818 q 740 888 740 860 q 720 937 740 917 q 671 957 700 957 z "},"C":{"ha":1128,"x_min":42,"x_max":1106,"o":"m 272 186 q 224 165 244 186 q 203 117 203 144 q 224 67 203 88 q 272 47 244 47 q 322 67 301 47 q 342 117 342 88 q 322 165 342 144 q 272 186 301 186 m 185 293 q 135 272 156 293 q 115 224 115 251 q 135 174 115 194 q 185 154 156 154 q 234 174 214 154 q 254 224 254 194 q 234 272 254 251 q 185 293 214 293 m 386 106 q 337 85 357 106 q 317 36 317 65 q 337 -13 317 7 q 386 -33 357 -33 q 435 -13 414 -33 q 456 36 456 7 q 435 85 456 65 q 386 106 414 106 m 131 419 q 81 399 101 419 q 61 350 61 379 q 81 301 61 322 q 131 281 101 281 q 179 301 158 281 q 200 350 200 322 q 179 399 200 379 q 131 419 158 419 m 515 58 q 467 38 488 58 q 446 -11 446 18 q 467 -60 446 -39 q 515 -81 488 -81 q 565 -60 544 -81 q 585 -11 585 -39 q 565 38 585 18 q 515 58 544 58 m 111 557 q 62 536 82 557 q 42 488 42 515 q 62 438 42 458 q 111 418 82 418 q 160 438 140 418 q 181 488 181 458 q 160 536 181 515 q 111 557 140 557 m 654 49 q 605 28 625 49 q 585 -21 585 8 q 605 -70 585 -50 q 654 -90 625 -90 q 703 -70 683 -90 q 724 -21 724 -50 q 703 28 724 8 q 654 49 683 49 m 131 693 q 81 673 101 693 q 61 624 61 653 q 81 574 61 594 q 131 554 101 554 q 179 574 158 554 q 200 624 200 594 q 179 673 200 653 q 131 693 158 693 m 793 58 q 744 38 764 58 q 724 -11 724 18 q 744 -60 724 -39 q 793 -81 764 -81 q 842 -60 821 -81 q 863 -11 863 -39 q 842 38 863 18 q 793 58 821 58 m 185 821 q 135 801 156 821 q 115 751 115 781 q 135 702 115 722 q 185 682 156 682 q 234 702 214 682 q 254 751 254 722 q 234 801 254 781 q 185 821 214 821 m 922 106 q 874 85 894 106 q 853 36 853 65 q 874 -13 853 7 q 922 -33 894 -33 q 972 -13 951 -33 q 992 36 992 7 q 972 85 992 65 q 922 106 951 106 m 272 928 q 224 908 244 928 q 203 858 203 888 q 224 809 203 829 q 272 789 244 789 q 322 809 301 789 q 342 858 342 829 q 322 908 342 888 q 272 928 301 928 m 1036 186 q 987 165 1007 186 q 967 117 967 144 q 987 67 967 88 q 1036 47 1007 47 q 1085 67 1064 47 q 1106 117 1106 88 q 1085 165 1106 144 q 1036 186 1064 186 m 386 1008 q 337 988 357 1008 q 317 939 317 967 q 337 890 317 910 q 386 869 357 869 q 435 890 414 869 q 456 939 456 910 q 435 988 456 967 q 386 1008 414 1008 m 515 1054 q 467 1034 488 1054 q 446 985 446 1014 q 467 936 446 957 q 515 915 488 915 q 565 936 544 915 q 585 985 585 957 q 565 1034 585 1014 q 515 1054 544 1054 m 654 1065 q 605 1044 625 1065 q 585 996 585 1024 q 605 947 585 967 q 654 926 625 926 q 703 947 683 926 q 724 996 724 967 q 703 1044 724 1024 q 654 1065 683 1065 m 793 1054 q 744 1034 764 1054 q 724 985 724 1014 q 744 936 724 957 q 793 915 764 915 q 842 936 821 915 q 863 985 863 957 q 842 1034 863 1014 q 793 1054 821 1054 m 922 1008 q 874 988 894 1008 q 853 939 853 967 q 874 890 853 910 q 922 869 894 869 q 972 890 951 869 q 992 939 992 910 q 972 988 992 967 q 922 1008 951 1008 m 1036 928 q 987 908 1007 928 q 967 858 967 888 q 987 809 967 829 q 1036 789 1007 789 q 1085 809 1064 789 q 1106 858 1106 829 q 1085 908 1106 888 q 1036 928 1064 928 z "},"D":{"ha":1071,"x_min":69,"x_max":1036,"o":"m 139 71 q 90 50 110 71 q 69 1 69 29 q 90 -48 69 -28 q 139 -68 110 -68 q 188 -48 168 -68 q 208 1 208 -28 q 188 50 208 29 q 139 71 168 71 m 278 71 q 228 50 249 71 q 208 1 208 29 q 228 -48 208 -28 q 278 -68 249 -68 q 327 -48 307 -68 q 347 1 347 -28 q 327 50 347 29 q 278 71 307 71 m 139 210 q 90 189 110 210 q 69 140 69 168 q 90 91 69 111 q 139 71 110 71 q 188 91 168 71 q 208 140 208 111 q 188 189 208 168 q 139 210 168 210 m 417 71 q 367 50 388 71 q 347 1 347 29 q 367 -48 347 -28 q 417 -68 388 -68 q 466 -48 446 -68 q 486 1 486 -28 q 466 50 486 29 q 417 71 446 71 m 139 349 q 90 328 110 349 q 69 279 69 307 q 90 230 69 250 q 139 210 110 210 q 188 230 168 210 q 208 279 208 250 q 188 328 208 307 q 139 349 168 349 m 139 488 q 90 467 110 488 q 69 418 69 446 q 90 369 69 389 q 139 349 110 349 q 188 369 168 349 q 208 418 208 389 q 188 467 208 446 q 139 488 168 488 m 556 74 q 506 53 526 74 q 486 4 486 33 q 506 -44 486 -24 q 556 -65 526 -65 q 604 -44 583 -65 q 625 4 625 -24 q 604 53 625 33 q 556 74 583 74 m 139 626 q 90 606 110 626 q 69 557 69 585 q 90 508 69 528 q 139 488 110 488 q 188 508 168 488 q 208 557 208 528 q 188 606 208 585 q 139 626 168 626 m 689 108 q 640 88 661 108 q 619 39 619 68 q 640 -10 619 10 q 689 -31 661 -31 q 738 -10 718 -31 q 758 39 758 10 q 738 88 758 68 q 689 108 718 108 m 139 765 q 90 744 110 765 q 69 696 69 724 q 90 647 69 667 q 139 626 110 626 q 188 647 168 626 q 208 696 208 667 q 188 744 208 724 q 139 765 168 765 m 807 182 q 758 161 778 182 q 738 113 738 140 q 758 63 738 83 q 807 43 778 43 q 856 63 836 43 q 876 113 876 83 q 856 161 876 140 q 807 182 836 182 m 139 904 q 90 883 110 904 q 69 835 69 863 q 90 785 69 806 q 139 765 110 765 q 188 785 168 765 q 208 835 208 806 q 188 883 208 863 q 139 904 168 904 m 139 1043 q 90 1022 110 1043 q 69 974 69 1001 q 90 924 69 944 q 139 904 110 904 q 188 924 168 904 q 208 974 208 944 q 188 1022 208 1001 q 139 1043 168 1043 m 896 288 q 847 267 867 288 q 826 218 826 246 q 847 169 826 189 q 896 149 867 149 q 945 169 925 149 q 965 218 965 189 q 945 267 965 246 q 896 288 925 288 m 278 1043 q 228 1022 249 1043 q 208 974 208 1001 q 228 924 208 944 q 278 904 249 904 q 327 924 307 904 q 347 974 347 944 q 327 1022 347 1001 q 278 1043 307 1043 m 950 415 q 901 394 921 415 q 881 346 881 374 q 901 297 881 317 q 950 276 921 276 q 999 297 978 276 q 1019 346 1019 317 q 999 394 1019 374 q 950 415 978 415 m 417 1043 q 367 1022 388 1043 q 347 974 347 1001 q 367 924 347 944 q 417 904 388 904 q 466 924 446 904 q 486 974 486 944 q 466 1022 486 1001 q 417 1043 446 1043 m 967 553 q 917 532 938 553 q 897 483 897 511 q 917 434 897 454 q 967 414 938 414 q 1015 434 994 414 q 1036 483 1036 454 q 1015 532 1036 511 q 967 553 994 553 m 556 1036 q 506 1016 526 1036 q 486 967 486 996 q 506 917 486 938 q 556 897 526 897 q 605 917 585 897 q 625 967 625 938 q 605 1016 625 996 q 556 1036 585 1036 m 949 690 q 899 669 919 690 q 879 621 879 649 q 899 572 879 592 q 949 551 919 551 q 997 572 976 551 q 1018 621 1018 592 q 997 669 1018 649 q 949 690 976 690 m 689 999 q 640 978 660 999 q 619 929 619 957 q 640 880 619 900 q 689 860 660 860 q 738 880 718 860 q 758 929 758 900 q 738 978 758 957 q 689 999 718 999 m 893 817 q 844 797 865 817 q 824 747 824 776 q 844 699 824 719 q 893 678 865 678 q 942 699 922 678 q 963 747 963 719 q 942 797 963 776 q 893 817 922 817 m 806 924 q 756 903 776 924 q 736 854 736 883 q 756 805 736 825 q 806 785 776 785 q 855 805 835 785 q 875 854 875 825 q 855 903 875 883 q 806 924 835 924 z "},"E":{"ha":806,"x_min":69,"x_max":764,"o":"m 139 71 q 90 50 110 71 q 69 1 69 29 q 90 -48 69 -28 q 139 -68 110 -68 q 188 -48 168 -68 q 208 1 208 -28 q 188 50 208 29 q 139 71 168 71 m 278 71 q 228 50 249 71 q 208 1 208 29 q 228 -48 208 -28 q 278 -68 249 -68 q 327 -48 307 -68 q 347 1 347 -28 q 327 50 347 29 q 278 71 307 71 m 139 210 q 90 189 110 210 q 69 140 69 168 q 90 91 69 111 q 139 71 110 71 q 188 91 168 71 q 208 140 208 111 q 188 189 208 168 q 139 210 168 210 m 417 71 q 367 50 388 71 q 347 1 347 29 q 367 -48 347 -28 q 417 -68 388 -68 q 466 -48 446 -68 q 486 1 486 -28 q 466 50 486 29 q 417 71 446 71 m 139 349 q 90 328 110 349 q 69 279 69 307 q 90 230 69 250 q 139 210 110 210 q 188 230 168 210 q 208 279 208 250 q 188 328 208 307 q 139 349 168 349 m 556 71 q 506 50 526 71 q 486 1 486 29 q 506 -48 486 -28 q 556 -68 526 -68 q 605 -48 585 -68 q 625 1 625 -28 q 605 50 625 29 q 556 71 585 71 m 139 488 q 90 467 110 488 q 69 418 69 446 q 90 369 69 389 q 139 349 110 349 q 188 369 168 349 q 208 418 208 389 q 188 467 208 446 q 139 488 168 488 m 694 71 q 645 50 665 71 q 625 1 625 29 q 645 -48 625 -28 q 694 -68 665 -68 q 744 -48 724 -68 q 764 1 764 -28 q 744 50 764 29 q 694 71 724 71 m 139 626 q 90 606 110 626 q 69 557 69 585 q 90 508 69 528 q 139 488 110 488 q 188 508 168 488 q 208 557 208 528 q 188 606 208 585 q 139 626 168 626 m 278 626 q 228 606 249 626 q 208 557 208 585 q 228 508 208 528 q 278 488 249 488 q 327 508 307 488 q 347 557 347 528 q 327 606 347 585 q 278 626 307 626 m 139 765 q 90 744 110 765 q 69 696 69 724 q 90 647 69 667 q 139 626 110 626 q 188 647 168 626 q 208 696 208 667 q 188 744 208 724 q 139 765 168 765 m 417 626 q 367 606 388 626 q 347 557 347 585 q 367 508 347 528 q 417 488 388 488 q 466 508 446 488 q 486 557 486 528 q 466 606 486 585 q 417 626 446 626 m 139 904 q 90 883 110 904 q 69 835 69 863 q 90 785 69 806 q 139 765 110 765 q 188 785 168 765 q 208 835 208 806 q 188 883 208 863 q 139 904 168 904 m 556 626 q 506 606 526 626 q 486 557 486 585 q 506 508 486 528 q 556 488 526 488 q 605 508 585 488 q 625 557 625 528 q 605 606 625 585 q 556 626 585 626 m 139 1043 q 90 1022 110 1043 q 69 974 69 1001 q 90 924 69 944 q 139 904 110 904 q 188 924 168 904 q 208 974 208 944 q 188 1022 208 1001 q 139 1043 168 1043 m 278 1043 q 228 1022 249 1043 q 208 974 208 1001 q 228 924 208 944 q 278 904 249 904 q 327 924 307 904 q 347 974 347 944 q 327 1022 347 1001 q 278 1043 307 1043 m 417 1043 q 367 1022 388 1043 q 347 974 347 1001 q 367 924 347 944 q 417 904 388 904 q 466 924 446 904 q 486 974 486 944 q 466 1022 486 1001 q 417 1043 446 1043 m 556 1043 q 506 1022 526 1043 q 486 974 486 1001 q 506 924 486 944 q 556 904 526 904 q 605 924 585 904 q 625 974 625 944 q 605 1022 625 1001 q 556 1043 585 1043 m 694 1043 q 645 1022 665 1043 q 625 974 625 1001 q 645 924 625 944 q 694 904 665 904 q 744 924 724 904 q 764 974 764 944 q 744 1022 764 1001 q 694 1043 724 1043 z "},"F":{"ha":792,"x_min":69,"x_max":764,"o":"m 139 71 q 90 50 110 71 q 69 1 69 29 q 90 -48 69 -28 q 139 -68 110 -68 q 188 -48 168 -68 q 208 1 208 -28 q 188 50 208 29 q 139 71 168 71 m 139 210 q 90 189 110 210 q 69 140 69 168 q 90 91 69 111 q 139 71 110 71 q 188 91 168 71 q 208 140 208 111 q 188 189 208 168 q 139 210 168 210 m 139 349 q 90 328 110 349 q 69 279 69 307 q 90 230 69 250 q 139 210 110 210 q 188 230 168 210 q 208 279 208 250 q 188 328 208 307 q 139 349 168 349 m 139 488 q 90 467 110 488 q 69 418 69 446 q 90 369 69 389 q 139 349 110 349 q 188 369 168 349 q 208 418 208 389 q 188 467 208 446 q 139 488 168 488 m 139 626 q 90 606 110 626 q 69 557 69 585 q 90 508 69 528 q 139 488 110 488 q 188 508 168 488 q 208 557 208 528 q 188 606 208 585 q 139 626 168 626 m 278 626 q 228 606 249 626 q 208 557 208 585 q 228 508 208 528 q 278 488 249 488 q 327 508 307 488 q 347 557 347 528 q 327 606 347 585 q 278 626 307 626 m 139 765 q 90 744 110 765 q 69 696 69 724 q 90 647 69 667 q 139 626 110 626 q 188 647 168 626 q 208 696 208 667 q 188 744 208 724 q 139 765 168 765 m 417 626 q 367 606 388 626 q 347 557 347 585 q 367 508 347 528 q 417 488 388 488 q 466 508 446 488 q 486 557 486 528 q 466 606 486 585 q 417 626 446 626 m 139 904 q 90 883 110 904 q 69 835 69 863 q 90 785 69 806 q 139 765 110 765 q 188 785 168 765 q 208 835 208 806 q 188 883 208 863 q 139 904 168 904 m 556 626 q 506 606 526 626 q 486 557 486 585 q 506 508 486 528 q 556 488 526 488 q 605 508 585 488 q 625 557 625 528 q 605 606 625 585 q 556 626 585 626 m 139 1043 q 90 1022 110 1043 q 69 974 69 1001 q 90 924 69 944 q 139 904 110 904 q 188 924 168 904 q 208 974 208 944 q 188 1022 208 1001 q 139 1043 168 1043 m 278 1043 q 228 1022 249 1043 q 208 974 208 1001 q 228 924 208 944 q 278 904 249 904 q 327 924 307 904 q 347 974 347 944 q 327 1022 347 1001 q 278 1043 307 1043 m 417 1043 q 367 1022 388 1043 q 347 974 347 1001 q 367 924 347 944 q 417 904 388 904 q 466 924 446 904 q 486 974 486 944 q 466 1022 486 1001 q 417 1043 446 1043 m 556 1043 q 506 1022 526 1043 q 486 974 486 1001 q 506 924 486 944 q 556 904 526 904 q 605 924 585 904 q 625 974 625 944 q 605 1022 625 1001 q 556 1043 585 1043 m 694 1043 q 645 1022 665 1043 q 625 974 625 1001 q 645 924 625 944 q 694 904 665 904 q 744 924 724 904 q 764 974 764 944 q 744 1022 764 1001 q 694 1043 724 1043 z "},"G":{"ha":1301,"x_min":39,"x_max":1264,"o":"m 269 186 q 221 165 242 186 q 200 117 200 144 q 221 67 200 88 q 269 47 242 47 q 319 67 299 47 q 339 117 339 88 q 319 165 339 144 q 269 186 299 186 m 182 293 q 133 272 153 293 q 113 224 113 251 q 133 174 113 194 q 182 154 153 154 q 231 174 211 154 q 251 224 251 194 q 231 272 251 251 q 182 293 211 293 m 383 106 q 334 85 354 106 q 314 36 314 65 q 334 -13 314 7 q 383 -33 354 -33 q 432 -13 411 -33 q 453 36 453 7 q 432 85 453 65 q 383 106 411 106 m 128 419 q 78 399 99 419 q 58 350 58 379 q 78 301 58 322 q 128 281 99 281 q 176 301 156 281 q 197 350 197 322 q 176 399 197 379 q 128 419 156 419 m 513 58 q 464 38 485 58 q 443 -11 443 18 q 464 -60 443 -39 q 513 -81 485 -81 q 562 -60 542 -81 q 582 -11 582 -39 q 562 38 582 18 q 513 58 542 58 m 108 557 q 59 536 79 557 q 39 488 39 515 q 59 438 39 458 q 108 418 79 418 q 158 438 138 418 q 178 488 178 458 q 158 536 178 515 q 108 557 138 557 m 651 49 q 602 28 622 49 q 582 -21 582 8 q 602 -70 582 -50 q 651 -90 622 -90 q 701 -70 681 -90 q 721 -21 721 -50 q 701 28 721 8 q 651 49 681 49 m 128 693 q 78 673 99 693 q 58 624 58 653 q 78 574 58 594 q 128 554 99 554 q 176 574 156 554 q 197 624 197 594 q 176 673 197 653 q 128 693 156 693 m 790 58 q 741 38 761 58 q 721 -11 721 18 q 741 -60 721 -39 q 790 -81 761 -81 q 839 -60 818 -81 q 860 -11 860 -39 q 839 38 860 18 q 790 58 818 58 m 182 821 q 133 801 153 821 q 113 751 113 781 q 133 702 113 722 q 182 682 153 682 q 231 702 211 682 q 251 751 251 722 q 231 801 251 781 q 182 821 211 821 m 919 106 q 871 85 892 106 q 850 36 850 65 q 871 -13 850 7 q 919 -33 892 -33 q 969 -13 949 -33 q 989 36 989 7 q 969 85 989 65 q 919 106 949 106 m 639 557 q 590 536 610 557 q 569 488 569 515 q 590 438 569 458 q 639 418 610 418 q 688 438 668 418 q 708 488 708 458 q 688 536 708 515 q 639 557 668 557 m 269 928 q 221 908 242 928 q 200 858 200 888 q 221 809 200 829 q 269 789 242 789 q 319 809 299 789 q 339 858 339 829 q 319 908 339 888 q 269 928 299 928 m 1033 186 q 984 165 1004 186 q 964 117 964 144 q 984 67 964 88 q 1033 47 1004 47 q 1082 67 1061 47 q 1103 117 1103 88 q 1082 165 1103 144 q 1033 186 1061 186 m 778 557 q 728 536 749 557 q 708 488 708 515 q 728 438 708 458 q 778 418 749 418 q 827 438 807 418 q 847 488 847 458 q 827 536 847 515 q 778 557 807 557 m 383 1008 q 334 988 354 1008 q 314 939 314 967 q 334 890 314 910 q 383 869 354 869 q 432 890 411 869 q 453 939 453 910 q 432 988 453 967 q 383 1008 411 1008 m 1121 293 q 1072 272 1092 293 q 1051 224 1051 251 q 1072 174 1051 194 q 1121 154 1092 154 q 1169 174 1149 154 q 1190 224 1190 194 q 1169 272 1190 251 q 1121 293 1149 293 m 917 557 q 867 536 888 557 q 847 488 847 515 q 867 438 847 458 q 917 418 888 418 q 966 438 946 418 q 986 488 986 458 q 966 536 986 515 q 917 557 946 557 m 513 1054 q 464 1034 485 1054 q 443 985 443 1014 q 464 936 443 957 q 513 915 485 915 q 562 936 542 915 q 582 985 582 957 q 562 1034 582 1014 q 513 1054 542 1054 m 1175 419 q 1126 399 1147 419 q 1106 350 1106 379 q 1126 301 1106 322 q 1175 281 1147 281 q 1224 301 1204 281 q 1244 350 1244 322 q 1224 399 1244 379 q 1175 419 1204 419 m 1056 557 q 1006 536 1026 557 q 986 488 986 515 q 1006 438 986 458 q 1056 418 1026 418 q 1105 438 1085 418 q 1125 488 1125 458 q 1105 536 1125 515 q 1056 557 1085 557 m 651 1065 q 602 1044 622 1065 q 582 996 582 1024 q 602 947 582 967 q 651 926 622 926 q 701 947 681 926 q 721 996 721 967 q 701 1044 721 1024 q 651 1065 681 1065 m 1194 557 q 1145 536 1165 557 q 1125 488 1125 515 q 1145 438 1125 458 q 1194 418 1165 418 q 1244 438 1224 418 q 1264 488 1264 458 q 1244 536 1264 515 q 1194 557 1224 557 m 790 1054 q 741 1034 761 1054 q 721 985 721 1014 q 741 936 721 957 q 790 915 761 915 q 839 936 818 915 q 860 985 860 957 q 839 1034 860 1014 q 790 1054 818 1054 m 919 1008 q 871 988 892 1008 q 850 939 850 967 q 871 890 850 910 q 919 869 892 869 q 969 890 949 869 q 989 939 989 910 q 969 988 989 967 q 919 1008 949 1008 m 1033 928 q 984 908 1004 928 q 964 858 964 888 q 984 809 964 829 q 1033 789 1004 789 q 1082 809 1061 789 q 1103 858 1103 829 q 1082 908 1103 888 q 1033 928 1061 928 z "},"H":{"ha":972,"x_min":69,"x_max":903,"o":"m 139 71 q 90 50 110 71 q 69 1 69 29 q 90 -48 69 -28 q 139 -68 110 -68 q 188 -48 168 -68 q 208 1 208 -28 q 188 50 208 29 q 139 71 168 71 m 139 210 q 90 189 110 210 q 69 140 69 168 q 90 91 69 111 q 139 71 110 71 q 188 91 168 71 q 208 140 208 111 q 188 189 208 168 q 139 210 168 210 m 139 349 q 90 328 110 349 q 69 279 69 307 q 90 230 69 250 q 139 210 110 210 q 188 230 168 210 q 208 279 208 250 q 188 328 208 307 q 139 349 168 349 m 139 488 q 90 467 110 488 q 69 418 69 446 q 90 369 69 389 q 139 349 110 349 q 188 369 168 349 q 208 418 208 389 q 188 467 208 446 q 139 488 168 488 m 139 626 q 90 606 110 626 q 69 557 69 585 q 90 508 69 528 q 139 488 110 488 q 188 508 168 488 q 208 557 208 528 q 188 606 208 585 q 139 626 168 626 m 833 71 q 784 50 804 71 q 764 1 764 29 q 784 -48 764 -28 q 833 -68 804 -68 q 883 -48 863 -68 q 903 1 903 -28 q 883 50 903 29 q 833 71 863 71 m 278 626 q 228 606 249 626 q 208 557 208 585 q 228 508 208 528 q 278 488 249 488 q 327 508 307 488 q 347 557 347 528 q 327 606 347 585 q 278 626 307 626 m 139 765 q 90 744 110 765 q 69 696 69 724 q 90 647 69 667 q 139 626 110 626 q 188 647 168 626 q 208 696 208 667 q 188 744 208 724 q 139 765 168 765 m 833 210 q 784 189 804 210 q 764 140 764 168 q 784 91 764 111 q 833 71 804 71 q 883 91 863 71 q 903 140 903 111 q 883 189 903 168 q 833 210 863 210 m 417 626 q 367 606 388 626 q 347 557 347 585 q 367 508 347 528 q 417 488 388 488 q 466 508 446 488 q 486 557 486 528 q 466 606 486 585 q 417 626 446 626 m 139 904 q 90 883 110 904 q 69 835 69 863 q 90 785 69 806 q 139 765 110 765 q 188 785 168 765 q 208 835 208 806 q 188 883 208 863 q 139 904 168 904 m 833 349 q 784 328 804 349 q 764 279 764 307 q 784 230 764 250 q 833 210 804 210 q 883 230 863 210 q 903 279 903 250 q 883 328 903 307 q 833 349 863 349 m 556 626 q 506 606 526 626 q 486 557 486 585 q 506 508 486 528 q 556 488 526 488 q 605 508 585 488 q 625 557 625 528 q 605 606 625 585 q 556 626 585 626 m 139 1043 q 90 1022 110 1043 q 69 974 69 1001 q 90 924 69 944 q 139 904 110 904 q 188 924 168 904 q 208 974 208 944 q 188 1022 208 1001 q 139 1043 168 1043 m 833 488 q 784 467 804 488 q 764 418 764 446 q 784 369 764 389 q 833 349 804 349 q 883 369 863 349 q 903 418 903 389 q 883 467 903 446 q 833 488 863 488 m 694 626 q 645 606 665 626 q 625 557 625 585 q 645 508 625 528 q 694 488 665 488 q 744 508 724 488 q 764 557 764 528 q 744 606 764 585 q 694 626 724 626 m 833 626 q 784 606 804 626 q 764 557 764 585 q 784 508 764 528 q 833 488 804 488 q 883 508 863 488 q 903 557 903 528 q 883 606 903 585 q 833 626 863 626 m 833 765 q 784 744 804 765 q 764 696 764 724 q 784 647 764 667 q 833 626 804 626 q 883 647 863 626 q 903 696 903 667 q 883 744 903 724 q 833 765 863 765 m 833 904 q 784 883 804 904 q 764 835 764 863 q 784 785 764 806 q 833 765 804 765 q 883 785 863 765 q 903 835 903 806 q 883 883 903 863 q 833 904 863 904 m 833 1043 q 784 1022 804 1043 q 764 974 764 1001 q 784 924 764 944 q 833 904 804 904 q 883 924 863 904 q 903 974 903 944 q 883 1022 903 1001 q 833 1043 863 1043 z "},"I":{"ha":278,"x_min":69,"x_max":208,"o":"m 139 71 q 90 50 110 71 q 69 1 69 29 q 90 -48 69 -28 q 139 -68 110 -68 q 188 -48 168 -68 q 208 1 208 -28 q 188 50 208 29 q 139 71 168 71 m 139 210 q 90 189 110 210 q 69 140 69 168 q 90 91 69 111 q 139 71 110 71 q 188 91 168 71 q 208 140 208 111 q 188 189 208 168 q 139 210 168 210 m 139 349 q 90 328 110 349 q 69 279 69 307 q 90 230 69 250 q 139 210 110 210 q 188 230 168 210 q 208 279 208 250 q 188 328 208 307 q 139 349 168 349 m 139 488 q 90 467 110 488 q 69 418 69 446 q 90 369 69 389 q 139 349 110 349 q 188 369 168 349 q 208 418 208 389 q 188 467 208 446 q 139 488 168 488 m 139 626 q 90 606 110 626 q 69 557 69 585 q 90 508 69 528 q 139 488 110 488 q 188 508 168 488 q 208 557 208 528 q 188 606 208 585 q 139 626 168 626 m 139 765 q 90 744 110 765 q 69 696 69 724 q 90 647 69 667 q 139 626 110 626 q 188 647 168 626 q 208 696 208 667 q 188 744 208 724 q 139 765 168 765 m 139 904 q 90 883 110 904 q 69 835 69 863 q 90 785 69 806 q 139 765 110 765 q 188 785 168 765 q 208 835 208 806 q 188 883 208 863 q 139 904 168 904 m 139 1043 q 90 1022 110 1043 q 69 974 69 1001 q 90 924 69 944 q 139 904 110 904 q 188 924 168 904 q 208 974 208 944 q 188 1022 208 1001 q 139 1043 168 1043 z "},"J":{"ha":815,"x_min":14,"x_max":746,"o":"m 183 101 q 134 81 154 101 q 114 32 114 60 q 134 -17 114 3 q 183 -37 154 -37 q 233 -17 213 -37 q 253 32 253 3 q 233 81 253 60 q 183 101 213 101 m 101 211 q 53 190 74 211 q 32 142 32 169 q 53 92 32 113 q 101 72 74 72 q 151 92 131 72 q 171 142 171 113 q 151 190 171 169 q 101 211 131 211 m 308 46 q 259 26 279 46 q 239 -24 239 6 q 259 -73 239 -53 q 308 -93 279 -93 q 358 -73 338 -93 q 378 -24 378 -53 q 358 26 378 6 q 308 46 338 46 m 83 349 q 34 328 54 349 q 14 279 14 307 q 34 230 14 250 q 83 210 54 210 q 133 230 113 210 q 153 279 153 250 q 133 328 153 307 q 83 349 113 349 m 447 46 q 398 26 418 46 q 378 -24 378 6 q 398 -73 378 -53 q 447 -93 418 -93 q 496 -73 475 -93 q 517 -24 517 -53 q 496 26 517 6 q 447 46 475 46 m 572 103 q 523 82 543 103 q 503 33 503 61 q 523 -16 503 4 q 572 -36 543 -36 q 622 -16 601 -36 q 642 33 642 4 q 622 82 642 61 q 572 103 601 103 m 656 211 q 606 191 626 211 q 586 142 586 171 q 606 93 586 114 q 656 72 626 72 q 705 93 685 72 q 725 142 725 114 q 705 191 725 171 q 656 211 685 211 m 676 349 q 627 328 647 349 q 607 279 607 307 q 627 230 607 250 q 676 210 647 210 q 726 230 706 210 q 746 279 746 250 q 726 328 746 307 q 676 349 706 349 m 676 488 q 627 467 647 488 q 607 418 607 446 q 627 369 607 389 q 676 349 647 349 q 726 369 706 349 q 746 418 746 389 q 726 467 746 446 q 676 488 706 488 m 676 626 q 627 606 647 626 q 607 557 607 585 q 627 508 607 528 q 676 488 647 488 q 726 508 706 488 q 746 557 746 528 q 726 606 746 585 q 676 626 706 626 m 676 765 q 627 744 647 765 q 607 696 607 724 q 627 647 607 667 q 676 626 647 626 q 726 647 706 626 q 746 696 746 667 q 726 744 746 724 q 676 765 706 765 m 676 904 q 627 883 647 904 q 607 835 607 863 q 627 785 607 806 q 676 765 647 765 q 726 785 706 765 q 746 835 746 806 q 726 883 746 863 q 676 904 706 904 m 676 1043 q 627 1022 647 1043 q 607 974 607 1001 q 627 924 607 944 q 676 904 647 904 q 726 924 706 904 q 746 974 746 944 q 726 1022 746 1001 q 676 1043 706 1043 z "},"K":{"ha":846,"x_min":69,"x_max":829,"o":"m 242 533 q 291 513 271 533 q 311 464 311 493 q 291 415 311 435 q 243 394 271 394 q 207 404 224 394 q 139 349 196 349 q 90 369 110 349 q 69 418 69 389 q 90 467 69 446 q 139 488 110 488 q 174 478 158 488 q 242 533 185 533 m 250 708 q 299 688 279 708 q 319 639 319 668 q 299 590 319 611 q 250 569 279 569 q 201 590 221 569 q 181 640 181 611 q 139 626 163 626 q 90 647 110 626 q 69 696 69 667 q 90 744 69 724 q 139 765 110 765 q 188 744 168 765 q 208 696 208 724 l 208 694 q 250 708 226 708 m 139 71 q 90 50 110 71 q 69 1 69 29 q 90 -48 69 -28 q 139 -68 110 -68 q 188 -48 168 -68 q 208 1 208 -28 q 188 50 208 29 q 139 71 168 71 m 139 210 q 90 189 110 210 q 69 140 69 168 q 90 91 69 111 q 139 71 110 71 q 188 91 168 71 q 208 140 208 111 q 188 189 208 168 q 139 210 168 210 m 139 349 q 90 328 110 349 q 69 279 69 307 q 90 230 69 250 q 139 210 110 210 q 188 230 168 210 q 208 279 208 250 q 188 328 208 307 q 139 349 168 349 m 139 626 q 90 606 110 626 q 69 557 69 585 q 90 508 69 528 q 139 488 110 488 q 188 508 168 488 q 208 557 208 528 q 188 606 208 585 q 139 626 168 626 m 346 440 q 297 420 317 440 q 276 371 276 400 q 297 322 276 342 q 346 301 317 301 q 395 322 375 301 q 415 371 415 342 q 395 420 415 400 q 346 440 375 440 m 449 347 q 400 327 421 347 q 379 278 379 307 q 400 229 379 250 q 450 208 421 208 q 498 229 478 208 q 518 278 518 250 q 498 327 518 307 q 449 347 478 347 m 553 256 q 503 235 524 256 q 483 185 483 214 q 503 137 483 157 q 553 117 524 117 q 602 137 582 117 q 622 186 622 157 q 602 235 622 214 q 553 256 582 256 m 656 163 q 607 142 628 163 q 586 93 586 121 q 607 44 586 64 q 657 24 628 24 q 705 44 685 24 q 725 93 725 64 q 705 142 725 122 q 656 163 685 163 m 760 69 q 710 49 731 69 q 690 0 690 29 q 710 -49 690 -29 q 760 -69 731 -69 q 809 -49 789 -69 q 829 0 829 -29 q 808 49 829 29 q 760 69 788 69 m 139 904 q 90 883 110 904 q 69 835 69 863 q 90 785 69 806 q 139 765 110 765 q 188 785 168 765 q 208 835 208 806 q 188 883 208 863 q 139 904 168 904 m 361 792 q 313 772 333 792 q 292 722 292 751 q 312 674 292 694 q 361 653 332 653 q 410 674 390 653 q 431 722 431 694 q 410 772 431 751 q 361 792 390 792 m 139 1043 q 90 1022 110 1043 q 69 974 69 1001 q 90 924 69 944 q 139 904 110 904 q 188 924 168 904 q 208 974 208 944 q 188 1022 208 1001 q 139 1043 168 1043 m 472 875 q 424 855 444 875 q 403 806 403 835 q 423 757 403 778 q 472 736 443 736 q 522 756 501 736 q 542 806 542 776 q 522 855 542 835 q 472 875 501 875 m 583 958 q 535 938 556 958 q 514 889 514 918 q 534 840 514 860 q 583 819 554 819 q 633 840 613 819 q 653 889 653 860 q 633 938 653 918 q 583 958 613 958 m 696 1042 q 646 1022 667 1042 q 625 972 625 1001 q 646 923 625 943 q 694 903 667 903 q 744 923 724 903 q 764 972 764 943 q 744 1022 764 1001 q 696 1042 724 1042 z "},"L":{"ha":764,"x_min":69,"x_max":764,"o":"m 139 71 q 90 50 110 71 q 69 1 69 29 q 90 -48 69 -28 q 139 -68 110 -68 q 188 -48 168 -68 q 208 1 208 -28 q 188 50 208 29 q 139 71 168 71 m 278 71 q 228 50 249 71 q 208 1 208 29 q 228 -48 208 -28 q 278 -68 249 -68 q 327 -48 307 -68 q 347 1 347 -28 q 327 50 347 29 q 278 71 307 71 m 139 210 q 90 189 110 210 q 69 140 69 168 q 90 91 69 111 q 139 71 110 71 q 188 91 168 71 q 208 140 208 111 q 188 189 208 168 q 139 210 168 210 m 417 71 q 367 50 388 71 q 347 1 347 29 q 367 -48 347 -28 q 417 -68 388 -68 q 466 -48 446 -68 q 486 1 486 -28 q 466 50 486 29 q 417 71 446 71 m 139 349 q 90 328 110 349 q 69 279 69 307 q 90 230 69 250 q 139 210 110 210 q 188 230 168 210 q 208 279 208 250 q 188 328 208 307 q 139 349 168 349 m 556 71 q 506 50 526 71 q 486 1 486 29 q 506 -48 486 -28 q 556 -68 526 -68 q 605 -48 585 -68 q 625 1 625 -28 q 605 50 625 29 q 556 71 585 71 m 139 488 q 90 467 110 488 q 69 418 69 446 q 90 369 69 389 q 139 349 110 349 q 188 369 168 349 q 208 418 208 389 q 188 467 208 446 q 139 488 168 488 m 694 71 q 645 50 665 71 q 625 1 625 29 q 645 -48 625 -28 q 694 -68 665 -68 q 744 -48 724 -68 q 764 1 764 -28 q 744 50 764 29 q 694 71 724 71 m 139 626 q 90 606 110 626 q 69 557 69 585 q 90 508 69 528 q 139 488 110 488 q 188 508 168 488 q 208 557 208 528 q 188 606 208 585 q 139 626 168 626 m 139 765 q 90 744 110 765 q 69 696 69 724 q 90 647 69 667 q 139 626 110 626 q 188 647 168 626 q 208 696 208 667 q 188 744 208 724 q 139 765 168 765 m 139 904 q 90 883 110 904 q 69 835 69 863 q 90 785 69 806 q 139 765 110 765 q 188 785 168 765 q 208 835 208 806 q 188 883 208 863 q 139 904 168 904 m 139 1043 q 90 1022 110 1043 q 69 974 69 1001 q 90 924 69 944 q 139 904 110 904 q 188 924 168 904 q 208 974 208 944 q 188 1022 208 1001 q 139 1043 168 1043 z "},"M":{"ha":1140,"x_min":68,"x_max":1072,"o":"m 1003 904 q 1052 883 1032 904 q 1072 835 1072 863 q 1052 785 1072 806 q 1003 765 1032 765 q 943 800 963 765 q 917 794 931 794 q 867 815 888 794 q 847 864 847 836 q 867 913 847 893 q 917 933 888 933 q 978 899 957 933 q 1003 904 990 904 m 224 933 q 273 913 253 933 q 293 864 293 893 q 273 815 293 836 q 224 794 253 794 q 199 800 211 794 q 138 765 178 765 q 88 785 108 765 q 68 835 68 806 q 88 883 68 863 q 138 904 108 904 q 164 899 151 904 q 224 933 183 933 m 138 71 q 88 50 108 71 q 68 1 68 29 q 88 -48 68 -28 q 138 -68 108 -68 q 187 -48 167 -68 q 207 1 207 -28 q 187 50 207 29 q 138 71 167 71 m 138 210 q 88 189 108 210 q 68 140 68 168 q 88 91 68 111 q 138 71 108 71 q 187 91 167 71 q 207 140 207 111 q 187 189 207 168 q 138 210 167 210 m 138 349 q 88 328 108 349 q 68 279 68 307 q 88 230 68 250 q 138 210 108 210 q 187 230 167 210 q 207 279 207 250 q 187 328 207 307 q 138 349 167 349 m 138 488 q 88 467 108 488 q 68 418 68 446 q 88 369 68 389 q 138 349 108 349 q 187 369 167 349 q 207 418 207 389 q 187 467 207 446 q 138 488 167 488 m 138 626 q 88 606 108 626 q 68 557 68 585 q 88 508 68 528 q 138 488 108 488 q 187 508 167 488 q 207 557 207 528 q 187 606 207 585 q 138 626 167 626 m 138 765 q 88 744 108 765 q 68 696 68 724 q 88 647 68 667 q 138 626 108 626 q 187 647 167 626 q 207 696 207 667 q 187 744 207 724 q 138 765 167 765 m 571 500 q 522 479 542 500 q 501 431 501 458 q 522 381 501 401 q 571 361 542 361 q 619 381 599 361 q 640 431 640 401 q 619 479 640 458 q 571 500 599 500 m 1003 71 q 954 50 975 71 q 933 1 933 29 q 954 -48 933 -28 q 1003 -68 975 -68 q 1052 -48 1032 -68 q 1072 1 1072 -28 q 1052 50 1072 29 q 1003 71 1032 71 m 483 608 q 435 588 456 608 q 414 539 414 568 q 435 490 414 510 q 483 469 456 469 q 533 490 513 469 q 553 539 553 510 q 533 588 553 568 q 483 608 513 608 m 397 717 q 348 697 368 717 q 328 647 328 676 q 348 598 328 618 q 397 578 368 578 q 447 598 426 578 q 467 647 467 618 q 447 697 467 676 q 397 717 426 717 m 311 825 q 262 805 282 825 q 242 756 242 785 q 262 706 242 726 q 311 686 282 686 q 360 706 339 686 q 381 756 381 726 q 360 805 381 785 q 311 825 339 825 m 138 1043 q 88 1022 108 1043 q 68 974 68 1001 q 88 924 68 944 q 138 904 108 904 q 187 924 167 904 q 207 974 207 944 q 187 1022 207 1001 q 138 1043 167 1043 m 1003 210 q 954 189 975 210 q 933 140 933 168 q 954 91 933 111 q 1003 71 975 71 q 1052 91 1032 71 q 1072 140 1072 111 q 1052 189 1072 168 q 1003 210 1032 210 m 657 608 q 608 588 628 608 q 588 539 588 568 q 608 490 588 510 q 657 469 628 469 q 706 490 686 469 q 726 539 726 510 q 706 588 726 568 q 657 608 686 608 m 1003 349 q 954 328 975 349 q 933 279 933 307 q 954 230 933 250 q 1003 210 975 210 q 1052 230 1032 210 q 1072 279 1072 250 q 1052 328 1072 307 q 1003 349 1032 349 m 743 717 q 694 697 715 717 q 674 647 674 676 q 694 598 674 618 q 743 578 715 578 q 792 598 772 578 q 813 647 813 618 q 792 697 813 676 q 743 717 772 717 m 1003 488 q 954 467 975 488 q 933 418 933 446 q 954 369 933 389 q 1003 349 975 349 q 1052 369 1032 349 q 1072 418 1072 389 q 1052 467 1072 446 q 1003 488 1032 488 m 1003 626 q 954 606 975 626 q 933 557 933 585 q 954 508 933 528 q 1003 488 975 488 q 1052 508 1032 488 q 1072 557 1072 528 q 1052 606 1072 585 q 1003 626 1032 626 m 831 825 q 781 805 801 825 q 761 756 761 785 q 781 706 761 726 q 831 686 801 686 q 879 706 858 686 q 900 756 900 726 q 879 805 900 785 q 831 825 858 825 m 1003 765 q 954 744 975 765 q 933 696 933 724 q 954 647 933 667 q 1003 626 975 626 q 1052 647 1032 626 q 1072 696 1072 667 q 1052 744 1072 724 q 1003 765 1032 765 m 1003 1043 q 954 1022 975 1043 q 933 974 933 1001 q 954 924 933 944 q 1003 904 975 904 q 1052 924 1032 904 q 1072 974 1072 944 q 1052 1022 1072 1001 q 1003 1043 1032 1043 z "},"N":{"ha":1063,"x_min":68,"x_max":994,"o":"m 925 210 q 974 189 954 210 q 994 140 994 168 q 974 91 994 111 q 925 71 954 71 q 899 75 911 71 q 838 39 878 39 q 788 60 808 39 q 768 108 768 81 q 788 158 768 138 q 838 178 808 178 q 864 172 851 178 q 925 210 883 210 m 225 935 q 274 914 253 935 q 294 865 294 893 q 274 816 294 836 q 225 796 253 796 q 199 801 211 796 q 138 765 178 765 q 88 785 108 765 q 68 835 68 806 q 88 883 68 863 q 138 904 108 904 q 164 899 151 904 q 225 935 183 935 m 138 71 q 88 50 108 71 q 68 1 68 29 q 88 -48 68 -28 q 138 -68 108 -68 q 186 -48 165 -68 q 207 1 207 -28 q 186 50 207 29 q 138 71 165 71 m 138 210 q 88 189 108 210 q 68 140 68 168 q 88 91 68 111 q 138 71 108 71 q 186 91 165 71 q 207 140 207 111 q 186 189 207 168 q 138 210 165 210 m 138 349 q 88 328 108 349 q 68 279 68 307 q 88 230 68 250 q 138 210 108 210 q 186 230 165 210 q 207 279 207 250 q 186 328 207 307 q 138 349 165 349 m 138 488 q 88 467 108 488 q 68 418 68 446 q 88 369 68 389 q 138 349 108 349 q 186 369 165 349 q 207 418 207 389 q 186 467 207 446 q 138 488 165 488 m 138 626 q 88 606 108 626 q 68 557 68 585 q 88 508 68 528 q 138 488 108 488 q 186 508 165 488 q 207 557 207 528 q 186 606 207 585 q 138 626 165 626 m 138 765 q 88 744 108 765 q 68 696 68 724 q 88 647 68 667 q 138 626 108 626 q 186 647 165 626 q 207 696 207 667 q 186 744 207 724 q 138 765 165 765 m 925 71 q 876 50 896 71 q 856 1 856 29 q 876 -48 856 -28 q 925 -68 896 -68 q 974 -48 954 -68 q 994 1 994 -28 q 974 50 994 29 q 925 71 954 71 m 750 286 q 701 266 721 286 q 681 217 681 246 q 701 167 681 188 q 750 147 721 147 q 799 167 779 147 q 819 217 819 188 q 799 266 819 246 q 750 286 779 286 m 663 394 q 613 374 633 394 q 593 325 593 354 q 613 276 593 296 q 663 256 633 256 q 712 276 692 256 q 732 325 732 296 q 712 374 732 354 q 663 394 692 394 m 575 503 q 526 482 546 503 q 506 433 506 461 q 526 384 506 404 q 575 364 546 364 q 624 384 604 364 q 644 433 644 404 q 624 482 644 461 q 575 503 604 503 m 488 610 q 438 590 458 610 q 418 540 418 569 q 438 492 418 513 q 488 471 458 471 q 536 492 515 471 q 557 540 557 513 q 536 590 557 569 q 488 610 515 610 m 400 718 q 351 698 371 718 q 331 649 331 678 q 351 599 331 619 q 400 579 371 579 q 449 599 428 579 q 469 649 469 619 q 449 698 469 678 q 400 718 428 718 m 313 826 q 263 806 283 826 q 243 757 243 786 q 263 708 243 728 q 313 688 283 688 q 361 708 340 688 q 382 757 382 728 q 361 806 382 786 q 313 826 340 826 m 138 1043 q 88 1022 108 1043 q 68 974 68 1001 q 88 924 68 944 q 138 904 108 904 q 186 924 165 904 q 207 974 207 944 q 186 1022 207 1001 q 138 1043 165 1043 m 925 349 q 876 328 896 349 q 856 279 856 307 q 876 230 856 250 q 925 210 896 210 q 974 230 954 210 q 994 279 994 250 q 974 328 994 307 q 925 349 954 349 m 925 488 q 876 467 896 488 q 856 418 856 446 q 876 369 856 389 q 925 349 896 349 q 974 369 954 349 q 994 418 994 389 q 974 467 994 446 q 925 488 954 488 m 925 626 q 876 606 896 626 q 856 557 856 585 q 876 508 856 528 q 925 488 896 488 q 974 508 954 488 q 994 557 994 528 q 974 606 994 585 q 925 626 954 626 m 925 765 q 876 744 896 765 q 856 696 856 724 q 876 647 856 667 q 925 626 896 626 q 974 647 954 626 q 994 696 994 667 q 974 744 994 724 q 925 765 954 765 m 925 904 q 876 883 896 904 q 856 835 856 863 q 876 785 856 806 q 925 765 896 765 q 974 785 954 765 q 994 835 994 806 q 974 883 994 863 q 925 904 954 904 m 925 1043 q 876 1022 896 1043 q 856 974 856 1001 q 876 924 856 944 q 925 904 896 904 q 974 924 954 904 q 994 974 994 944 q 974 1022 994 1001 q 925 1043 954 1043 z "},"O":{"ha":1308,"x_min":42,"x_max":1267,"o":"m 272 186 q 224 165 244 186 q 203 117 203 144 q 224 67 203 88 q 272 47 244 47 q 322 67 301 47 q 342 117 342 88 q 322 165 342 144 q 272 186 301 186 m 185 293 q 135 272 156 293 q 115 224 115 251 q 135 174 115 194 q 185 154 156 154 q 234 174 214 154 q 254 224 254 194 q 234 272 254 251 q 185 293 214 293 m 386 106 q 337 85 357 106 q 317 36 317 65 q 337 -13 317 7 q 386 -33 357 -33 q 435 -13 414 -33 q 456 36 456 7 q 435 85 456 65 q 386 106 414 106 m 131 419 q 81 399 101 419 q 61 350 61 379 q 81 301 61 322 q 131 281 101 281 q 179 301 158 281 q 200 350 200 322 q 179 399 200 379 q 131 419 158 419 m 515 58 q 467 38 488 58 q 446 -11 446 18 q 467 -60 446 -39 q 515 -81 488 -81 q 565 -60 544 -81 q 585 -11 585 -39 q 565 38 585 18 q 515 58 544 58 m 111 557 q 62 536 82 557 q 42 488 42 515 q 62 438 42 458 q 111 418 82 418 q 160 438 140 418 q 181 488 181 458 q 160 536 181 515 q 111 557 140 557 m 654 49 q 605 28 625 49 q 585 -21 585 8 q 605 -70 585 -50 q 654 -90 625 -90 q 703 -70 683 -90 q 724 -21 724 -50 q 703 28 724 8 q 654 49 683 49 m 131 693 q 81 673 101 693 q 61 624 61 653 q 81 574 61 594 q 131 554 101 554 q 179 574 158 554 q 200 624 200 594 q 179 673 200 653 q 131 693 158 693 m 793 58 q 744 38 764 58 q 724 -11 724 18 q 744 -60 724 -39 q 793 -81 764 -81 q 842 -60 821 -81 q 863 -11 863 -39 q 842 38 863 18 q 793 58 821 58 m 185 821 q 135 801 156 821 q 115 751 115 781 q 135 702 115 722 q 185 682 156 682 q 234 702 214 682 q 254 751 254 722 q 234 801 254 781 q 185 821 214 821 m 922 106 q 874 85 894 106 q 853 36 853 65 q 874 -13 853 7 q 922 -33 894 -33 q 972 -13 951 -33 q 992 36 992 7 q 972 85 992 65 q 922 106 951 106 m 272 928 q 224 908 244 928 q 203 858 203 888 q 224 809 203 829 q 272 789 244 789 q 322 809 301 789 q 342 858 342 829 q 322 908 342 888 q 272 928 301 928 m 1036 186 q 987 165 1007 186 q 967 117 967 144 q 987 67 967 88 q 1036 47 1007 47 q 1085 67 1064 47 q 1106 117 1106 88 q 1085 165 1106 144 q 1036 186 1064 186 m 386 1008 q 337 988 357 1008 q 317 939 317 967 q 337 890 317 910 q 386 869 357 869 q 435 890 414 869 q 456 939 456 910 q 435 988 456 967 q 386 1008 414 1008 m 1124 293 q 1074 272 1094 293 q 1054 224 1054 251 q 1074 174 1054 194 q 1124 154 1094 154 q 1172 174 1151 154 q 1193 224 1193 194 q 1172 272 1193 251 q 1124 293 1151 293 m 515 1054 q 467 1034 488 1054 q 446 985 446 1014 q 467 936 446 957 q 515 915 488 915 q 565 936 544 915 q 585 985 585 957 q 565 1034 585 1014 q 515 1054 544 1054 m 1178 419 q 1129 399 1150 419 q 1108 350 1108 379 q 1129 301 1108 322 q 1178 281 1150 281 q 1227 301 1207 281 q 1247 350 1247 322 q 1227 399 1247 379 q 1178 419 1207 419 m 654 1065 q 605 1044 625 1065 q 585 996 585 1024 q 605 947 585 967 q 654 926 625 926 q 703 947 683 926 q 724 996 724 967 q 703 1044 724 1024 q 654 1065 683 1065 m 1197 557 q 1148 536 1168 557 q 1128 488 1128 515 q 1148 438 1128 458 q 1197 418 1168 418 q 1247 438 1226 418 q 1267 488 1267 458 q 1247 536 1267 515 q 1197 557 1226 557 m 793 1054 q 744 1034 764 1054 q 724 985 724 1014 q 744 936 724 957 q 793 915 764 915 q 842 936 821 915 q 863 985 863 957 q 842 1034 863 1014 q 793 1054 821 1054 m 1178 693 q 1129 673 1150 693 q 1108 624 1108 653 q 1129 574 1108 594 q 1178 554 1150 554 q 1227 574 1207 554 q 1247 624 1247 594 q 1227 673 1247 653 q 1178 693 1207 693 m 922 1008 q 874 988 894 1008 q 853 939 853 967 q 874 890 853 910 q 922 869 894 869 q 972 890 951 869 q 992 939 992 910 q 972 988 992 967 q 922 1008 951 1008 m 1124 821 q 1074 801 1094 821 q 1054 751 1054 781 q 1074 702 1054 722 q 1124 682 1094 682 q 1172 702 1151 682 q 1193 751 1193 722 q 1172 801 1193 781 q 1124 821 1151 821 m 1036 928 q 987 908 1007 928 q 967 858 967 888 q 987 809 967 829 q 1036 789 1007 789 q 1085 809 1064 789 q 1106 858 1106 829 q 1085 908 1106 888 q 1036 928 1064 928 z "},"P":{"ha":826,"x_min":69,"x_max":799,"o":"m 139 71 q 90 50 110 71 q 69 1 69 29 q 90 -48 69 -28 q 139 -68 110 -68 q 188 -48 168 -68 q 208 1 208 -28 q 188 50 208 29 q 139 71 168 71 m 139 210 q 90 189 110 210 q 69 140 69 168 q 90 91 69 111 q 139 71 110 71 q 188 91 168 71 q 208 140 208 111 q 188 189 208 168 q 139 210 168 210 m 139 349 q 90 328 110 349 q 69 279 69 307 q 90 230 69 250 q 139 210 110 210 q 188 230 168 210 q 208 279 208 250 q 188 328 208 307 q 139 349 168 349 m 139 488 q 90 467 110 488 q 69 418 69 446 q 90 369 69 389 q 139 349 110 349 q 188 369 168 349 q 208 418 208 389 q 188 467 208 446 q 139 488 168 488 m 276 486 q 227 466 247 486 q 207 417 207 446 q 227 367 207 388 q 276 347 247 347 q 326 367 306 347 q 346 417 346 388 q 326 466 346 446 q 276 486 306 486 m 139 626 q 90 606 110 626 q 69 557 69 585 q 90 508 69 528 q 139 488 110 488 q 188 508 168 488 q 208 557 208 528 q 188 606 208 585 q 139 626 168 626 m 415 486 q 366 466 386 486 q 346 417 346 446 q 366 367 346 388 q 415 347 386 347 q 464 367 443 347 q 485 417 485 388 q 464 466 485 446 q 415 486 443 486 m 139 765 q 90 744 110 765 q 69 696 69 724 q 90 647 69 667 q 139 626 110 626 q 188 647 168 626 q 208 696 208 667 q 188 744 208 724 q 139 765 168 765 m 139 904 q 90 883 110 904 q 69 835 69 863 q 90 785 69 806 q 139 765 110 765 q 188 785 168 765 q 208 835 208 806 q 188 883 208 863 q 139 904 168 904 m 553 494 q 504 474 525 494 q 483 425 483 454 q 504 376 483 396 q 553 356 525 356 q 602 376 582 356 q 622 425 622 396 q 602 474 622 454 q 553 494 582 494 m 139 1043 q 90 1022 110 1043 q 69 974 69 1001 q 90 924 69 944 q 139 904 110 904 q 188 924 168 904 q 208 974 208 944 q 188 1022 208 1001 q 139 1043 168 1043 m 669 567 q 620 547 640 567 q 600 497 600 526 q 620 448 600 468 q 669 428 640 428 q 719 448 699 428 q 739 497 739 468 q 719 547 739 526 q 669 567 699 567 m 278 1043 q 228 1022 249 1043 q 208 974 208 1001 q 228 924 208 944 q 278 904 249 904 q 327 924 307 904 q 347 974 347 944 q 327 1022 347 1001 q 278 1043 307 1043 m 729 690 q 680 669 700 690 q 660 621 660 649 q 680 572 660 592 q 729 551 700 551 q 778 572 757 551 q 799 621 799 592 q 778 669 799 649 q 729 690 757 690 m 417 1043 q 367 1022 388 1043 q 347 974 347 1001 q 367 924 347 944 q 417 904 388 904 q 466 924 446 904 q 486 974 486 944 q 466 1022 486 1001 q 417 1043 446 1043 m 728 829 q 678 808 699 829 q 658 760 658 788 q 678 710 658 731 q 728 690 699 690 q 777 710 757 690 q 797 760 797 731 q 777 808 797 788 q 728 829 757 829 m 554 1029 q 505 1009 525 1029 q 485 960 485 989 q 505 910 485 931 q 554 890 525 890 q 603 910 583 890 q 624 960 624 931 q 603 1009 624 989 q 554 1029 583 1029 m 668 951 q 619 931 639 951 q 599 882 599 911 q 619 833 599 854 q 668 813 639 813 q 717 833 697 813 q 738 882 738 854 q 717 931 738 911 q 668 951 697 951 z "},"Q":{"ha":1308,"x_min":42,"x_max":1267,"o":"m 272 186 q 224 165 244 186 q 203 117 203 144 q 224 67 203 88 q 272 47 244 47 q 322 67 301 47 q 342 117 342 88 q 322 165 342 144 q 272 186 301 186 m 185 293 q 135 272 156 293 q 115 224 115 251 q 135 174 115 194 q 185 154 156 154 q 234 174 214 154 q 254 224 254 194 q 234 272 254 251 q 185 293 214 293 m 386 106 q 337 85 357 106 q 317 36 317 65 q 337 -13 317 7 q 386 -33 357 -33 q 435 -13 414 -33 q 456 36 456 7 q 435 85 456 65 q 386 106 414 106 m 131 419 q 81 399 101 419 q 61 350 61 379 q 81 301 61 322 q 131 281 101 281 q 179 301 158 281 q 200 350 200 322 q 179 399 200 379 q 131 419 158 419 m 515 58 q 467 38 488 58 q 446 -11 446 18 q 467 -60 446 -39 q 515 -81 488 -81 q 565 -60 544 -81 q 585 -11 585 -39 q 565 38 585 18 q 515 58 544 58 m 111 557 q 62 536 82 557 q 42 488 42 515 q 62 438 42 458 q 111 418 82 418 q 160 438 140 418 q 181 488 181 458 q 160 536 181 515 q 111 557 140 557 m 654 49 q 605 28 625 49 q 585 -21 585 8 q 605 -70 585 -50 q 654 -90 625 -90 q 703 -70 683 -90 q 724 -21 724 -50 q 703 28 724 8 q 654 49 683 49 m 131 693 q 81 673 101 693 q 61 624 61 653 q 81 574 61 594 q 131 554 101 554 q 179 574 158 554 q 200 624 200 594 q 179 673 200 653 q 131 693 158 693 m 793 58 q 744 38 764 58 q 724 -11 724 18 q 744 -60 724 -39 q 793 -81 764 -81 q 842 -60 821 -81 q 863 -11 863 -39 q 842 38 863 18 q 793 58 821 58 m 185 821 q 135 801 156 821 q 115 751 115 781 q 135 702 115 722 q 185 682 156 682 q 234 702 214 682 q 254 751 254 722 q 234 801 254 781 q 185 821 214 821 m 1119 -92 q 1070 -112 1090 -92 q 1050 -161 1050 -132 q 1070 -210 1050 -190 q 1119 -231 1090 -231 q 1169 -210 1149 -231 q 1189 -161 1189 -190 q 1169 -112 1189 -132 q 1119 -92 1149 -92 m 1021 7 q 972 -13 992 7 q 951 -62 951 -33 q 972 -112 951 -92 q 1021 -132 992 -132 q 1070 -112 1050 -132 q 1090 -62 1090 -92 q 1070 -13 1090 -33 q 1021 7 1050 7 m 922 106 q 874 85 894 106 q 853 36 853 65 q 874 -13 853 7 q 922 -33 894 -33 q 972 -13 951 -33 q 992 36 992 7 q 972 85 992 65 q 922 106 951 106 m 825 204 q 776 184 796 204 q 756 135 756 164 q 776 85 756 106 q 825 65 796 65 q 874 85 853 65 q 894 135 894 106 q 874 184 894 164 q 825 204 853 204 m 726 303 q 677 283 697 303 q 657 233 657 263 q 677 184 657 204 q 726 164 697 164 q 775 184 754 164 q 796 233 796 204 q 775 283 796 263 q 726 303 754 303 m 272 928 q 224 908 244 928 q 203 858 203 888 q 224 809 203 829 q 272 789 244 789 q 322 809 301 789 q 342 858 342 829 q 322 908 342 888 q 272 928 301 928 m 1036 186 q 987 165 1007 186 q 967 117 967 144 q 987 67 967 88 q 1036 47 1007 47 q 1085 67 1064 47 q 1106 117 1106 88 q 1085 165 1106 144 q 1036 186 1064 186 m 386 1008 q 337 988 357 1008 q 317 939 317 967 q 337 890 317 910 q 386 869 357 869 q 435 890 414 869 q 456 939 456 910 q 435 988 456 967 q 386 1008 414 1008 m 1124 293 q 1074 272 1094 293 q 1054 224 1054 251 q 1074 174 1054 194 q 1124 154 1094 154 q 1172 174 1151 154 q 1193 224 1193 194 q 1172 272 1193 251 q 1124 293 1151 293 m 515 1054 q 467 1034 488 1054 q 446 985 446 1014 q 467 936 446 957 q 515 915 488 915 q 565 936 544 915 q 585 985 585 957 q 565 1034 585 1014 q 515 1054 544 1054 m 1178 419 q 1129 399 1150 419 q 1108 350 1108 379 q 1129 301 1108 322 q 1178 281 1150 281 q 1227 301 1207 281 q 1247 350 1247 322 q 1227 399 1247 379 q 1178 419 1207 419 m 654 1065 q 605 1044 625 1065 q 585 996 585 1024 q 605 947 585 967 q 654 926 625 926 q 703 947 683 926 q 724 996 724 967 q 703 1044 724 1024 q 654 1065 683 1065 m 1197 557 q 1148 536 1168 557 q 1128 488 1128 515 q 1148 438 1128 458 q 1197 418 1168 418 q 1247 438 1226 418 q 1267 488 1267 458 q 1247 536 1267 515 q 1197 557 1226 557 m 793 1054 q 744 1034 764 1054 q 724 985 724 1014 q 744 936 724 957 q 793 915 764 915 q 842 936 821 915 q 863 985 863 957 q 842 1034 863 1014 q 793 1054 821 1054 m 1178 693 q 1129 673 1150 693 q 1108 624 1108 653 q 1129 574 1108 594 q 1178 554 1150 554 q 1227 574 1207 554 q 1247 624 1247 594 q 1227 673 1247 653 q 1178 693 1207 693 m 922 1008 q 874 988 894 1008 q 853 939 853 967 q 874 890 853 910 q 922 869 894 869 q 972 890 951 869 q 992 939 992 910 q 972 988 992 967 q 922 1008 951 1008 m 1124 821 q 1074 801 1094 821 q 1054 751 1054 781 q 1074 702 1054 722 q 1124 682 1094 682 q 1172 702 1151 682 q 1193 751 1193 722 q 1172 801 1193 781 q 1124 821 1151 821 m 1036 928 q 987 908 1007 928 q 967 858 967 888 q 987 809 967 829 q 1036 789 1007 789 q 1085 809 1064 789 q 1106 858 1106 829 q 1085 908 1106 888 q 1036 928 1064 928 z "},"R":{"ha":865,"x_min":69,"x_max":851,"o":"m 553 494 q 602 474 582 494 q 622 425 622 454 q 604 378 622 399 q 561 356 586 358 q 576 313 576 338 q 556 263 576 283 q 507 243 535 243 q 458 263 478 243 q 438 313 438 283 q 455 359 438 339 q 499 382 472 379 q 483 425 483 400 q 504 474 483 454 q 553 494 525 494 m 139 71 q 90 50 110 71 q 69 1 69 29 q 90 -48 69 -28 q 139 -68 110 -68 q 188 -48 168 -68 q 208 1 208 -28 q 188 50 208 29 q 139 71 168 71 m 139 210 q 90 189 110 210 q 69 140 69 168 q 90 91 69 111 q 139 71 110 71 q 188 91 168 71 q 208 140 208 111 q 188 189 208 168 q 139 210 168 210 m 139 349 q 90 328 110 349 q 69 279 69 307 q 90 230 69 250 q 139 210 110 210 q 188 230 168 210 q 208 279 208 250 q 188 328 208 307 q 139 349 168 349 m 139 488 q 90 467 110 488 q 69 418 69 446 q 90 369 69 389 q 139 349 110 349 q 188 369 168 349 q 208 418 208 389 q 188 467 208 446 q 139 488 168 488 m 276 486 q 227 466 247 486 q 207 417 207 446 q 227 367 207 388 q 276 347 247 347 q 326 367 306 347 q 346 417 346 388 q 326 466 346 446 q 276 486 306 486 m 139 626 q 90 606 110 626 q 69 557 69 585 q 90 508 69 528 q 139 488 110 488 q 188 508 168 488 q 208 557 208 528 q 188 606 208 585 q 139 626 168 626 m 782 71 q 733 50 753 71 q 713 1 713 29 q 733 -48 713 -28 q 782 -68 753 -68 q 831 -48 810 -68 q 851 1 851 -28 q 831 50 851 29 q 782 71 810 71 m 690 174 q 641 153 661 174 q 621 104 621 133 q 641 56 621 76 q 690 35 661 35 q 739 56 718 35 q 760 104 760 76 q 739 153 760 133 q 690 174 718 174 m 599 278 q 549 258 569 278 q 529 208 529 238 q 549 159 529 179 q 599 139 569 139 q 647 159 626 139 q 668 208 668 179 q 647 258 668 238 q 599 278 626 278 m 415 486 q 366 466 386 486 q 346 417 346 446 q 366 367 346 388 q 415 347 386 347 q 464 367 443 347 q 485 417 485 388 q 464 466 485 446 q 415 486 443 486 m 139 765 q 90 744 110 765 q 69 696 69 724 q 90 647 69 667 q 139 626 110 626 q 188 647 168 626 q 208 696 208 667 q 188 744 208 724 q 139 765 168 765 m 139 904 q 90 883 110 904 q 69 835 69 863 q 90 785 69 806 q 139 765 110 765 q 188 785 168 765 q 208 835 208 806 q 188 883 208 863 q 139 904 168 904 m 139 1043 q 90 1022 110 1043 q 69 974 69 1001 q 90 924 69 944 q 139 904 110 904 q 188 924 168 904 q 208 974 208 944 q 188 1022 208 1001 q 139 1043 168 1043 m 669 567 q 620 547 640 567 q 600 497 600 526 q 620 448 600 468 q 669 428 640 428 q 719 448 699 428 q 739 497 739 468 q 719 547 739 526 q 669 567 699 567 m 278 1043 q 228 1022 249 1043 q 208 974 208 1001 q 228 924 208 944 q 278 904 249 904 q 327 924 307 904 q 347 974 347 944 q 327 1022 347 1001 q 278 1043 307 1043 m 729 690 q 680 669 700 690 q 660 621 660 649 q 680 572 660 592 q 729 551 700 551 q 778 572 757 551 q 799 621 799 592 q 778 669 799 649 q 729 690 757 690 m 417 1043 q 367 1022 388 1043 q 347 974 347 1001 q 367 924 347 944 q 417 904 388 904 q 466 924 446 904 q 486 974 486 944 q 466 1022 486 1001 q 417 1043 446 1043 m 728 829 q 678 808 699 829 q 658 760 658 788 q 678 710 658 731 q 728 690 699 690 q 777 710 757 690 q 797 760 797 731 q 777 808 797 788 q 728 829 757 829 m 554 1029 q 505 1009 525 1029 q 485 960 485 989 q 505 910 485 931 q 554 890 525 890 q 603 910 583 890 q 624 960 624 931 q 603 1009 624 989 q 554 1029 583 1029 m 668 951 q 619 931 639 951 q 599 882 599 911 q 619 833 599 854 q 668 813 639 813 q 717 833 697 813 q 738 882 738 854 q 717 931 738 911 q 668 951 697 951 z "},"S":{"ha":904,"x_min":42,"x_max":863,"o":"m 217 129 q 167 108 188 129 q 147 60 147 88 q 167 10 147 31 q 217 -10 188 -10 q 266 10 246 -10 q 286 60 286 31 q 266 108 286 88 q 217 129 246 129 m 126 232 q 77 212 97 232 q 57 163 57 192 q 77 113 57 133 q 126 93 97 93 q 176 113 156 93 q 196 163 196 133 q 176 212 196 192 q 126 232 156 232 m 340 67 q 292 47 313 67 q 271 -3 271 26 q 292 -51 271 -31 q 340 -72 313 -72 q 390 -51 369 -72 q 410 -3 410 -31 q 390 47 410 26 q 340 67 369 67 m 111 369 q 62 349 82 369 q 42 300 42 328 q 62 251 42 271 q 111 231 82 231 q 160 251 140 231 q 181 300 181 271 q 160 349 181 328 q 111 369 140 369 m 478 47 q 428 27 449 47 q 408 -22 408 7 q 428 -72 408 -51 q 478 -92 449 -92 q 527 -72 507 -92 q 547 -22 547 -51 q 527 27 547 7 q 478 47 507 47 m 613 75 q 563 55 583 75 q 543 6 543 35 q 563 -43 543 -22 q 613 -64 583 -64 q 662 -43 642 -64 q 682 6 682 -22 q 662 55 682 35 q 613 75 642 75 m 728 151 q 678 131 699 151 q 658 82 658 111 q 678 33 658 53 q 728 13 699 13 q 777 33 757 13 q 797 82 797 53 q 777 131 797 111 q 728 151 757 151 m 201 760 q 152 740 172 760 q 132 690 132 719 q 152 642 132 663 q 201 621 172 621 q 251 642 231 621 q 271 690 271 663 q 251 740 271 719 q 201 760 231 760 m 299 664 q 249 644 269 664 q 229 594 229 624 q 249 545 229 565 q 299 525 269 525 q 348 545 328 525 q 368 594 368 565 q 348 644 368 624 q 299 664 328 664 m 426 611 q 378 591 399 611 q 357 542 357 571 q 378 493 357 514 q 426 472 399 472 q 476 493 456 472 q 496 542 496 514 q 476 591 496 571 q 426 611 456 611 m 793 271 q 744 251 765 271 q 724 201 724 231 q 744 153 724 174 q 793 132 765 132 q 842 153 822 132 q 863 201 863 174 q 842 251 863 231 q 793 271 822 271 m 182 896 q 133 875 153 896 q 113 826 113 854 q 133 777 113 797 q 182 757 153 757 q 231 777 210 757 q 251 826 251 797 q 231 875 251 854 q 182 896 210 896 m 561 575 q 512 555 532 575 q 492 506 492 535 q 512 457 492 478 q 561 436 532 436 q 610 457 590 436 q 631 506 631 478 q 610 555 631 535 q 561 575 590 575 m 772 407 q 724 386 744 407 q 703 338 703 365 q 724 288 703 308 q 772 268 744 268 q 822 288 801 268 q 842 338 842 308 q 822 386 842 365 q 772 407 801 407 m 683 511 q 634 491 654 511 q 614 442 614 471 q 634 393 614 414 q 683 372 654 372 q 733 393 713 372 q 753 442 753 414 q 733 491 753 471 q 683 511 713 511 m 254 1010 q 205 989 225 1010 q 185 940 185 968 q 205 891 185 911 q 254 871 225 871 q 303 891 283 871 q 324 940 324 911 q 303 989 324 968 q 254 1010 283 1010 m 382 1058 q 333 1038 354 1058 q 313 989 313 1018 q 333 940 313 961 q 382 919 354 919 q 431 940 411 919 q 451 989 451 961 q 431 1038 451 1018 q 382 1058 411 1058 m 521 1061 q 472 1041 492 1061 q 451 992 451 1021 q 472 942 451 963 q 521 922 492 922 q 570 942 550 922 q 590 992 590 963 q 570 1041 590 1021 q 521 1061 550 1061 m 743 913 q 694 892 714 913 q 674 843 674 872 q 694 794 674 814 q 743 774 714 774 q 792 794 772 774 q 813 843 813 814 q 792 892 813 872 q 743 913 772 913 m 650 1013 q 601 992 621 1013 q 581 943 581 972 q 601 894 581 915 q 650 874 621 874 q 699 894 679 874 q 719 943 719 915 q 699 992 719 972 q 650 1013 679 1013 z "},"T":{"ha":972,"x_min":0,"x_max":972,"o":"m 486 71 q 437 50 457 71 q 417 1 417 29 q 437 -48 417 -28 q 486 -68 457 -68 q 535 -48 515 -68 q 556 1 556 -28 q 535 50 556 29 q 486 71 515 71 m 486 210 q 437 189 457 210 q 417 140 417 168 q 437 91 417 111 q 486 71 457 71 q 535 91 515 71 q 556 140 556 111 q 535 189 556 168 q 486 210 515 210 m 486 349 q 437 328 457 349 q 417 279 417 307 q 437 230 417 250 q 486 210 457 210 q 535 230 515 210 q 556 279 556 250 q 535 328 556 307 q 486 349 515 349 m 486 488 q 437 467 457 488 q 417 418 417 446 q 437 369 417 389 q 486 349 457 349 q 535 369 515 349 q 556 418 556 389 q 535 467 556 446 q 486 488 515 488 m 486 626 q 437 606 457 626 q 417 557 417 585 q 437 508 417 528 q 486 488 457 488 q 535 508 515 488 q 556 557 556 528 q 535 606 556 585 q 486 626 515 626 m 69 1043 q 20 1022 40 1043 q 0 974 0 1001 q 20 924 0 944 q 69 904 40 904 q 119 924 99 904 q 139 974 139 944 q 119 1022 139 1001 q 69 1043 99 1043 m 486 765 q 437 744 457 765 q 417 696 417 724 q 437 647 417 667 q 486 626 457 626 q 535 647 515 626 q 556 696 556 667 q 535 744 556 724 q 486 765 515 765 m 208 1043 q 159 1022 179 1043 q 139 974 139 1001 q 159 924 139 944 q 208 904 179 904 q 258 924 238 904 q 278 974 278 944 q 258 1022 278 1001 q 208 1043 238 1043 m 486 904 q 437 883 457 904 q 417 835 417 863 q 437 785 417 806 q 486 765 457 765 q 535 785 515 765 q 556 835 556 806 q 535 883 556 863 q 486 904 515 904 m 347 1043 q 298 1022 318 1043 q 278 974 278 1001 q 298 924 278 944 q 347 904 318 904 q 397 924 376 904 q 417 974 417 944 q 397 1022 417 1001 q 347 1043 376 1043 m 486 1043 q 437 1022 457 1043 q 417 974 417 1001 q 437 924 417 944 q 486 904 457 904 q 535 924 515 904 q 556 974 556 944 q 535 1022 556 1001 q 486 1043 515 1043 m 625 1043 q 576 1022 596 1043 q 556 974 556 1001 q 576 924 556 944 q 625 904 596 904 q 674 924 654 904 q 694 974 694 944 q 674 1022 694 1001 q 625 1043 654 1043 m 764 1043 q 715 1022 735 1043 q 694 974 694 1001 q 715 924 694 944 q 764 904 735 904 q 813 924 793 904 q 833 974 833 944 q 813 1022 833 1001 q 764 1043 793 1043 m 903 1043 q 853 1022 874 1043 q 833 974 833 1001 q 853 924 833 944 q 903 904 874 904 q 952 924 932 904 q 972 974 972 944 q 952 1022 972 1001 q 903 1043 932 1043 z "},"U":{"ha":950,"x_min":69,"x_max":881,"o":"m 281 111 q 231 91 251 111 q 211 42 211 71 q 231 -8 211 13 q 281 -28 251 -28 q 330 -8 310 -28 q 350 42 350 13 q 330 91 350 71 q 281 111 310 111 m 193 218 q 144 197 164 218 q 124 149 124 176 q 144 99 124 119 q 193 79 164 79 q 242 99 222 79 q 263 149 263 119 q 242 197 263 176 q 193 218 222 218 m 404 50 q 355 30 375 50 q 335 -19 335 10 q 355 -68 335 -47 q 404 -89 375 -89 q 453 -68 433 -89 q 474 -19 474 -47 q 453 30 474 10 q 404 50 433 50 m 150 350 q 101 329 121 350 q 81 281 81 308 q 101 231 81 251 q 150 211 121 211 q 199 231 178 211 q 219 281 219 251 q 199 329 219 308 q 150 350 178 350 m 543 51 q 494 31 514 51 q 474 -18 474 11 q 494 -67 474 -46 q 543 -87 514 -87 q 592 -67 571 -87 q 613 -18 613 -46 q 592 31 613 11 q 543 51 571 51 m 139 488 q 90 467 110 488 q 69 418 69 446 q 90 369 69 389 q 139 349 110 349 q 188 369 168 349 q 208 418 208 389 q 188 467 208 446 q 139 488 168 488 m 139 626 q 90 606 110 626 q 69 557 69 585 q 90 508 69 528 q 139 488 110 488 q 188 508 168 488 q 208 557 208 528 q 188 606 208 585 q 139 626 168 626 m 667 113 q 617 92 638 113 q 597 43 597 71 q 617 -6 597 14 q 667 -26 638 -26 q 715 -6 694 -26 q 736 43 736 14 q 715 92 736 71 q 667 113 694 113 m 139 765 q 90 744 110 765 q 69 696 69 724 q 90 647 69 667 q 139 626 110 626 q 188 647 168 626 q 208 696 208 667 q 188 744 208 724 q 139 765 168 765 m 754 218 q 706 198 726 218 q 685 149 685 178 q 706 100 685 121 q 754 79 726 79 q 803 100 783 79 q 824 149 824 121 q 803 198 824 178 q 754 218 783 218 m 139 904 q 90 883 110 904 q 69 835 69 863 q 90 785 69 806 q 139 765 110 765 q 188 785 168 765 q 208 835 208 806 q 188 883 208 863 q 139 904 168 904 m 800 349 q 751 328 771 349 q 731 279 731 308 q 751 230 731 250 q 800 210 771 210 q 849 230 828 210 q 869 279 869 250 q 849 328 869 308 q 800 349 828 349 m 139 1043 q 90 1022 110 1043 q 69 974 69 1001 q 90 924 69 944 q 139 904 110 904 q 188 924 168 904 q 208 974 208 944 q 188 1022 208 1001 q 139 1043 168 1043 m 811 488 q 762 467 782 488 q 742 418 742 446 q 762 369 742 389 q 811 349 782 349 q 860 369 840 349 q 881 418 881 389 q 860 467 881 446 q 811 488 840 488 m 811 626 q 762 606 782 626 q 742 557 742 585 q 762 508 742 528 q 811 488 782 488 q 860 508 840 488 q 881 557 881 528 q 860 606 881 585 q 811 626 840 626 m 811 765 q 762 744 782 765 q 742 696 742 724 q 762 647 742 667 q 811 626 782 626 q 860 647 840 626 q 881 696 881 667 q 860 744 881 724 q 811 765 840 765 m 811 904 q 762 883 782 904 q 742 835 742 863 q 762 785 742 806 q 811 765 782 765 q 860 785 840 765 q 881 835 881 806 q 860 883 881 863 q 811 904 840 904 m 811 1043 q 762 1022 782 1043 q 742 974 742 1001 q 762 924 742 944 q 811 904 782 904 q 860 924 840 904 q 881 974 881 944 q 860 1022 881 1001 q 811 1043 840 1043 z "},"V":{"ha":1238,"x_min":28,"x_max":1210,"o":"m 683 185 q 733 164 713 185 q 753 115 753 143 q 733 66 753 86 q 683 46 713 46 q 619 90 636 46 q 554 46 601 46 q 505 66 525 46 q 485 115 485 86 q 505 164 485 143 q 554 185 525 185 q 619 139 601 185 q 683 185 636 185 m 619 61 q 570 41 590 61 q 550 -8 550 21 q 570 -57 550 -36 q 619 -78 590 -78 q 668 -57 647 -78 q 689 -8 689 -36 q 668 41 689 21 q 619 61 647 61 m 489 307 q 440 287 460 307 q 419 238 419 267 q 440 188 419 208 q 489 168 460 168 q 538 188 517 168 q 558 238 558 208 q 538 287 558 267 q 489 307 517 307 m 424 429 q 374 409 394 429 q 354 360 354 389 q 374 310 354 331 q 424 290 394 290 q 472 310 451 290 q 493 360 493 331 q 472 409 493 389 q 424 429 451 429 m 358 551 q 309 531 329 551 q 289 482 289 511 q 309 433 289 454 q 358 413 329 413 q 407 433 386 413 q 428 482 428 454 q 407 531 428 511 q 358 551 386 551 m 293 675 q 244 654 264 675 q 224 606 224 633 q 244 556 224 576 q 293 536 264 536 q 342 556 322 536 q 363 606 363 576 q 342 654 363 633 q 293 675 322 675 m 228 797 q 178 777 199 797 q 158 728 158 757 q 178 678 158 699 q 228 658 199 658 q 277 678 257 658 q 297 728 297 699 q 277 777 297 757 q 228 797 257 797 m 749 307 q 700 287 721 307 q 679 238 679 267 q 700 188 679 208 q 749 168 721 168 q 798 188 778 168 q 818 238 818 208 q 798 287 818 267 q 749 307 778 307 m 163 919 q 113 899 133 919 q 93 850 93 879 q 113 801 93 822 q 163 781 133 781 q 212 801 192 781 q 232 850 232 822 q 212 899 232 879 q 163 919 192 919 m 97 1043 q 48 1022 68 1043 q 28 974 28 1001 q 48 924 28 944 q 97 904 68 904 q 147 924 126 904 q 167 974 167 944 q 147 1022 167 1001 q 97 1043 126 1043 m 814 429 q 765 409 786 429 q 744 360 744 389 q 765 310 744 331 q 814 290 786 290 q 863 310 843 290 q 883 360 883 331 q 863 409 883 389 q 814 429 843 429 m 879 551 q 831 531 851 551 q 810 482 810 511 q 831 433 810 454 q 879 413 851 413 q 928 433 908 413 q 949 482 949 454 q 928 531 949 511 q 879 551 908 551 m 944 675 q 895 654 915 675 q 875 606 875 633 q 895 556 875 576 q 944 536 915 536 q 994 556 974 536 q 1014 606 1014 576 q 994 654 1014 633 q 944 675 974 675 m 1010 797 q 960 777 981 797 q 940 728 940 757 q 960 678 940 699 q 1010 658 981 658 q 1059 678 1039 658 q 1079 728 1079 699 q 1059 777 1079 757 q 1010 797 1039 797 m 1075 919 q 1026 899 1046 919 q 1006 850 1006 879 q 1026 801 1006 822 q 1075 781 1046 781 q 1124 801 1104 781 q 1144 850 1144 822 q 1124 899 1144 879 q 1075 919 1104 919 m 1140 1043 q 1091 1022 1111 1043 q 1071 974 1071 1001 q 1091 924 1071 944 q 1140 904 1111 904 q 1190 924 1169 904 q 1210 974 1210 944 q 1190 1022 1210 1001 q 1140 1043 1169 1043 z "},"W":{"ha":1629,"x_min":28,"x_max":1601,"o":"m 879 551 q 928 531 908 551 q 949 482 949 511 q 928 433 949 454 q 879 413 908 413 q 814 458 831 413 q 749 413 797 413 q 700 433 721 413 q 679 482 679 454 q 700 531 679 511 q 749 551 721 551 q 814 507 797 551 q 879 551 831 551 m 879 307 q 928 287 908 307 q 949 238 949 267 q 928 188 949 208 q 879 168 908 168 q 814 214 831 168 q 749 168 797 168 q 700 188 721 168 q 679 238 679 208 q 700 287 679 267 q 749 307 721 307 q 814 261 797 307 q 879 307 831 307 m 1075 185 q 1124 164 1104 185 q 1144 115 1144 143 q 1124 66 1144 86 q 1075 46 1104 46 q 1010 90 1026 46 q 944 46 993 46 q 895 66 915 46 q 875 115 875 86 q 895 164 875 143 q 944 185 915 185 q 1010 139 993 185 q 1075 185 1026 185 m 683 185 q 733 164 713 185 q 753 115 753 143 q 733 66 753 86 q 683 46 713 46 q 619 90 636 46 q 554 46 601 46 q 505 66 525 46 q 485 115 485 86 q 505 164 485 143 q 554 185 525 185 q 619 139 601 185 q 683 185 636 185 m 619 61 q 570 41 590 61 q 550 -8 550 21 q 570 -57 550 -36 q 619 -78 590 -78 q 668 -57 647 -78 q 689 -8 689 -36 q 668 41 689 21 q 619 61 647 61 m 489 307 q 440 287 460 307 q 419 238 419 267 q 440 188 419 208 q 489 168 460 168 q 538 188 517 168 q 558 238 558 208 q 538 287 558 267 q 489 307 517 307 m 424 429 q 374 409 394 429 q 354 360 354 389 q 374 310 354 331 q 424 290 394 290 q 472 310 451 290 q 493 360 493 331 q 472 409 493 389 q 424 429 451 429 m 358 551 q 309 531 329 551 q 289 482 289 511 q 309 433 289 454 q 358 413 329 413 q 407 433 386 413 q 428 482 428 454 q 407 531 428 511 q 358 551 386 551 m 293 675 q 244 654 264 675 q 224 606 224 633 q 244 556 224 576 q 293 536 264 536 q 342 556 322 536 q 363 606 363 576 q 342 654 363 633 q 293 675 322 675 m 228 797 q 178 777 199 797 q 158 728 158 757 q 178 678 158 699 q 228 658 199 658 q 277 678 257 658 q 297 728 297 699 q 277 777 297 757 q 228 797 257 797 m 1010 61 q 960 41 981 61 q 940 -8 940 21 q 960 -57 940 -36 q 1010 -78 981 -78 q 1059 -57 1039 -78 q 1079 -8 1079 -36 q 1059 41 1079 21 q 1010 61 1039 61 m 163 919 q 113 899 133 919 q 93 850 93 879 q 113 801 93 822 q 163 781 133 781 q 212 801 192 781 q 232 850 232 822 q 212 899 232 879 q 163 919 192 919 m 97 1043 q 48 1022 68 1043 q 28 974 28 1001 q 48 924 28 944 q 97 904 68 904 q 147 924 126 904 q 167 974 167 944 q 147 1022 167 1001 q 97 1043 126 1043 m 814 429 q 765 409 786 429 q 744 360 744 389 q 765 310 744 331 q 814 290 786 290 q 863 310 843 290 q 883 360 883 331 q 863 409 883 389 q 814 429 843 429 m 683 675 q 635 654 656 675 q 614 606 614 633 q 635 556 614 576 q 683 536 656 536 q 733 556 713 536 q 753 606 753 576 q 733 654 753 633 q 683 675 713 675 m 619 797 q 570 777 590 797 q 550 728 550 757 q 570 678 550 699 q 619 658 590 658 q 668 678 647 658 q 689 728 689 699 q 668 777 689 757 q 619 797 647 797 m 1140 307 q 1091 287 1111 307 q 1071 238 1071 267 q 1091 188 1071 208 q 1140 168 1111 168 q 1190 188 1169 168 q 1210 238 1210 208 q 1190 287 1210 267 q 1140 307 1169 307 m 554 919 q 505 899 525 919 q 485 850 485 879 q 505 801 485 822 q 554 781 525 781 q 603 801 582 781 q 624 850 624 822 q 603 899 624 879 q 554 919 582 919 m 489 1043 q 440 1022 460 1043 q 419 974 419 1001 q 440 924 419 944 q 489 904 460 904 q 538 924 517 904 q 558 974 558 944 q 538 1022 558 1001 q 489 1043 517 1043 m 944 675 q 895 654 915 675 q 875 606 875 633 q 895 556 875 576 q 944 536 915 536 q 994 556 974 536 q 1014 606 1014 576 q 994 654 1014 633 q 944 675 974 675 m 1206 429 q 1156 409 1176 429 q 1136 360 1136 389 q 1156 310 1136 331 q 1206 290 1176 290 q 1255 310 1235 290 q 1275 360 1275 331 q 1255 409 1275 389 q 1206 429 1235 429 m 1010 797 q 960 777 981 797 q 940 728 940 757 q 960 678 940 699 q 1010 658 981 658 q 1059 678 1039 658 q 1079 728 1079 699 q 1059 777 1079 757 q 1010 797 1039 797 m 1271 551 q 1222 531 1242 551 q 1201 482 1201 511 q 1222 433 1201 454 q 1271 413 1242 413 q 1320 433 1300 413 q 1340 482 1340 454 q 1320 531 1340 511 q 1271 551 1300 551 m 1075 919 q 1026 899 1046 919 q 1006 850 1006 879 q 1026 801 1006 822 q 1075 781 1046 781 q 1124 801 1104 781 q 1144 850 1144 822 q 1124 899 1144 879 q 1075 919 1104 919 m 1336 675 q 1287 654 1307 675 q 1267 606 1267 633 q 1287 556 1267 576 q 1336 536 1307 536 q 1385 556 1365 536 q 1406 606 1406 576 q 1385 654 1406 633 q 1336 675 1365 675 m 1140 1043 q 1091 1022 1111 1043 q 1071 974 1071 1001 q 1091 924 1071 944 q 1140 904 1111 904 q 1190 924 1169 904 q 1210 974 1210 944 q 1190 1022 1210 1001 q 1140 1043 1169 1043 m 1401 797 q 1352 777 1372 797 q 1332 728 1332 757 q 1352 678 1332 699 q 1401 658 1372 658 q 1451 678 1431 658 q 1471 728 1471 699 q 1451 777 1471 757 q 1401 797 1431 797 m 1467 919 q 1417 899 1438 919 q 1397 850 1397 879 q 1417 801 1397 822 q 1467 781 1438 781 q 1515 801 1494 781 q 1536 850 1536 822 q 1515 899 1536 879 q 1467 919 1494 919 m 1532 1043 q 1483 1022 1503 1043 q 1463 974 1463 1001 q 1483 924 1463 944 q 1532 904 1503 904 q 1581 924 1560 904 q 1601 974 1601 944 q 1581 1022 1601 1001 q 1532 1043 1560 1043 z "},"X":{"ha":1094,"x_min":42,"x_max":1053,"o":"m 111 71 q 62 50 82 71 q 42 1 42 29 q 62 -48 42 -28 q 111 -68 82 -68 q 160 -48 140 -68 q 181 1 181 -28 q 160 50 181 29 q 111 71 140 71 m 199 178 q 149 158 169 178 q 129 108 129 138 q 149 60 129 81 q 199 39 169 39 q 248 60 228 39 q 268 108 268 81 q 248 158 268 138 q 199 178 228 178 m 286 286 q 237 266 257 286 q 217 217 217 246 q 237 167 217 188 q 286 147 257 147 q 335 167 314 147 q 356 217 356 188 q 335 266 356 246 q 286 286 314 286 m 372 394 q 324 374 344 394 q 303 325 303 354 q 324 276 303 296 q 372 256 344 256 q 422 276 401 256 q 442 325 442 296 q 422 374 442 354 q 372 394 401 394 m 460 503 q 411 482 432 503 q 390 433 390 461 q 411 384 390 404 q 460 364 432 364 q 509 384 489 364 q 529 433 529 404 q 509 482 529 461 q 460 503 489 503 m 983 71 q 934 50 954 71 q 914 1 914 29 q 934 -48 914 -28 q 983 -68 954 -68 q 1033 -48 1013 -68 q 1053 1 1053 -28 q 1033 50 1053 29 q 983 71 1013 71 m 896 178 q 847 158 868 178 q 826 108 826 138 q 847 60 826 81 q 896 39 868 39 q 945 60 925 39 q 965 108 965 81 q 945 158 965 138 q 896 178 925 178 m 808 286 q 760 266 781 286 q 739 217 739 246 q 760 167 739 188 q 808 147 781 147 q 858 167 838 147 q 878 217 878 188 q 858 266 878 246 q 808 286 838 286 m 722 394 q 673 374 693 394 q 653 325 653 354 q 673 276 653 296 q 722 256 693 256 q 771 276 750 256 q 792 325 792 296 q 771 374 792 354 q 722 394 750 394 m 635 503 q 585 482 606 503 q 565 433 565 461 q 585 384 565 404 q 635 364 606 364 q 684 384 664 364 q 704 433 704 404 q 684 482 704 461 q 635 503 664 503 m 547 610 q 498 590 518 610 q 478 540 478 569 q 498 492 478 513 q 547 471 518 471 q 597 492 576 471 q 617 540 617 513 q 597 590 617 569 q 547 610 576 610 m 460 718 q 411 698 432 718 q 390 649 390 678 q 411 599 390 619 q 460 579 432 579 q 509 599 489 579 q 529 649 529 619 q 509 698 529 678 q 460 718 489 718 m 372 826 q 324 806 344 826 q 303 757 303 786 q 324 708 303 728 q 372 688 344 688 q 422 708 401 688 q 442 757 442 728 q 422 806 442 786 q 372 826 401 826 m 286 935 q 237 914 257 935 q 217 865 217 893 q 237 816 217 836 q 286 796 257 796 q 335 816 314 796 q 356 865 356 836 q 335 914 356 893 q 286 935 314 935 m 199 1043 q 149 1022 169 1043 q 129 974 129 1001 q 149 924 129 944 q 199 904 169 904 q 248 924 228 904 q 268 974 268 944 q 248 1022 268 1001 q 199 1043 228 1043 m 635 718 q 585 698 606 718 q 565 649 565 678 q 585 599 565 619 q 635 579 606 579 q 684 599 664 579 q 704 649 704 619 q 684 698 704 678 q 635 718 664 718 m 722 826 q 673 806 693 826 q 653 757 653 786 q 673 708 653 728 q 722 688 693 688 q 771 708 750 688 q 792 757 792 728 q 771 806 792 786 q 722 826 750 826 m 808 935 q 760 914 781 935 q 739 865 739 893 q 760 816 739 836 q 808 796 781 796 q 858 816 838 796 q 878 865 878 836 q 858 914 878 893 q 808 935 838 935 m 896 1043 q 847 1022 868 1043 q 826 974 826 1001 q 847 924 826 944 q 896 904 868 904 q 945 924 925 904 q 965 974 965 944 q 945 1022 965 1001 q 896 1043 925 1043 z "},"Y":{"ha":1029,"x_min":28,"x_max":1001,"o":"m 515 71 q 466 50 486 71 q 446 1 446 29 q 466 -48 446 -28 q 515 -68 486 -68 q 564 -48 543 -68 q 585 1 585 -28 q 564 50 585 29 q 515 71 543 71 m 515 210 q 466 189 486 210 q 446 140 446 168 q 466 91 446 111 q 515 71 486 71 q 564 91 543 71 q 585 140 585 111 q 564 189 585 168 q 515 210 543 210 m 515 349 q 466 328 486 349 q 446 279 446 307 q 466 230 446 250 q 515 210 486 210 q 564 230 543 210 q 585 279 585 250 q 564 328 585 307 q 515 349 543 349 m 515 488 q 466 467 486 488 q 446 418 446 446 q 466 369 446 389 q 515 349 486 349 q 564 369 543 349 q 585 418 585 389 q 564 467 585 446 q 515 488 543 488 m 432 599 q 383 578 403 599 q 363 529 363 557 q 383 480 363 500 q 432 460 403 460 q 481 480 460 460 q 501 529 501 500 q 481 578 501 557 q 432 599 460 599 m 347 710 q 299 689 319 710 q 278 640 278 668 q 299 591 278 611 q 347 571 319 571 q 397 591 376 571 q 417 640 417 611 q 397 689 417 668 q 347 710 376 710 m 264 821 q 215 800 236 821 q 194 751 194 779 q 215 702 194 722 q 264 682 236 682 q 313 702 293 682 q 333 751 333 722 q 313 800 333 779 q 264 821 293 821 m 181 932 q 131 911 151 932 q 111 863 111 890 q 131 813 111 833 q 181 793 151 793 q 230 813 210 793 q 250 863 250 833 q 230 911 250 890 q 181 932 210 932 m 97 1043 q 48 1022 68 1043 q 28 974 28 1001 q 48 924 28 944 q 97 904 68 904 q 147 924 126 904 q 167 974 167 944 q 147 1022 167 1001 q 97 1043 126 1043 m 599 599 q 549 578 569 599 q 529 529 529 557 q 549 480 529 500 q 599 460 569 460 q 648 480 628 460 q 668 529 668 500 q 648 578 668 557 q 599 599 628 599 m 682 710 q 633 689 653 710 q 613 640 613 668 q 633 591 613 611 q 682 571 653 571 q 731 591 711 571 q 751 640 751 611 q 731 689 751 668 q 682 710 711 710 m 765 821 q 716 800 736 821 q 696 751 696 779 q 716 702 696 722 q 765 682 736 682 q 815 702 794 682 q 835 751 835 722 q 815 800 835 779 q 765 821 794 821 m 849 932 q 800 911 821 932 q 779 863 779 890 q 800 813 779 833 q 849 793 821 793 q 898 813 878 793 q 918 863 918 833 q 898 911 918 890 q 849 932 878 932 m 932 1043 q 883 1022 904 1043 q 863 974 863 1001 q 883 924 863 944 q 932 904 904 904 q 981 924 961 904 q 1001 974 1001 944 q 981 1022 1001 1001 q 932 1043 961 1043 z "},"Z":{"ha":1028,"x_min":28,"x_max":1000,"o":"m 743 1043 q 792 1022 772 1043 q 813 974 813 1001 q 801 935 813 951 q 846 912 828 932 q 864 865 864 892 q 844 816 864 836 q 794 796 824 796 q 746 816 767 796 q 725 865 725 836 q 738 904 725 886 q 692 926 711 906 q 674 974 674 946 q 694 1022 674 1001 q 743 1043 715 1043 m 185 178 q 234 158 214 178 q 254 108 254 138 q 242 69 254 88 q 288 48 269 68 q 306 1 306 28 q 285 -48 306 -28 q 236 -68 265 -68 q 187 -48 207 -68 q 167 1 167 -28 q 179 39 167 22 q 133 62 151 42 q 115 108 115 82 q 135 158 115 138 q 185 178 156 178 m 97 71 q 48 50 68 71 q 28 1 28 29 q 48 -48 28 -28 q 97 -68 68 -68 q 147 -48 126 -68 q 167 1 167 -28 q 147 50 167 29 q 97 71 126 71 m 375 71 q 326 50 346 71 q 306 1 306 29 q 326 -48 306 -28 q 375 -68 346 -68 q 424 -48 404 -68 q 444 1 444 -28 q 424 50 444 29 q 375 71 404 71 m 272 286 q 223 266 243 286 q 203 217 203 246 q 223 167 203 188 q 272 147 243 147 q 321 167 300 147 q 342 217 342 188 q 321 266 342 246 q 272 286 300 286 m 514 71 q 465 50 485 71 q 444 1 444 29 q 465 -48 444 -28 q 514 -68 485 -68 q 563 -48 543 -68 q 583 1 583 -28 q 563 50 583 29 q 514 71 543 71 m 653 71 q 603 50 624 71 q 583 1 583 29 q 603 -48 583 -28 q 653 -68 624 -68 q 702 -48 682 -68 q 722 1 722 -28 q 702 50 722 29 q 653 71 682 71 m 358 394 q 310 374 331 394 q 289 325 289 354 q 310 276 289 296 q 358 256 331 256 q 408 276 388 256 q 428 325 428 296 q 408 374 428 354 q 358 394 388 394 m 792 71 q 742 50 763 71 q 722 1 722 29 q 742 -48 722 -28 q 792 -68 763 -68 q 841 -48 821 -68 q 861 1 861 -28 q 841 50 861 29 q 792 71 821 71 m 446 503 q 397 482 418 503 q 376 433 376 461 q 397 384 376 404 q 446 364 418 364 q 495 384 475 364 q 515 433 515 404 q 495 482 515 461 q 446 503 475 503 m 931 71 q 881 50 901 71 q 861 1 861 29 q 881 -48 861 -28 q 931 -68 901 -68 q 980 -48 960 -68 q 1000 1 1000 -28 q 980 50 1000 29 q 931 71 960 71 m 533 610 q 484 590 504 610 q 464 540 464 569 q 484 492 464 513 q 533 471 504 471 q 583 492 563 471 q 603 540 603 513 q 583 590 603 569 q 533 610 563 610 m 188 1043 q 139 1022 160 1043 q 118 974 118 1001 q 139 924 118 944 q 188 904 160 904 q 237 924 217 904 q 257 974 257 944 q 237 1022 257 1001 q 188 1043 217 1043 m 621 718 q 572 698 592 718 q 551 649 551 678 q 572 599 551 619 q 621 579 592 579 q 670 599 650 579 q 690 649 690 619 q 670 698 690 678 q 621 718 650 718 m 326 1043 q 278 1022 299 1043 q 257 974 257 1001 q 278 924 257 944 q 326 904 299 904 q 376 924 356 904 q 396 974 396 944 q 376 1022 396 1001 q 326 1043 356 1043 m 465 1043 q 417 1022 438 1043 q 396 974 396 1001 q 417 924 396 944 q 465 904 438 904 q 515 924 494 904 q 535 974 535 944 q 515 1022 535 1001 q 465 1043 494 1043 m 708 826 q 659 806 679 826 q 639 757 639 786 q 659 708 639 728 q 708 688 679 688 q 757 708 736 688 q 778 757 778 728 q 757 806 778 786 q 708 826 736 826 m 604 1043 q 556 1022 576 1043 q 535 974 535 1001 q 556 924 535 944 q 604 904 576 904 q 653 924 633 904 q 674 974 674 944 q 653 1022 674 1001 q 604 1043 633 1043 m 882 1043 q 833 1022 854 1043 q 813 974 813 1001 q 833 924 813 944 q 882 904 854 904 q 931 924 911 904 q 951 974 951 944 q 931 1022 951 1001 q 882 1043 911 1043 z "},"[":{"ha":417,"x_min":69,"x_max":347,"o":"m 139 -68 q 90 -89 110 -68 q 69 -137 69 -110 q 90 -187 69 -167 q 139 -207 110 -207 q 188 -187 168 -207 q 208 -137 208 -167 q 188 -89 208 -110 q 139 -68 168 -68 m 278 -68 q 228 -89 249 -68 q 208 -137 208 -110 q 228 -187 208 -167 q 278 -207 249 -207 q 327 -187 307 -207 q 347 -137 347 -167 q 327 -89 347 -110 q 278 -68 307 -68 m 139 71 q 90 50 110 71 q 69 1 69 29 q 90 -48 69 -28 q 139 -68 110 -68 q 188 -48 168 -68 q 208 1 208 -28 q 188 50 208 29 q 139 71 168 71 m 139 210 q 90 189 110 210 q 69 140 69 168 q 90 91 69 111 q 139 71 110 71 q 188 91 168 71 q 208 140 208 111 q 188 189 208 168 q 139 210 168 210 m 139 349 q 90 328 110 349 q 69 279 69 307 q 90 230 69 250 q 139 210 110 210 q 188 230 168 210 q 208 279 208 250 q 188 328 208 307 q 139 349 168 349 m 139 488 q 90 467 110 488 q 69 418 69 446 q 90 369 69 389 q 139 349 110 349 q 188 369 168 349 q 208 418 208 389 q 188 467 208 446 q 139 488 168 488 m 139 626 q 90 606 110 626 q 69 557 69 585 q 90 508 69 528 q 139 488 110 488 q 188 508 168 488 q 208 557 208 528 q 188 606 208 585 q 139 626 168 626 m 139 765 q 90 744 110 765 q 69 696 69 724 q 90 647 69 667 q 139 626 110 626 q 188 647 168 626 q 208 696 208 667 q 188 744 208 724 q 139 765 168 765 m 139 904 q 90 883 110 904 q 69 835 69 863 q 90 785 69 806 q 139 765 110 765 q 188 785 168 765 q 208 835 208 806 q 188 883 208 863 q 139 904 168 904 m 139 1043 q 90 1022 110 1043 q 69 974 69 1001 q 90 924 69 944 q 139 904 110 904 q 188 924 168 904 q 208 974 208 944 q 188 1022 208 1001 q 139 1043 168 1043 m 278 1043 q 228 1022 249 1043 q 208 974 208 1001 q 228 924 208 944 q 278 904 249 904 q 327 924 307 904 q 347 974 347 944 q 327 1022 347 1001 q 278 1043 307 1043 z "},"\\":{"ha":788,"x_min":56,"x_max":732,"o":"m 663 69 q 613 49 633 69 q 593 0 593 29 q 613 -49 593 -28 q 663 -69 633 -69 q 712 -49 692 -69 q 732 0 732 -28 q 712 49 732 29 q 663 69 692 69 m 596 192 q 547 172 567 192 q 526 122 526 151 q 547 73 526 93 q 596 53 567 53 q 644 73 624 53 q 665 122 665 93 q 644 172 665 151 q 596 192 624 192 m 528 313 q 479 292 500 313 q 458 243 458 272 q 479 194 458 215 q 528 174 500 174 q 577 194 557 174 q 597 243 597 215 q 577 292 597 272 q 528 313 557 313 m 461 435 q 412 415 432 435 q 392 365 392 394 q 412 316 392 336 q 461 296 432 296 q 510 316 490 296 q 531 365 531 336 q 510 415 531 394 q 461 435 490 435 m 394 556 q 345 535 365 556 q 325 488 325 515 q 345 438 325 458 q 394 417 365 417 q 443 438 422 417 q 464 486 464 458 q 443 535 464 515 q 394 556 422 556 m 326 678 q 277 658 297 678 q 257 608 257 638 q 277 559 257 579 q 326 539 297 539 q 376 559 356 539 q 396 608 396 579 q 376 658 396 638 q 326 678 356 678 m 260 799 q 210 778 231 799 q 190 731 190 758 q 210 681 190 701 q 260 660 231 660 q 308 681 288 660 q 329 729 329 701 q 309 778 329 758 q 260 799 289 799 m 192 921 q 143 901 164 921 q 122 851 122 881 q 143 802 122 822 q 192 782 164 782 q 241 802 221 782 q 261 851 261 822 q 241 901 261 881 q 192 921 221 921 m 125 1042 q 76 1022 96 1042 q 56 972 56 1001 q 76 923 56 943 q 125 903 96 903 q 174 923 154 903 q 194 972 194 943 q 174 1022 194 1001 q 125 1042 154 1042 z "},"]":{"ha":417,"x_min":69,"x_max":347,"o":"m 139 -68 q 90 -89 110 -68 q 69 -137 69 -110 q 90 -187 69 -167 q 139 -207 110 -207 q 188 -187 168 -207 q 208 -137 208 -167 q 188 -89 208 -110 q 139 -68 168 -68 m 278 -68 q 228 -89 249 -68 q 208 -137 208 -110 q 228 -187 208 -167 q 278 -207 249 -207 q 327 -187 307 -207 q 347 -137 347 -167 q 327 -89 347 -110 q 278 -68 307 -68 m 278 71 q 228 50 249 71 q 208 1 208 29 q 228 -48 208 -28 q 278 -68 249 -68 q 327 -48 307 -68 q 347 1 347 -28 q 327 50 347 29 q 278 71 307 71 m 278 210 q 228 189 249 210 q 208 140 208 168 q 228 91 208 111 q 278 71 249 71 q 327 91 307 71 q 347 140 347 111 q 327 189 347 168 q 278 210 307 210 m 278 349 q 228 328 249 349 q 208 279 208 307 q 228 230 208 250 q 278 210 249 210 q 327 230 307 210 q 347 279 347 250 q 327 328 347 307 q 278 349 307 349 m 278 488 q 228 467 249 488 q 208 418 208 446 q 228 369 208 389 q 278 349 249 349 q 327 369 307 349 q 347 418 347 389 q 327 467 347 446 q 278 488 307 488 m 278 626 q 228 606 249 626 q 208 557 208 585 q 228 508 208 528 q 278 488 249 488 q 327 508 307 488 q 347 557 347 528 q 327 606 347 585 q 278 626 307 626 m 278 765 q 228 744 249 765 q 208 696 208 724 q 228 647 208 667 q 278 626 249 626 q 327 647 307 626 q 347 696 347 667 q 327 744 347 724 q 278 765 307 765 m 278 904 q 228 883 249 904 q 208 835 208 863 q 228 785 208 806 q 278 765 249 765 q 327 785 307 765 q 347 835 347 806 q 327 883 347 863 q 278 904 307 904 m 139 1043 q 90 1022 110 1043 q 69 974 69 1001 q 90 924 69 944 q 139 904 110 904 q 188 924 168 904 q 208 974 208 944 q 188 1022 208 1001 q 139 1043 168 1043 m 278 1043 q 228 1022 249 1043 q 208 974 208 1001 q 228 924 208 944 q 278 904 249 904 q 327 924 307 904 q 347 974 347 944 q 327 1022 347 1001 q 278 1043 307 1043 z "},"^":{"ha":539,"x_min":69,"x_max":469,"o":"m 333 919 q 383 899 363 919 q 404 850 403 879 q 384 801 404 822 q 336 781 364 781 q 269 825 286 779 q 204 781 253 781 q 155 801 175 781 q 135 850 135 821 q 155 899 135 878 q 204 919 175 919 q 269 874 253 919 q 333 919 286 918 m 139 796 q 90 776 110 796 q 69 726 69 756 q 90 678 69 699 q 139 657 110 657 q 188 678 168 657 q 208 726 208 699 q 188 776 208 756 q 139 796 168 796 m 399 796 q 349 775 369 796 q 331 725 329 754 q 351 677 331 697 q 401 657 372 657 q 449 678 429 658 q 469 728 469 699 q 448 777 468 757 q 399 796 428 797 m 268 1042 q 219 1020 239 1040 q 200 971 199 1000 q 221 922 200 942 q 271 903 242 901 q 319 924 299 903 q 339 974 339 944 q 317 1022 338 1001 q 268 1042 297 1042 z "},"_":{"ha":667,"x_min":56,"x_max":611,"o":"m 125 -204 q 76 -225 96 -204 q 56 -274 56 -246 q 76 -323 56 -303 q 125 -343 96 -343 q 174 -323 153 -343 q 194 -274 194 -303 q 174 -225 194 -246 q 125 -204 153 -204 m 263 -204 q 214 -226 233 -206 q 194 -275 194 -247 q 215 -324 194 -304 q 265 -343 236 -344 q 314 -322 294 -343 q 333 -274 333 -301 q 313 -224 333 -244 q 263 -204 292 -204 m 401 -204 q 353 -226 372 -206 q 333 -275 333 -247 q 354 -324 333 -304 q 404 -343 375 -344 q 453 -322 433 -343 q 472 -274 472 -301 q 451 -224 472 -244 q 401 -204 431 -204 m 542 -204 q 492 -225 513 -204 q 472 -274 472 -246 q 492 -323 472 -303 q 542 -343 513 -343 q 590 -323 569 -343 q 611 -274 611 -303 q 590 -225 611 -246 q 542 -204 569 -204 z "},"`":{"ha":500,"x_min":69,"x_max":431,"o":"m 139 1043 q 90 1022 110 1043 q 69 974 69 1001 q 90 924 69 944 q 139 904 110 904 q 188 924 168 904 q 208 974 208 944 q 188 1022 208 1001 q 139 1043 168 1043 m 250 958 q 201 938 221 958 q 181 889 181 918 q 201 840 181 861 q 250 819 221 819 q 299 840 279 819 q 319 889 319 861 q 299 938 319 918 q 250 958 279 958 m 361 875 q 312 855 332 875 q 292 806 292 835 q 312 756 292 776 q 361 736 332 736 q 410 756 390 736 q 431 806 431 776 q 410 855 431 835 q 361 875 390 875 z "},"a":{"ha":929,"x_min":28,"x_max":860,"o":"m 157 215 q 108 195 128 215 q 88 146 88 175 q 108 97 88 118 q 157 76 128 76 q 206 97 186 76 q 226 146 226 118 q 206 195 226 175 q 157 215 186 215 m 257 122 q 208 102 229 122 q 188 53 188 82 q 208 3 188 24 q 257 -17 229 -17 q 306 3 286 -17 q 326 53 326 24 q 306 102 326 82 q 257 122 286 122 m 100 342 q 51 322 71 342 q 31 272 31 301 q 51 224 31 244 q 100 203 71 203 q 149 224 129 203 q 169 272 169 244 q 149 322 169 301 q 100 342 129 342 m 386 74 q 338 53 358 74 q 317 4 317 32 q 338 -45 317 -25 q 386 -65 358 -65 q 435 -45 415 -65 q 456 4 456 -25 q 435 53 456 32 q 386 74 415 74 m 97 481 q 48 460 68 481 q 28 411 28 439 q 48 362 28 382 q 97 342 68 342 q 147 362 126 342 q 167 411 167 382 q 147 460 167 439 q 97 481 126 481 m 525 79 q 476 59 496 79 q 456 10 456 39 q 476 -39 456 -18 q 525 -60 496 -60 q 574 -39 553 -60 q 594 10 594 -18 q 574 59 594 39 q 525 79 553 79 m 149 608 q 99 588 119 608 q 79 539 79 568 q 99 490 79 510 q 149 469 119 469 q 198 490 178 469 q 218 539 218 510 q 198 588 218 568 q 149 608 178 608 m 649 139 q 600 119 621 139 q 579 69 579 99 q 600 20 579 40 q 649 0 621 0 q 698 20 678 0 q 718 69 718 40 q 698 119 718 99 q 649 139 678 139 m 790 71 q 741 50 761 71 q 721 1 721 29 q 741 -48 721 -28 q 790 -68 761 -68 q 839 -48 818 -68 q 860 1 860 -28 q 839 50 860 29 q 790 71 818 71 m 246 707 q 197 687 217 707 q 176 638 176 667 q 197 588 176 608 q 246 568 217 568 q 295 588 275 568 q 315 638 315 608 q 295 687 315 667 q 246 707 275 707 m 790 210 q 741 189 761 210 q 721 140 721 168 q 741 91 721 111 q 790 71 761 71 q 839 91 818 71 q 860 140 860 111 q 839 189 860 168 q 790 210 818 210 m 374 760 q 324 740 344 760 q 304 690 304 719 q 324 641 304 661 q 374 621 344 621 q 422 641 401 621 q 443 690 443 661 q 422 740 443 719 q 374 760 401 760 m 790 349 q 741 328 761 349 q 721 279 721 307 q 741 230 721 250 q 790 210 761 210 q 839 230 818 210 q 860 279 860 250 q 839 328 860 307 q 790 349 818 349 m 790 488 q 741 467 761 488 q 721 418 721 446 q 741 369 721 389 q 790 349 761 349 q 839 369 818 349 q 860 418 860 389 q 839 467 860 446 q 790 488 818 488 m 513 765 q 463 744 483 765 q 443 696 443 724 q 463 647 443 667 q 513 626 483 626 q 561 647 540 626 q 582 696 582 667 q 561 744 582 724 q 513 765 540 765 m 790 626 q 741 606 761 626 q 721 557 721 585 q 741 508 721 528 q 790 488 761 488 q 839 508 818 488 q 860 557 860 528 q 839 606 860 585 q 790 626 818 626 m 651 765 q 602 744 622 765 q 582 696 582 724 q 602 647 582 667 q 651 626 622 626 q 700 647 679 626 q 721 696 721 667 q 700 744 721 724 q 651 765 679 765 m 790 765 q 741 744 761 765 q 721 696 721 724 q 741 647 721 667 q 790 626 761 626 q 839 647 818 626 q 860 696 860 667 q 839 744 860 724 q 790 765 818 765 z "},"b":{"ha":929,"x_min":69,"x_max":900,"o":"m 139 71 q 90 50 110 71 q 69 1 69 29 q 90 -48 69 -28 q 139 -68 110 -68 q 188 -48 168 -68 q 208 1 208 -28 q 188 50 208 29 q 139 71 168 71 m 278 71 q 228 50 249 71 q 208 1 208 29 q 228 -48 208 -28 q 278 -68 249 -68 q 327 -48 307 -68 q 347 1 347 -28 q 327 50 347 29 q 278 71 307 71 m 139 210 q 90 189 110 210 q 69 140 69 168 q 90 91 69 111 q 139 71 110 71 q 188 91 168 71 q 208 140 208 111 q 188 189 208 168 q 139 210 168 210 m 417 71 q 367 50 388 71 q 347 1 347 29 q 367 -48 347 -28 q 417 -68 388 -68 q 466 -48 446 -68 q 486 1 486 -28 q 466 50 486 29 q 417 71 446 71 m 139 349 q 90 328 110 349 q 69 279 69 307 q 90 230 69 250 q 139 210 110 210 q 188 230 168 210 q 208 279 208 250 q 188 328 208 307 q 139 349 168 349 m 139 488 q 90 467 110 488 q 69 418 69 446 q 90 369 69 389 q 139 349 110 349 q 188 369 168 349 q 208 418 208 389 q 188 467 208 446 q 139 488 168 488 m 554 76 q 506 56 526 76 q 485 7 485 35 q 506 -42 485 -22 q 554 -62 526 -62 q 603 -42 583 -62 q 624 7 624 -22 q 603 56 624 35 q 554 76 583 76 m 139 626 q 90 606 110 626 q 69 557 69 585 q 90 508 69 528 q 139 488 110 488 q 188 508 168 488 q 208 557 208 528 q 188 606 208 585 q 139 626 168 626 m 682 129 q 633 109 653 129 q 613 60 613 89 q 633 10 613 31 q 682 -10 653 -10 q 731 10 711 -10 q 751 60 751 31 q 731 109 751 89 q 682 129 711 129 m 139 765 q 90 744 110 765 q 69 696 69 724 q 90 647 69 667 q 139 626 110 626 q 188 647 168 626 q 208 696 208 667 q 188 744 208 724 q 139 765 168 765 m 279 697 q 230 677 250 697 q 210 628 210 657 q 230 578 210 599 q 279 558 250 558 q 328 578 307 558 q 349 628 349 599 q 328 677 349 657 q 279 697 307 697 m 779 228 q 730 207 750 228 q 710 158 710 186 q 730 109 710 129 q 779 89 750 89 q 828 109 808 89 q 849 158 849 129 q 828 207 849 186 q 779 228 808 228 m 139 904 q 90 883 110 904 q 69 835 69 863 q 90 785 69 806 q 139 765 110 765 q 188 785 168 765 q 208 835 208 806 q 188 883 208 863 q 139 904 168 904 m 404 756 q 355 735 375 756 q 335 686 335 715 q 355 638 335 658 q 404 617 375 617 q 453 638 433 617 q 474 686 474 658 q 453 735 474 715 q 404 756 433 756 m 139 1043 q 90 1022 110 1043 q 69 974 69 1001 q 90 924 69 944 q 139 904 110 904 q 188 924 168 904 q 208 974 208 944 q 188 1022 208 1001 q 139 1043 168 1043 m 831 356 q 781 335 801 356 q 761 286 761 315 q 781 237 761 257 q 831 217 801 217 q 880 237 860 217 q 900 286 900 257 q 880 335 900 315 q 831 356 860 356 m 542 763 q 492 742 513 763 q 472 693 472 722 q 492 644 472 664 q 542 624 513 624 q 590 644 569 624 q 611 693 611 664 q 590 742 611 722 q 542 763 569 763 m 828 493 q 778 473 799 493 q 758 424 758 453 q 778 375 758 396 q 828 354 799 354 q 877 375 857 354 q 897 424 897 396 q 877 473 897 453 q 828 493 857 493 m 671 714 q 622 694 642 714 q 601 644 601 674 q 622 596 601 617 q 671 575 642 575 q 719 596 699 575 q 740 644 740 617 q 719 694 740 674 q 671 714 699 714 m 772 619 q 723 599 743 619 q 703 550 703 579 q 723 501 703 522 q 772 481 743 481 q 821 501 800 481 q 842 550 842 522 q 821 599 842 579 q 772 619 800 619 z "},"c":{"ha":835,"x_min":28,"x_max":814,"o":"m 240 119 q 191 99 211 119 q 171 50 171 79 q 191 1 171 21 q 240 -19 211 -19 q 289 1 268 -19 q 310 50 310 21 q 289 99 310 79 q 240 119 268 119 m 146 222 q 97 201 118 222 q 76 153 76 181 q 97 103 76 124 q 146 83 118 83 q 195 103 175 83 q 215 153 215 124 q 195 201 215 181 q 146 222 175 222 m 364 58 q 315 38 335 58 q 294 -11 294 18 q 315 -60 294 -40 q 364 -81 335 -81 q 413 -60 392 -81 q 433 -11 433 -40 q 413 38 433 18 q 364 58 392 58 m 97 351 q 48 331 68 351 q 28 282 28 310 q 48 233 28 253 q 97 213 68 213 q 147 233 126 213 q 167 282 167 253 q 147 331 167 310 q 97 351 126 351 m 501 46 q 452 26 472 46 q 432 -24 432 6 q 452 -73 432 -53 q 501 -93 472 -93 q 551 -73 531 -93 q 571 -24 571 -53 q 551 26 571 6 q 501 46 531 46 m 97 489 q 48 469 68 489 q 28 419 28 449 q 48 370 28 390 q 97 350 68 350 q 147 370 126 350 q 167 419 167 390 q 147 469 167 449 q 97 489 126 489 m 635 83 q 585 63 606 83 q 565 14 565 43 q 585 -35 565 -14 q 635 -56 606 -56 q 684 -35 664 -56 q 704 14 704 -14 q 684 63 704 43 q 635 83 664 83 m 146 618 q 97 598 118 618 q 76 549 76 578 q 97 499 76 519 q 146 479 118 479 q 195 499 175 479 q 215 549 215 519 q 195 598 215 578 q 146 618 175 618 m 744 167 q 695 147 715 167 q 675 97 675 126 q 695 48 675 68 q 744 28 715 28 q 794 48 774 28 q 814 97 814 68 q 794 147 814 126 q 744 167 774 167 m 239 719 q 190 699 210 719 q 169 650 169 679 q 190 601 169 621 q 239 581 210 581 q 288 601 268 581 q 308 650 308 621 q 288 699 308 679 q 239 719 268 719 m 364 782 q 315 762 335 782 q 294 713 294 742 q 315 663 294 683 q 364 643 335 643 q 413 663 392 643 q 433 713 433 683 q 413 762 433 742 q 364 782 392 782 m 500 794 q 451 774 472 794 q 431 725 431 753 q 451 676 431 696 q 500 656 472 656 q 549 676 529 656 q 569 725 569 696 q 549 774 569 753 q 500 794 529 794 m 633 757 q 584 736 604 757 q 564 688 564 715 q 584 638 564 658 q 633 618 604 618 q 683 638 663 618 q 703 688 703 658 q 683 736 703 715 q 633 757 663 757 m 744 674 q 695 653 715 674 q 675 604 675 633 q 695 556 675 576 q 744 535 715 535 q 794 556 774 535 q 814 604 814 576 q 794 653 814 633 q 744 674 774 674 z "},"d":{"ha":928,"x_min":28,"x_max":858,"o":"m 156 215 q 107 194 128 215 q 86 146 86 174 q 107 97 86 117 q 156 76 128 76 q 205 97 185 76 q 225 146 225 117 q 205 194 225 174 q 156 215 185 215 m 257 121 q 208 100 229 121 q 188 51 188 79 q 208 2 188 22 q 257 -18 229 -18 q 306 2 286 -18 q 326 51 326 22 q 306 100 326 79 q 257 121 286 121 m 100 342 q 51 321 71 342 q 31 272 31 300 q 51 223 31 243 q 100 203 71 203 q 149 223 129 203 q 169 272 169 243 q 149 321 169 300 q 100 342 129 342 m 386 72 q 338 52 358 72 q 317 3 317 32 q 338 -47 317 -26 q 386 -67 358 -67 q 435 -47 415 -67 q 456 3 456 -26 q 435 52 456 32 q 386 72 415 72 m 97 479 q 48 459 68 479 q 28 410 28 439 q 48 360 28 381 q 97 340 68 340 q 147 360 126 340 q 167 410 167 381 q 147 459 167 439 q 97 479 126 479 m 524 79 q 474 58 494 79 q 454 10 454 38 q 474 -40 454 -19 q 524 -60 494 -60 q 573 -40 553 -60 q 593 10 593 -19 q 573 58 593 38 q 524 79 553 79 m 149 607 q 99 587 119 607 q 79 538 79 567 q 99 489 79 510 q 149 468 119 468 q 198 489 178 468 q 218 538 218 510 q 198 587 218 567 q 149 607 178 607 m 649 138 q 600 117 621 138 q 579 68 579 97 q 600 19 579 39 q 649 -1 621 -1 q 698 19 678 -1 q 718 68 718 39 q 698 117 718 97 q 649 138 678 138 m 789 71 q 740 50 760 71 q 719 1 719 29 q 740 -48 719 -28 q 789 -68 760 -68 q 838 -48 818 -68 q 858 1 858 -28 q 838 50 858 29 q 789 71 818 71 m 246 706 q 197 685 217 706 q 176 636 176 665 q 197 587 176 607 q 246 567 217 567 q 295 587 275 567 q 315 636 315 607 q 295 685 315 665 q 246 706 275 706 m 789 210 q 740 189 760 210 q 719 140 719 168 q 740 91 719 111 q 789 71 760 71 q 838 91 818 71 q 858 140 858 111 q 838 189 858 168 q 789 210 818 210 m 374 758 q 324 738 344 758 q 304 689 304 718 q 324 640 304 661 q 374 619 344 619 q 422 640 401 619 q 443 689 443 661 q 422 738 443 718 q 374 758 401 758 m 789 349 q 740 328 760 349 q 719 279 719 307 q 740 230 719 250 q 789 210 760 210 q 838 230 818 210 q 858 279 858 250 q 838 328 858 307 q 789 349 818 349 m 511 764 q 462 744 482 764 q 442 694 442 724 q 462 646 442 667 q 511 625 482 625 q 560 646 540 625 q 581 694 581 667 q 560 744 581 724 q 511 764 540 764 m 789 488 q 740 467 760 488 q 719 418 719 446 q 740 369 719 389 q 789 349 760 349 q 838 369 818 349 q 858 418 858 389 q 838 467 858 446 q 789 488 818 488 m 650 764 q 601 744 621 764 q 581 694 581 724 q 601 646 581 667 q 650 625 621 625 q 699 646 679 625 q 719 694 719 667 q 699 744 719 724 q 650 764 679 764 m 789 626 q 740 606 760 626 q 719 557 719 585 q 740 508 719 528 q 789 488 760 488 q 838 508 818 488 q 858 557 858 528 q 838 606 858 585 q 789 626 818 626 m 789 765 q 740 744 760 765 q 719 696 719 724 q 740 647 719 667 q 789 626 760 626 q 838 647 818 626 q 858 696 858 667 q 838 744 858 724 q 789 765 818 765 m 789 904 q 740 883 760 904 q 719 835 719 863 q 740 785 719 806 q 789 765 760 765 q 838 785 818 765 q 858 835 858 806 q 838 883 858 863 q 789 904 818 904 m 789 1043 q 740 1022 760 1043 q 719 974 719 1001 q 740 924 719 944 q 789 904 760 904 q 838 924 818 904 q 858 974 858 944 q 838 1022 858 1001 q 789 1043 818 1043 z "},"e":{"ha":906,"x_min":28,"x_max":878,"o":"m 218 142 q 169 122 189 142 q 149 72 149 101 q 169 23 149 43 q 218 3 189 3 q 267 23 247 3 q 288 72 288 43 q 267 122 288 101 q 218 142 247 142 m 135 251 q 85 231 106 251 q 65 182 65 211 q 85 133 65 153 q 135 113 106 113 q 184 133 164 113 q 204 182 204 153 q 184 231 204 211 q 135 251 164 251 m 335 68 q 286 48 307 68 q 265 -1 265 28 q 286 -50 265 -29 q 335 -71 307 -71 q 384 -50 364 -71 q 404 -1 404 -29 q 384 48 404 28 q 335 68 364 68 m 97 385 q 48 365 68 385 q 28 315 28 344 q 48 266 28 286 q 97 246 68 246 q 147 266 126 246 q 167 315 167 286 q 147 365 167 344 q 97 385 126 385 m 472 43 q 423 23 443 43 q 403 -26 403 3 q 423 -75 403 -54 q 472 -96 443 -96 q 522 -75 501 -96 q 542 -26 542 -54 q 522 23 542 3 q 472 43 501 43 m 110 522 q 60 502 81 522 q 40 453 40 482 q 60 404 40 425 q 110 383 81 383 q 159 404 139 383 q 179 453 179 425 q 159 502 179 482 q 110 522 139 522 m 300 353 q 251 333 271 353 q 231 283 231 313 q 251 235 231 256 q 300 214 271 214 q 349 235 329 214 q 369 283 369 256 q 349 333 369 313 q 300 353 329 353 m 608 69 q 559 49 579 69 q 539 0 539 29 q 559 -49 539 -29 q 608 -69 579 -69 q 657 -49 636 -69 q 678 0 678 -29 q 657 49 678 29 q 608 69 636 69 m 171 646 q 122 625 142 646 q 101 576 101 604 q 122 527 101 547 q 171 507 142 507 q 220 527 200 507 q 240 576 240 547 q 220 625 240 604 q 171 646 200 646 m 418 426 q 369 406 389 426 q 349 357 349 386 q 369 308 349 328 q 418 288 389 288 q 467 308 447 288 q 488 357 488 328 q 467 406 488 386 q 418 426 447 426 m 725 142 q 676 122 697 142 q 656 72 656 101 q 676 24 656 44 q 725 3 697 3 q 774 24 754 3 q 794 72 794 44 q 774 122 794 101 q 725 142 754 142 m 274 739 q 224 719 244 739 q 204 669 204 699 q 224 620 204 640 q 274 600 244 600 q 322 620 301 600 q 343 669 343 640 q 322 719 343 699 q 274 739 301 739 m 536 500 q 487 480 507 500 q 467 431 467 460 q 487 381 467 401 q 536 361 507 361 q 585 381 565 361 q 606 431 606 401 q 585 480 606 460 q 536 500 565 500 m 808 251 q 759 231 779 251 q 739 182 739 211 q 759 133 739 154 q 808 113 779 113 q 858 133 838 113 q 878 182 878 154 q 858 231 878 211 q 808 251 838 251 m 401 789 q 353 769 374 789 q 332 719 332 749 q 353 670 332 690 q 401 650 374 650 q 451 670 431 650 q 471 719 471 690 q 451 769 471 749 q 401 789 431 789 m 654 574 q 605 553 625 574 q 585 504 585 532 q 605 455 585 475 q 654 435 625 435 q 703 455 683 435 q 724 504 724 475 q 703 553 724 532 q 654 574 682 574 m 540 789 q 491 769 511 789 q 471 719 471 749 q 491 670 471 690 q 540 650 511 650 q 590 670 569 650 q 610 719 610 690 q 590 769 610 749 q 540 789 569 789 m 669 739 q 620 719 640 739 q 600 669 600 699 q 620 620 600 640 q 669 600 640 600 q 718 620 697 600 q 739 669 739 640 q 718 719 739 699 q 669 739 697 739 m 772 646 q 723 626 743 646 q 703 576 703 606 q 723 528 703 549 q 772 507 743 507 q 821 528 800 507 q 842 576 842 549 q 821 626 842 606 q 772 646 800 646 z "},"f":{"ha":583,"x_min":36,"x_max":592,"o":"m 244 71 q 195 50 215 71 q 175 1 175 29 q 195 -48 175 -28 q 244 -68 215 -68 q 294 -48 274 -68 q 314 1 314 -28 q 294 50 314 29 q 244 71 274 71 m 244 210 q 195 189 215 210 q 175 140 175 168 q 195 91 175 111 q 244 71 215 71 q 294 91 274 71 q 314 140 314 111 q 294 189 314 168 q 244 210 274 210 m 244 349 q 195 328 215 349 q 175 279 175 307 q 195 230 175 250 q 244 210 215 210 q 294 230 274 210 q 314 279 314 250 q 294 328 314 307 q 244 349 274 349 m 244 488 q 195 467 215 488 q 175 418 175 446 q 195 369 175 389 q 244 349 215 349 q 294 369 274 349 q 314 418 314 389 q 294 467 314 446 q 244 488 274 488 m 244 626 q 195 606 215 626 q 175 557 175 585 q 195 508 175 528 q 244 488 215 488 q 294 508 274 488 q 314 557 314 528 q 294 606 314 585 q 244 626 274 626 m 106 765 q 56 744 76 765 q 36 696 36 724 q 56 647 36 667 q 106 626 76 626 q 155 647 135 626 q 175 696 175 667 q 155 744 175 724 q 106 765 135 765 m 244 765 q 195 744 215 765 q 175 696 175 724 q 195 647 175 667 q 244 626 215 626 q 294 647 274 626 q 314 696 314 667 q 294 744 314 724 q 244 765 274 765 m 383 765 q 334 744 354 765 q 314 696 314 724 q 334 647 314 667 q 383 626 354 626 q 433 647 413 626 q 453 696 453 667 q 433 744 453 724 q 383 765 413 765 m 267 900 q 217 880 238 900 q 197 831 197 860 q 217 782 197 803 q 267 761 238 761 q 316 782 296 761 q 336 831 336 803 q 316 880 336 860 q 267 900 296 900 m 522 765 q 473 744 493 765 q 453 696 453 724 q 473 647 453 667 q 522 626 493 626 q 572 647 551 626 q 592 696 592 667 q 572 744 592 724 q 522 765 551 765 m 357 1003 q 308 983 329 1003 q 288 933 288 963 q 308 885 288 906 q 357 864 329 864 q 406 885 386 864 q 426 933 426 906 q 406 983 426 963 q 357 1003 386 1003 m 490 1039 q 441 1019 461 1039 q 421 969 421 999 q 441 921 421 942 q 490 900 461 900 q 539 921 518 900 q 560 969 560 942 q 539 1019 560 999 q 490 1039 518 1039 z "},"g":{"ha":928,"x_min":28,"x_max":858,"o":"m 128 -204 q 78 -225 99 -204 q 58 -274 58 -246 q 78 -323 58 -303 q 128 -343 99 -343 q 176 -323 156 -343 q 197 -274 197 -303 q 176 -225 197 -246 q 128 -204 156 -204 m 267 -204 q 217 -225 238 -204 q 197 -274 197 -246 q 217 -323 197 -303 q 267 -343 238 -343 q 315 -323 294 -343 q 336 -274 336 -303 q 315 -225 336 -246 q 267 -204 294 -204 m 406 -204 q 356 -225 376 -204 q 336 -274 336 -246 q 356 -323 336 -303 q 406 -343 376 -343 q 454 -323 433 -343 q 475 -274 475 -303 q 454 -225 475 -246 q 406 -204 433 -204 m 544 -204 q 495 -225 515 -204 q 475 -274 475 -246 q 495 -323 475 -303 q 544 -343 515 -343 q 593 -323 572 -343 q 614 -274 614 -303 q 593 -225 614 -246 q 544 -204 572 -204 m 156 215 q 107 194 128 215 q 86 146 86 174 q 107 97 86 117 q 156 76 128 76 q 205 97 185 76 q 225 146 225 117 q 205 194 225 174 q 156 215 185 215 m 257 121 q 208 100 229 121 q 188 51 188 79 q 208 2 188 22 q 257 -18 229 -18 q 306 2 286 -18 q 326 51 326 22 q 306 100 326 79 q 257 121 286 121 m 100 342 q 51 321 71 342 q 31 272 31 300 q 51 223 31 243 q 100 203 71 203 q 149 223 129 203 q 169 272 169 243 q 149 321 169 300 q 100 342 129 342 m 386 72 q 338 52 358 72 q 317 3 317 32 q 338 -47 317 -26 q 386 -67 358 -67 q 435 -47 415 -67 q 456 3 456 -26 q 435 52 456 32 q 386 72 415 72 m 676 -168 q 627 -188 647 -168 q 607 -237 607 -208 q 627 -287 607 -267 q 676 -307 647 -307 q 725 -287 704 -307 q 746 -237 746 -267 q 725 -188 746 -208 q 676 -168 704 -168 m 97 479 q 48 459 68 479 q 28 410 28 439 q 48 360 28 381 q 97 340 68 340 q 147 360 126 340 q 167 410 167 381 q 147 459 167 439 q 97 479 126 479 m 524 79 q 474 58 494 79 q 454 10 454 38 q 474 -40 454 -19 q 524 -60 494 -60 q 573 -40 553 -60 q 593 10 593 -19 q 573 58 593 38 q 524 79 553 79 m 765 -65 q 717 -86 738 -65 q 696 -135 696 -107 q 717 -184 696 -164 q 765 -204 738 -204 q 815 -184 794 -204 q 835 -135 835 -164 q 815 -86 835 -107 q 765 -65 794 -65 m 149 607 q 99 587 119 607 q 79 538 79 567 q 99 489 79 510 q 149 468 119 468 q 198 489 178 468 q 218 538 218 510 q 198 587 218 567 q 149 607 178 607 m 649 138 q 600 117 621 138 q 579 68 579 97 q 600 19 579 39 q 649 -1 621 -1 q 698 19 678 -1 q 718 68 718 39 q 698 117 718 97 q 649 138 678 138 m 789 71 q 740 50 760 71 q 719 1 719 29 q 740 -48 719 -28 q 789 -68 760 -68 q 838 -48 818 -68 q 858 1 858 -28 q 838 50 858 29 q 789 71 818 71 m 246 706 q 197 685 217 706 q 176 636 176 665 q 197 587 176 607 q 246 567 217 567 q 295 587 275 567 q 315 636 315 607 q 295 685 315 665 q 246 706 275 706 m 789 210 q 740 189 760 210 q 719 140 719 168 q 740 91 719 111 q 789 71 760 71 q 838 91 818 71 q 858 140 858 111 q 838 189 858 168 q 789 210 818 210 m 374 758 q 324 738 344 758 q 304 689 304 718 q 324 640 304 661 q 374 619 344 619 q 422 640 401 619 q 443 689 443 661 q 422 738 443 718 q 374 758 401 758 m 789 349 q 740 328 760 349 q 719 279 719 307 q 740 230 719 250 q 789 210 760 210 q 838 230 818 210 q 858 279 858 250 q 838 328 858 307 q 789 349 818 349 m 511 764 q 462 744 482 764 q 442 694 442 724 q 462 646 442 667 q 511 625 482 625 q 560 646 540 625 q 581 694 581 667 q 560 744 581 724 q 511 764 540 764 m 789 488 q 740 467 760 488 q 719 418 719 446 q 740 369 719 389 q 789 349 760 349 q 838 369 818 349 q 858 418 858 389 q 838 467 858 446 q 789 488 818 488 m 650 764 q 601 744 621 764 q 581 694 581 724 q 601 646 581 667 q 650 625 621 625 q 699 646 679 625 q 719 694 719 667 q 699 744 719 724 q 650 764 679 764 m 789 626 q 740 606 760 626 q 719 557 719 585 q 740 508 719 528 q 789 488 760 488 q 838 508 818 488 q 858 557 858 528 q 838 606 858 585 q 789 626 818 626 m 789 765 q 740 744 760 765 q 719 696 719 724 q 740 647 719 667 q 789 626 760 626 q 838 647 818 626 q 858 696 858 667 q 838 744 858 724 q 789 765 818 765 z "},"h":{"ha":914,"x_min":69,"x_max":872,"o":"m 257 700 q 306 680 285 700 q 326 631 326 660 q 306 581 326 601 q 257 561 285 561 q 208 581 228 561 q 188 631 188 601 q 189 647 188 639 q 139 626 168 626 q 90 647 110 626 q 69 696 69 667 q 90 744 69 724 q 139 765 110 765 q 188 744 168 765 q 208 696 208 724 q 207 679 208 688 q 257 700 226 700 m 139 71 q 90 50 110 71 q 69 1 69 29 q 90 -48 69 -28 q 139 -68 110 -68 q 188 -48 168 -68 q 208 1 208 -28 q 188 50 208 29 q 139 71 168 71 m 139 210 q 90 189 110 210 q 69 140 69 168 q 90 91 69 111 q 139 71 110 71 q 188 91 168 71 q 208 140 208 111 q 188 189 208 168 q 139 210 168 210 m 139 349 q 90 328 110 349 q 69 279 69 307 q 90 230 69 250 q 139 210 110 210 q 188 230 168 210 q 208 279 208 250 q 188 328 208 307 q 139 349 168 349 m 139 488 q 90 467 110 488 q 69 418 69 446 q 90 369 69 389 q 139 349 110 349 q 188 369 168 349 q 208 418 208 389 q 188 467 208 446 q 139 488 168 488 m 139 626 q 90 606 110 626 q 69 557 69 585 q 90 508 69 528 q 139 488 110 488 q 188 508 168 488 q 208 557 208 528 q 188 606 208 585 q 139 626 168 626 m 803 71 q 753 50 774 71 q 733 1 733 29 q 753 -48 733 -28 q 803 -68 774 -68 q 852 -48 832 -68 q 872 1 872 -28 q 852 50 872 29 q 803 71 832 71 m 803 210 q 753 189 774 210 q 733 140 733 168 q 753 91 733 111 q 803 71 774 71 q 852 91 832 71 q 872 140 872 111 q 852 189 872 168 q 803 210 832 210 m 139 904 q 90 883 110 904 q 69 835 69 863 q 90 785 69 806 q 139 765 110 765 q 188 785 168 765 q 208 835 208 806 q 188 883 208 863 q 139 904 168 904 m 382 757 q 333 737 354 757 q 313 688 313 717 q 333 638 313 658 q 382 618 354 618 q 431 638 411 618 q 451 688 451 658 q 431 737 451 717 q 382 757 411 757 m 803 349 q 753 328 774 349 q 733 279 733 307 q 753 230 733 250 q 803 210 774 210 q 852 230 832 210 q 872 279 872 250 q 852 328 872 307 q 803 349 832 349 m 139 1043 q 90 1022 110 1043 q 69 974 69 1001 q 90 924 69 944 q 139 904 110 904 q 188 924 168 904 q 208 974 208 944 q 188 1022 208 1001 q 139 1043 168 1043 m 521 761 q 472 741 493 761 q 451 692 451 721 q 472 643 451 664 q 521 622 493 622 q 570 643 550 622 q 590 692 590 664 q 570 741 590 721 q 521 761 550 761 m 803 488 q 753 467 774 488 q 733 418 733 446 q 753 369 733 389 q 803 349 774 349 q 852 369 832 349 q 872 418 872 389 q 852 467 872 446 q 803 488 832 488 m 650 711 q 601 691 621 711 q 581 642 581 671 q 601 592 581 613 q 650 572 621 572 q 699 592 679 572 q 719 642 719 613 q 699 691 719 671 q 650 711 679 711 m 749 614 q 699 594 719 614 q 679 544 679 574 q 699 495 679 515 q 749 475 719 475 q 798 495 778 475 q 818 544 818 515 q 798 594 818 574 q 749 614 778 614 z "},"i":{"ha":278,"x_min":69,"x_max":208,"o":"m 139 71 q 90 50 110 71 q 69 1 69 29 q 90 -48 69 -28 q 139 -68 110 -68 q 188 -48 168 -68 q 208 1 208 -28 q 188 50 208 29 q 139 71 168 71 m 139 210 q 90 189 110 210 q 69 140 69 168 q 90 91 69 111 q 139 71 110 71 q 188 91 168 71 q 208 140 208 111 q 188 189 208 168 q 139 210 168 210 m 139 349 q 90 328 110 349 q 69 279 69 307 q 90 230 69 250 q 139 210 110 210 q 188 230 168 210 q 208 279 208 250 q 188 328 208 307 q 139 349 168 349 m 139 488 q 90 467 110 488 q 69 418 69 446 q 90 369 69 389 q 139 349 110 349 q 188 369 168 349 q 208 418 208 389 q 188 467 208 446 q 139 488 168 488 m 139 626 q 90 606 110 626 q 69 557 69 585 q 90 508 69 528 q 139 488 110 488 q 188 508 168 488 q 208 557 208 528 q 188 606 208 585 q 139 626 168 626 m 139 765 q 90 744 110 765 q 69 696 69 724 q 90 647 69 667 q 139 626 110 626 q 188 647 168 626 q 208 696 208 667 q 188 744 208 724 q 139 765 168 765 m 139 1043 q 90 1022 110 1043 q 69 974 69 1001 q 90 924 69 944 q 139 904 110 904 q 188 924 168 904 q 208 974 208 944 q 188 1022 208 1001 q 139 1043 168 1043 z "},"j":{"ha":453,"x_min":0,"x_max":383,"o":"m 69 -204 q 20 -225 40 -204 q 0 -274 0 -246 q 20 -323 0 -303 q 69 -343 40 -343 q 119 -323 99 -343 q 139 -274 139 -303 q 119 -225 139 -246 q 69 -204 99 -204 m 201 -168 q 152 -188 172 -168 q 132 -237 132 -208 q 152 -287 132 -267 q 201 -307 172 -307 q 251 -287 231 -307 q 271 -237 271 -267 q 251 -188 271 -208 q 201 -168 231 -168 m 292 -65 q 242 -85 263 -65 q 222 -135 222 -106 q 242 -183 222 -162 q 292 -204 263 -204 q 340 -183 319 -204 q 361 -135 361 -162 q 340 -85 361 -106 q 292 -65 319 -65 m 314 71 q 265 50 286 71 q 244 1 244 29 q 265 -48 244 -28 q 314 -68 286 -68 q 363 -48 343 -68 q 383 1 383 -28 q 363 50 383 29 q 314 71 343 71 m 314 210 q 265 189 286 210 q 244 140 244 168 q 265 91 244 111 q 314 71 286 71 q 363 91 343 71 q 383 140 383 111 q 363 189 383 168 q 314 210 343 210 m 314 349 q 265 328 286 349 q 244 279 244 307 q 265 230 244 250 q 314 210 286 210 q 363 230 343 210 q 383 279 383 250 q 363 328 383 307 q 314 349 343 349 m 314 488 q 265 467 286 488 q 244 418 244 446 q 265 369 244 389 q 314 349 286 349 q 363 369 343 349 q 383 418 383 389 q 363 467 383 446 q 314 488 343 488 m 314 626 q 265 606 286 626 q 244 557 244 585 q 265 508 244 528 q 314 488 286 488 q 363 508 343 488 q 383 557 383 528 q 363 606 383 585 q 314 626 343 626 m 314 765 q 265 744 286 765 q 244 696 244 724 q 265 647 244 667 q 314 626 286 626 q 363 647 343 626 q 383 696 383 667 q 363 744 383 724 q 314 765 343 765 m 314 1043 q 265 1022 286 1043 q 244 974 244 1001 q 265 924 244 944 q 314 904 286 904 q 363 924 343 904 q 383 974 383 944 q 363 1022 383 1001 q 314 1043 343 1043 z "},"k":{"ha":776,"x_min":69,"x_max":763,"o":"m 250 404 q 299 383 279 404 q 319 335 319 363 q 299 285 319 306 q 250 265 279 265 q 208 279 226 265 l 208 279 q 188 230 208 250 q 139 210 168 210 q 90 230 110 210 q 69 279 69 250 q 90 328 69 307 q 139 349 110 349 q 181 333 163 349 l 181 335 q 201 384 181 364 q 250 404 221 404 m 139 71 q 90 50 110 71 q 69 1 69 29 q 90 -48 69 -28 q 139 -68 110 -68 q 188 -48 168 -68 q 208 1 208 -28 q 188 50 208 29 q 139 71 168 71 m 139 210 q 90 189 110 210 q 69 140 69 168 q 90 91 69 111 q 139 71 110 71 q 188 91 168 71 q 208 140 208 111 q 188 189 208 168 q 139 210 168 210 m 139 488 q 90 467 110 488 q 69 418 69 446 q 90 369 69 389 q 139 349 110 349 q 188 369 168 349 q 208 418 208 389 q 188 467 208 446 q 139 488 168 488 m 360 319 q 311 299 332 319 q 290 250 290 279 q 311 201 290 222 q 360 181 332 181 q 409 201 389 181 q 429 250 429 222 q 409 299 429 279 q 360 319 389 319 m 471 238 q 422 217 443 238 q 401 168 401 196 q 422 119 401 139 q 471 99 443 99 q 520 119 500 99 q 540 168 540 139 q 520 217 540 196 q 471 238 500 238 m 582 154 q 533 133 553 154 q 513 85 513 113 q 533 35 513 56 q 582 15 553 15 q 631 35 611 15 q 651 85 651 56 q 631 133 651 113 q 582 154 611 154 m 693 71 q 644 50 664 71 q 624 1 624 29 q 644 -48 624 -28 q 693 -68 664 -68 q 742 -48 721 -68 q 763 1 763 -28 q 742 50 763 29 q 693 71 721 71 m 139 626 q 90 606 110 626 q 69 557 69 585 q 90 508 69 528 q 139 488 110 488 q 188 508 168 488 q 208 557 208 528 q 188 606 208 585 q 139 626 168 626 m 260 556 q 210 535 231 556 q 190 486 190 515 q 210 438 190 458 q 260 417 231 417 q 309 438 289 417 q 329 486 329 458 q 309 535 329 515 q 260 556 289 556 m 139 765 q 90 744 110 765 q 69 696 69 724 q 90 647 69 667 q 139 626 110 626 q 188 647 168 626 q 208 696 208 667 q 188 744 208 724 q 139 765 168 765 m 381 626 q 331 606 351 626 q 311 557 311 585 q 331 508 311 528 q 381 488 351 488 q 429 508 408 488 q 450 557 450 528 q 429 606 450 585 q 381 626 408 626 m 139 904 q 90 883 110 904 q 69 835 69 863 q 90 785 69 806 q 139 765 110 765 q 188 785 168 765 q 208 835 208 806 q 188 883 208 863 q 139 904 168 904 m 139 1043 q 90 1022 110 1043 q 69 974 69 1001 q 90 924 69 944 q 139 904 110 904 q 188 924 168 904 q 208 974 208 944 q 188 1022 208 1001 q 139 1043 168 1043 m 500 694 q 451 674 472 694 q 431 625 431 654 q 451 576 431 597 q 500 556 472 556 q 549 576 529 556 q 569 625 569 597 q 549 674 569 654 q 500 694 529 694 m 621 765 q 572 744 593 765 q 551 696 551 724 q 572 647 551 667 q 621 626 593 626 q 670 647 650 626 q 690 696 690 667 q 670 744 690 724 q 621 765 650 765 z "},"l":{"ha":347,"x_min":0,"x_max":278,"o":"m 208 71 q 159 50 179 71 q 139 1 139 29 q 159 -48 139 -28 q 208 -68 179 -68 q 258 -48 238 -68 q 278 1 278 -28 q 258 50 278 29 q 208 71 238 71 m 208 210 q 159 189 179 210 q 139 140 139 168 q 159 91 139 111 q 208 71 179 71 q 258 91 238 71 q 278 140 278 111 q 258 189 278 168 q 208 210 238 210 m 208 349 q 159 328 179 349 q 139 279 139 307 q 159 230 139 250 q 208 210 179 210 q 258 230 238 210 q 278 279 278 250 q 258 328 278 307 q 208 349 238 349 m 208 488 q 159 467 179 488 q 139 418 139 446 q 159 369 139 389 q 208 349 179 349 q 258 369 238 349 q 278 418 278 389 q 258 467 278 446 q 208 488 238 488 m 208 626 q 159 606 179 626 q 139 557 139 585 q 159 508 139 528 q 208 488 179 488 q 258 508 238 488 q 278 557 278 528 q 258 606 278 585 q 208 626 238 626 m 208 765 q 159 744 179 765 q 139 696 139 724 q 159 647 139 667 q 208 626 179 626 q 258 647 238 626 q 278 696 278 667 q 258 744 278 724 q 208 765 238 765 m 208 904 q 159 883 179 904 q 139 835 139 863 q 159 785 139 806 q 208 765 179 765 q 258 785 238 765 q 278 835 278 806 q 258 883 278 863 q 208 904 238 904 m 69 1043 q 20 1022 40 1043 q 0 974 0 1001 q 20 924 0 944 q 69 904 40 904 q 119 924 99 904 q 139 974 139 944 q 119 1022 139 1001 q 69 1043 99 1043 m 208 1043 q 159 1022 179 1043 q 139 974 139 1001 q 159 924 139 944 q 208 904 179 904 q 258 924 238 904 q 278 974 278 944 q 258 1022 278 1001 q 208 1043 238 1043 z "},"m":{"ha":1196,"x_min":56,"x_max":1140,"o":"m 125 71 q 76 50 96 71 q 56 1 56 29 q 76 -48 56 -28 q 125 -68 96 -68 q 174 -48 154 -68 q 194 1 194 -28 q 174 50 194 29 q 125 71 154 71 m 125 210 q 76 189 96 210 q 56 140 56 168 q 76 91 56 111 q 125 71 96 71 q 174 91 154 71 q 194 140 194 111 q 174 189 194 168 q 125 210 154 210 m 125 349 q 76 328 96 349 q 56 279 56 307 q 76 230 56 250 q 125 210 96 210 q 174 230 154 210 q 194 279 194 250 q 174 328 194 307 q 125 349 154 349 m 125 488 q 76 467 96 488 q 56 418 56 446 q 76 369 56 389 q 125 349 96 349 q 174 369 154 349 q 194 418 194 389 q 174 467 194 446 q 125 488 154 488 m 599 71 q 549 50 569 71 q 529 1 529 29 q 549 -48 529 -28 q 599 -68 569 -68 q 647 -48 626 -68 q 668 1 668 -28 q 647 50 668 29 q 599 71 626 71 m 147 622 q 98 602 118 622 q 78 553 78 582 q 98 504 78 525 q 147 483 118 483 q 196 504 175 483 q 217 553 217 525 q 196 602 217 582 q 147 622 175 622 m 599 210 q 549 189 569 210 q 529 140 529 168 q 549 91 529 111 q 599 71 569 71 q 647 91 626 71 q 668 140 668 111 q 647 189 668 168 q 599 210 626 210 m 599 349 q 549 328 569 349 q 529 279 529 307 q 549 230 529 250 q 599 210 569 210 q 647 230 626 210 q 668 279 668 250 q 647 328 668 307 q 599 349 626 349 m 238 725 q 188 705 208 725 q 168 656 168 685 q 188 607 168 628 q 238 586 208 586 q 286 607 265 586 q 307 656 307 628 q 286 705 307 685 q 238 725 265 725 m 599 488 q 549 467 569 488 q 529 418 529 446 q 549 369 529 389 q 599 349 569 349 q 647 369 626 349 q 668 418 668 389 q 647 467 668 446 q 599 488 626 488 m 369 761 q 320 741 340 761 q 300 692 300 721 q 320 643 300 664 q 369 622 340 622 q 419 643 399 622 q 439 692 439 664 q 419 741 439 721 q 369 761 399 761 m 1071 71 q 1022 50 1043 71 q 1001 1 1001 29 q 1022 -48 1001 -28 q 1071 -68 1043 -68 q 1120 -48 1100 -68 q 1140 1 1140 -28 q 1120 50 1140 29 q 1071 71 1100 71 m 599 626 q 549 606 569 626 q 529 557 529 585 q 549 508 529 528 q 599 488 569 488 q 647 508 626 488 q 668 557 668 528 q 647 606 668 585 q 599 626 626 626 m 501 725 q 453 705 474 725 q 432 656 432 685 q 453 607 432 628 q 501 586 474 586 q 551 607 531 586 q 571 656 571 628 q 551 705 571 685 q 501 725 531 725 m 1071 210 q 1022 189 1043 210 q 1001 140 1001 168 q 1022 91 1001 111 q 1071 71 1043 71 q 1120 91 1100 71 q 1140 140 1140 111 q 1120 189 1140 168 q 1071 210 1100 210 m 1071 349 q 1022 328 1043 349 q 1001 279 1001 307 q 1022 230 1001 250 q 1071 210 1043 210 q 1120 230 1100 210 q 1140 279 1140 250 q 1120 328 1140 307 q 1071 349 1100 349 m 694 725 q 645 705 665 725 q 625 656 625 685 q 645 607 625 628 q 694 586 665 586 q 744 607 724 586 q 764 656 764 628 q 744 705 764 685 q 694 725 724 725 m 1071 488 q 1022 467 1043 488 q 1001 418 1001 446 q 1022 369 1001 389 q 1071 349 1043 349 q 1120 369 1100 349 q 1140 418 1140 389 q 1120 467 1140 446 q 1071 488 1100 488 m 826 761 q 777 741 797 761 q 757 692 757 721 q 777 643 757 664 q 826 622 797 622 q 876 643 856 622 q 896 692 896 664 q 876 741 896 721 q 826 761 856 761 m 1050 622 q 1001 602 1021 622 q 981 553 981 582 q 1001 504 981 525 q 1050 483 1021 483 q 1099 504 1078 483 q 1119 553 1119 525 q 1099 602 1119 582 q 1050 622 1078 622 m 960 725 q 910 705 931 725 q 890 656 890 685 q 910 607 890 628 q 960 586 931 586 q 1008 607 988 586 q 1029 656 1029 628 q 1008 705 1029 685 q 960 725 988 725 z "},"n":{"ha":928,"x_min":69,"x_max":872,"o":"m 257 700 q 306 680 285 700 q 326 631 326 660 q 306 581 326 601 q 257 561 285 561 q 208 581 228 561 q 188 631 188 601 q 189 647 188 639 q 139 626 168 626 q 90 647 110 626 q 69 696 69 667 q 90 744 69 724 q 139 765 110 765 q 188 744 168 765 q 208 696 208 724 q 207 679 208 688 q 257 700 226 700 m 139 71 q 90 50 110 71 q 69 1 69 29 q 90 -48 69 -28 q 139 -68 110 -68 q 188 -48 168 -68 q 208 1 208 -28 q 188 50 208 29 q 139 71 168 71 m 139 210 q 90 189 110 210 q 69 140 69 168 q 90 91 69 111 q 139 71 110 71 q 188 91 168 71 q 208 140 208 111 q 188 189 208 168 q 139 210 168 210 m 139 349 q 90 328 110 349 q 69 279 69 307 q 90 230 69 250 q 139 210 110 210 q 188 230 168 210 q 208 279 208 250 q 188 328 208 307 q 139 349 168 349 m 139 488 q 90 467 110 488 q 69 418 69 446 q 90 369 69 389 q 139 349 110 349 q 188 369 168 349 q 208 418 208 389 q 188 467 208 446 q 139 488 168 488 m 139 626 q 90 606 110 626 q 69 557 69 585 q 90 508 69 528 q 139 488 110 488 q 188 508 168 488 q 208 557 208 528 q 188 606 208 585 q 139 626 168 626 m 803 71 q 753 50 774 71 q 733 1 733 29 q 753 -48 733 -28 q 803 -68 774 -68 q 852 -48 832 -68 q 872 1 872 -28 q 852 50 872 29 q 803 71 832 71 m 803 210 q 753 189 774 210 q 733 140 733 168 q 753 91 733 111 q 803 71 774 71 q 852 91 832 71 q 872 140 872 111 q 852 189 872 168 q 803 210 832 210 m 382 757 q 333 737 354 757 q 313 688 313 717 q 333 638 313 658 q 382 618 354 618 q 431 638 411 618 q 451 688 451 658 q 431 737 451 717 q 382 757 411 757 m 803 349 q 753 328 774 349 q 733 279 733 307 q 753 230 733 250 q 803 210 774 210 q 852 230 832 210 q 872 279 872 250 q 852 328 872 307 q 803 349 832 349 m 521 761 q 472 741 493 761 q 451 692 451 721 q 472 643 451 664 q 521 622 493 622 q 570 643 550 622 q 590 692 590 664 q 570 741 590 721 q 521 761 550 761 m 803 488 q 753 467 774 488 q 733 418 733 446 q 753 369 733 389 q 803 349 774 349 q 852 369 832 349 q 872 418 872 389 q 852 467 872 446 q 803 488 832 488 m 650 711 q 601 691 621 711 q 581 642 581 671 q 601 592 581 613 q 650 572 621 572 q 699 592 679 572 q 719 642 719 613 q 699 691 719 671 q 650 711 679 711 m 749 614 q 699 594 719 614 q 679 544 679 574 q 699 495 679 515 q 749 475 719 475 q 798 495 778 475 q 818 544 818 515 q 798 594 818 574 q 749 614 778 614 z "},"o":{"ha":940,"x_min":28,"x_max":913,"o":"m 240 119 q 191 99 211 119 q 171 50 171 79 q 191 1 171 21 q 240 -19 211 -19 q 290 1 269 -19 q 310 50 310 21 q 290 99 310 79 q 240 119 269 119 m 146 222 q 97 201 118 222 q 76 153 76 181 q 97 103 76 124 q 146 83 118 83 q 195 103 175 83 q 215 153 215 124 q 195 201 215 181 q 146 222 175 222 m 364 58 q 315 38 335 58 q 294 -11 294 18 q 315 -60 294 -40 q 364 -81 335 -81 q 413 -60 392 -81 q 433 -11 433 -40 q 413 38 433 18 q 364 58 392 58 m 97 351 q 48 331 68 351 q 28 282 28 310 q 48 233 28 253 q 97 213 68 213 q 147 233 126 213 q 167 282 167 253 q 147 331 167 310 q 97 351 126 351 m 501 46 q 452 26 472 46 q 432 -24 432 6 q 452 -73 432 -53 q 501 -93 472 -93 q 551 -73 531 -93 q 571 -24 571 -53 q 551 26 571 6 q 501 46 531 46 m 97 489 q 48 469 68 489 q 28 419 28 449 q 48 370 28 390 q 97 350 68 350 q 147 370 126 350 q 167 419 167 390 q 147 469 167 449 q 97 489 126 489 m 635 83 q 585 63 606 83 q 565 14 565 43 q 585 -35 565 -14 q 635 -56 606 -56 q 684 -35 664 -56 q 704 14 704 -14 q 684 63 704 43 q 635 83 664 83 m 146 618 q 97 598 118 618 q 76 549 76 578 q 97 499 76 519 q 146 479 118 479 q 195 499 175 479 q 215 549 215 519 q 195 598 215 578 q 146 618 175 618 m 744 167 q 695 147 715 167 q 675 97 675 126 q 695 48 675 68 q 744 28 715 28 q 794 48 774 28 q 814 97 814 68 q 794 147 814 126 q 744 167 774 167 m 239 719 q 190 699 210 719 q 169 650 169 679 q 190 601 169 621 q 239 581 210 581 q 288 601 268 581 q 308 650 308 621 q 288 699 308 679 q 239 719 268 719 m 817 285 q 767 264 788 285 q 747 215 747 243 q 767 166 747 186 q 817 146 788 146 q 866 166 846 146 q 886 215 886 186 q 866 264 886 243 q 817 285 846 285 m 364 782 q 315 762 335 782 q 294 713 294 742 q 315 663 294 683 q 364 643 335 643 q 413 663 392 643 q 433 713 433 683 q 413 762 433 742 q 364 782 392 782 m 843 421 q 794 400 814 421 q 774 351 774 379 q 794 302 774 322 q 843 282 814 282 q 892 302 872 282 q 913 351 913 322 q 892 400 913 379 q 843 421 872 421 m 500 794 q 451 774 472 794 q 431 725 431 753 q 451 676 431 696 q 500 656 472 656 q 549 676 529 656 q 569 725 569 696 q 549 774 569 753 q 500 794 529 794 m 818 556 q 769 535 789 556 q 749 486 749 515 q 769 438 749 458 q 818 417 789 417 q 867 438 846 417 q 888 486 888 458 q 867 535 888 515 q 818 556 846 556 m 633 757 q 584 736 604 757 q 564 688 564 715 q 584 638 564 658 q 633 618 604 618 q 683 638 663 618 q 703 688 703 658 q 683 736 703 715 q 633 757 663 757 m 744 674 q 695 653 715 674 q 675 604 675 633 q 695 556 675 576 q 744 535 715 535 q 794 556 774 535 q 814 604 814 576 q 794 653 814 633 q 744 674 774 674 z "},"p":{"ha":928,"x_min":69,"x_max":900,"o":"m 139 -207 q 90 -228 110 -207 q 69 -276 69 -249 q 90 -326 69 -306 q 139 -346 110 -346 q 188 -326 168 -346 q 208 -276 208 -306 q 188 -228 208 -249 q 139 -207 168 -207 m 139 -68 q 90 -89 110 -68 q 69 -137 69 -110 q 90 -187 69 -167 q 139 -207 110 -207 q 188 -187 168 -207 q 208 -137 208 -167 q 188 -89 208 -110 q 139 -68 168 -68 m 139 71 q 90 50 110 71 q 69 1 69 29 q 90 -48 69 -28 q 139 -68 110 -68 q 188 -48 168 -68 q 208 1 208 -28 q 188 50 208 29 q 139 71 168 71 m 139 210 q 90 189 110 210 q 69 140 69 168 q 90 91 69 111 q 139 71 110 71 q 188 91 168 71 q 208 140 208 111 q 188 189 208 168 q 139 210 168 210 m 278 71 q 228 50 249 71 q 208 1 208 29 q 228 -48 208 -28 q 278 -68 249 -68 q 327 -48 307 -68 q 347 1 347 -28 q 327 50 347 29 q 278 71 307 71 m 139 349 q 90 328 110 349 q 69 279 69 307 q 90 230 69 250 q 139 210 110 210 q 188 230 168 210 q 208 279 208 250 q 188 328 208 307 q 139 349 168 349 m 417 71 q 367 50 388 71 q 347 1 347 29 q 367 -48 347 -28 q 417 -68 388 -68 q 466 -48 446 -68 q 486 1 486 -28 q 466 50 486 29 q 417 71 446 71 m 139 488 q 90 467 110 488 q 69 418 69 446 q 90 369 69 389 q 139 349 110 349 q 188 369 168 349 q 208 418 208 389 q 188 467 208 446 q 139 488 168 488 m 554 76 q 506 56 526 76 q 485 7 485 35 q 506 -42 485 -22 q 554 -62 526 -62 q 603 -42 583 -62 q 624 7 624 -22 q 603 56 624 35 q 554 76 583 76 m 139 626 q 90 606 110 626 q 69 557 69 585 q 90 508 69 528 q 139 488 110 488 q 188 508 168 488 q 208 557 208 528 q 188 606 208 585 q 139 626 168 626 m 682 129 q 633 109 653 129 q 613 60 613 89 q 633 10 613 31 q 682 -10 653 -10 q 731 10 711 -10 q 751 60 751 31 q 731 109 751 89 q 682 129 711 129 m 139 765 q 90 744 110 765 q 69 696 69 724 q 90 647 69 667 q 139 626 110 626 q 188 647 168 626 q 208 696 208 667 q 188 744 208 724 q 139 765 168 765 m 279 697 q 230 677 250 697 q 210 628 210 657 q 230 578 210 599 q 279 558 250 558 q 328 578 307 558 q 349 628 349 599 q 328 677 349 657 q 279 697 307 697 m 779 228 q 730 207 750 228 q 710 158 710 186 q 730 109 710 129 q 779 89 750 89 q 828 109 808 89 q 849 158 849 129 q 828 207 849 186 q 779 228 808 228 m 404 756 q 355 735 375 756 q 335 686 335 715 q 355 638 335 658 q 404 617 375 617 q 453 638 433 617 q 474 686 474 658 q 453 735 474 715 q 404 756 433 756 m 831 356 q 781 335 801 356 q 761 286 761 315 q 781 237 761 257 q 831 217 801 217 q 880 237 860 217 q 900 286 900 257 q 880 335 900 315 q 831 356 860 356 m 542 763 q 492 742 513 763 q 472 693 472 722 q 492 644 472 664 q 542 624 513 624 q 590 644 569 624 q 611 693 611 664 q 590 742 611 722 q 542 763 569 763 m 828 493 q 778 473 799 493 q 758 424 758 453 q 778 375 758 396 q 828 354 799 354 q 877 375 857 354 q 897 424 897 396 q 877 473 897 453 q 828 493 857 493 m 671 714 q 622 694 642 714 q 601 644 601 674 q 622 596 601 617 q 671 575 642 575 q 719 596 699 575 q 740 644 740 617 q 719 694 740 674 q 671 714 699 714 m 772 619 q 723 599 743 619 q 703 550 703 579 q 723 501 703 522 q 772 481 743 481 q 821 501 800 481 q 842 550 842 522 q 821 599 842 579 q 772 619 800 619 z "},"q":{"ha":928,"x_min":28,"x_max":858,"o":"m 156 215 q 107 194 128 215 q 86 146 86 174 q 107 97 86 117 q 156 76 128 76 q 205 97 185 76 q 225 146 225 117 q 205 194 225 174 q 156 215 185 215 m 257 121 q 208 100 229 121 q 188 51 188 79 q 208 2 188 22 q 257 -18 229 -18 q 306 2 286 -18 q 326 51 326 22 q 306 100 326 79 q 257 121 286 121 m 100 342 q 51 321 71 342 q 31 272 31 300 q 51 223 31 243 q 100 203 71 203 q 149 223 129 203 q 169 272 169 243 q 149 321 169 300 q 100 342 129 342 m 386 72 q 338 52 358 72 q 317 3 317 32 q 338 -47 317 -26 q 386 -67 358 -67 q 435 -47 415 -67 q 456 3 456 -26 q 435 52 456 32 q 386 72 415 72 m 97 479 q 48 459 68 479 q 28 410 28 439 q 48 360 28 381 q 97 340 68 340 q 147 360 126 340 q 167 410 167 381 q 147 459 167 439 q 97 479 126 479 m 789 -207 q 740 -228 760 -207 q 719 -276 719 -249 q 740 -326 719 -306 q 789 -346 760 -346 q 838 -326 818 -346 q 858 -276 858 -306 q 838 -228 858 -249 q 789 -207 818 -207 m 524 79 q 474 58 494 79 q 454 10 454 38 q 474 -40 454 -19 q 524 -60 494 -60 q 573 -40 553 -60 q 593 10 593 -19 q 573 58 593 38 q 524 79 553 79 m 789 -68 q 740 -89 760 -68 q 719 -137 719 -110 q 740 -187 719 -167 q 789 -207 760 -207 q 838 -187 818 -207 q 858 -137 858 -167 q 838 -89 858 -110 q 789 -68 818 -68 m 149 607 q 99 587 119 607 q 79 538 79 567 q 99 489 79 510 q 149 468 119 468 q 198 489 178 468 q 218 538 218 510 q 198 587 218 567 q 149 607 178 607 m 649 138 q 600 117 621 138 q 579 68 579 97 q 600 19 579 39 q 649 -1 621 -1 q 698 19 678 -1 q 718 68 718 39 q 698 117 718 97 q 649 138 678 138 m 789 71 q 740 50 760 71 q 719 1 719 29 q 740 -48 719 -28 q 789 -68 760 -68 q 838 -48 818 -68 q 858 1 858 -28 q 838 50 858 29 q 789 71 818 71 m 246 706 q 197 685 217 706 q 176 636 176 665 q 197 587 176 607 q 246 567 217 567 q 295 587 275 567 q 315 636 315 607 q 295 685 315 665 q 246 706 275 706 m 789 210 q 740 189 760 210 q 719 140 719 168 q 740 91 719 111 q 789 71 760 71 q 838 91 818 71 q 858 140 858 111 q 838 189 858 168 q 789 210 818 210 m 374 758 q 324 738 344 758 q 304 689 304 718 q 324 640 304 661 q 374 619 344 619 q 422 640 401 619 q 443 689 443 661 q 422 738 443 718 q 374 758 401 758 m 789 349 q 740 328 760 349 q 719 279 719 307 q 740 230 719 250 q 789 210 760 210 q 838 230 818 210 q 858 279 858 250 q 838 328 858 307 q 789 349 818 349 m 511 764 q 462 744 482 764 q 442 694 442 724 q 462 646 442 667 q 511 625 482 625 q 560 646 540 625 q 581 694 581 667 q 560 744 581 724 q 511 764 540 764 m 789 488 q 740 467 760 488 q 719 418 719 446 q 740 369 719 389 q 789 349 760 349 q 838 369 818 349 q 858 418 858 389 q 838 467 858 446 q 789 488 818 488 m 650 764 q 601 744 621 764 q 581 694 581 724 q 601 646 581 667 q 650 625 621 625 q 699 646 679 625 q 719 694 719 667 q 699 744 719 724 q 650 764 679 764 m 789 626 q 740 606 760 626 q 719 557 719 585 q 740 508 719 528 q 789 488 760 488 q 838 508 818 488 q 858 557 858 528 q 838 606 858 585 q 789 626 818 626 m 789 765 q 740 744 760 765 q 719 696 719 724 q 740 647 719 667 q 789 626 760 626 q 838 647 818 626 q 858 696 858 667 q 838 744 858 724 q 789 765 818 765 z "},"r":{"ha":607,"x_min":69,"x_max":593,"o":"m 139 71 q 90 50 110 71 q 69 1 69 29 q 90 -48 69 -28 q 139 -68 110 -68 q 188 -48 168 -68 q 208 1 208 -28 q 188 50 208 29 q 139 71 168 71 m 139 210 q 90 189 110 210 q 69 140 69 168 q 90 91 69 111 q 139 71 110 71 q 188 91 168 71 q 208 140 208 111 q 188 189 208 168 q 139 210 168 210 m 139 349 q 90 328 110 349 q 69 279 69 307 q 90 230 69 250 q 139 210 110 210 q 188 230 168 210 q 208 279 208 250 q 188 328 208 307 q 139 349 168 349 m 139 488 q 90 467 110 488 q 69 418 69 446 q 90 369 69 389 q 139 349 110 349 q 188 369 168 349 q 208 418 208 389 q 188 467 208 446 q 139 488 168 488 m 139 626 q 90 606 110 626 q 69 557 69 585 q 90 508 69 528 q 139 488 110 488 q 188 508 168 488 q 208 557 208 528 q 188 606 208 585 q 139 626 168 626 m 139 765 q 90 744 110 765 q 69 696 69 724 q 90 647 69 667 q 139 626 110 626 q 188 647 168 626 q 208 696 208 667 q 188 744 208 724 q 139 765 168 765 m 258 697 q 209 677 229 697 q 189 628 189 657 q 209 578 189 599 q 258 558 229 558 q 308 578 288 558 q 328 628 328 599 q 308 677 328 657 q 258 697 288 697 m 385 756 q 335 735 356 756 q 315 686 315 714 q 335 637 315 657 q 385 617 356 617 q 434 637 414 617 q 454 686 454 657 q 434 735 454 714 q 385 756 414 756 m 524 765 q 474 744 494 765 q 454 696 454 724 q 474 647 454 667 q 524 626 494 626 q 573 647 553 626 q 593 696 593 667 q 573 744 593 724 q 524 765 553 765 z "},"s":{"ha":876,"x_min":24,"x_max":849,"o":"m 744 661 q 794 640 774 661 q 814 592 814 619 q 794 542 814 563 q 744 522 774 522 q 695 542 715 522 q 675 592 675 563 q 686 629 675 611 q 646 617 668 617 q 597 637 617 617 q 576 686 576 657 q 597 735 576 714 q 646 756 617 756 q 695 735 675 756 q 715 686 715 714 q 704 647 715 665 q 744 661 722 661 m 739 339 q 788 319 768 339 q 808 269 808 299 q 776 213 808 232 l 779 213 q 828 192 808 213 q 849 143 849 171 q 828 94 849 114 q 779 74 808 74 q 730 94 750 74 q 710 143 710 114 q 740 200 710 179 l 739 200 q 690 220 710 200 q 669 269 669 240 q 690 319 669 299 q 739 339 710 339 m 226 535 q 276 515 256 535 q 296 465 296 494 q 276 417 296 438 q 226 396 256 396 q 177 417 197 396 q 157 465 157 438 q 177 515 157 494 q 226 535 197 535 m 243 758 q 292 738 272 758 q 313 689 313 718 q 292 640 313 661 q 243 619 272 619 q 219 624 231 619 q 233 582 233 606 q 213 533 233 554 q 164 513 193 513 q 115 533 135 513 q 94 582 94 554 q 115 631 94 611 q 164 651 135 651 q 188 647 176 651 q 174 689 174 667 q 194 738 174 718 q 243 758 214 758 m 163 133 q 114 113 135 133 q 93 64 93 92 q 114 15 93 35 q 163 -6 135 -6 q 212 15 192 -6 q 232 64 232 35 q 212 113 232 92 q 163 133 192 133 m 93 253 q 44 232 65 253 q 24 183 24 211 q 44 134 24 154 q 93 114 65 114 q 142 134 122 114 q 163 183 163 154 q 142 232 163 211 q 93 253 122 253 m 288 74 q 238 53 258 74 q 218 4 218 32 q 238 -45 218 -25 q 288 -65 258 -65 q 337 -45 317 -65 q 357 4 357 -25 q 337 53 357 32 q 288 74 317 74 m 424 49 q 375 28 396 49 q 354 -21 354 7 q 375 -70 354 -50 q 424 -90 396 -90 q 473 -70 453 -90 q 493 -21 493 -50 q 473 28 493 7 q 424 49 453 49 m 563 60 q 513 40 533 60 q 493 -10 493 19 q 513 -59 493 -39 q 563 -79 533 -79 q 611 -59 590 -79 q 632 -10 632 -39 q 611 40 632 19 q 563 60 590 60 m 690 108 q 641 88 661 108 q 621 39 621 68 q 641 -10 621 11 q 690 -31 661 -31 q 740 -10 719 -31 q 760 39 760 11 q 740 88 760 68 q 690 108 719 108 m 353 479 q 303 458 324 479 q 283 410 283 438 q 303 360 283 381 q 353 340 324 340 q 402 360 382 340 q 422 410 422 381 q 402 458 422 438 q 353 479 382 479 m 489 451 q 440 431 460 451 q 419 382 419 410 q 440 333 419 353 q 489 313 460 313 q 538 333 518 313 q 558 382 558 353 q 538 431 558 410 q 489 451 518 451 m 624 413 q 574 392 594 413 q 554 343 554 371 q 574 294 554 314 q 624 274 594 274 q 672 294 651 274 q 693 343 693 314 q 672 392 693 371 q 624 413 651 413 m 376 794 q 327 774 347 794 q 307 725 307 754 q 327 676 307 696 q 376 656 347 656 q 425 676 404 656 q 446 725 446 696 q 425 774 446 754 q 376 794 404 794 m 515 796 q 466 775 486 796 q 446 726 446 754 q 466 677 446 697 q 515 657 486 657 q 564 677 543 657 q 585 726 585 697 q 564 775 585 754 q 515 796 543 796 z "}}}
